<?xml version='1.0' encoding='ASCII' standalone='yes'?>
<svg xmlns="http://www.w3.org/2000/svg" xmlns:xlink="http://www.w3.org/1999/xlink" version="1.1" width="1024.0pt" viewBox="0 0 1024.0 1536.0" height="1536.0pt">
  <metadata>(c) 2025 Serge Vakulenko. Licensed under CC BY-SA 4.0.</metadata><g>
    <g><g transform="translate(0.000000,1536.000000) scale(0.100000,-0.100000)" fill="#efac78" stroke="none">
<path d="M4392 12509 c-141 -18 -357 -87 -503 -160 -143 -71 -310 -206 -395 -319 -14 -19 -48 -80 -75 -135 -108 -224 -131 -457 -84 -845 15 -122 16 -126 48 -149 128 -98 227 -239 227 -325 0 -77 -33 -72 -82 12 -48 85 -134 164 -225 209 -74 36 -83 38 -178 38 -116 0 -156 -16 -218 -84 -105 -116 -141 -284 -97 -457 69 -274 293 -468 540 -468 84 0 140 21 206 78 45 38 64 36 64 -6 0 -40 -33 -97 -75 -128 -19 -14 -35 -30 -35 -37 -1 -51 166 -433 190 -433 4 0 10 8 13 18 11 36 156 360 187 417 126 230 301 389 498 452 107 34 245 47 362 34 54 -6 104 -13 112 -16 10 -4 18 6 26 33 16 54 77 121 136 148 86 40 175 28 246 -33 45 -39 54 -69 18 -60 -13 3 -48 13 -78 22 -128 37 -220 -22 -220 -142 0 -64 31 -116 103 -173 156 -127 513 -250 723 -250 166 0 358 51 490 132 181 109 288 321 255 503 -16 85 -72 194 -126 244 -175 161 -513 187 -838 65 -119 -44 -195 -64 -247 -64 -36 0 -48 6 -82 40 -22 22 -42 40 -44 40 -1 0 -17 -29 -33 -64 -40 -83 -128 -166 -208 -196 -249 -94 -489 156 -528 550 -18 181 85 397 226 472 62 32 192 33 262 1 55 -26 146 -108 173 -158 10 -19 21 -35 25 -35 4 0 9 18 13 40 9 60 49 142 91 188 73 82 173 104 263 58 49 -25 165 -139 154 -152 -4 -4 -2 -4 5 0 9 5 -1 46 -36 149 -27 78 -51 158 -55 178 -8 47 -51 112 -89 134 -22 13 -42 16 -78 12 -69 -8 -98 -27 -169 -107 -35 -38 -69 -70 -76 -70 -19 0 -28 43 -20 96 11 85 82 192 168 254 l37 27 -53 64 c-221 269 -565 404 -914 358z m380 -513 c102 -31 213 -127 264 -228 28 -55 30 -71 9 -88 -11 -9 -33 -3 -112 33 -124 57 -171 70 -258 70 -99 0 -158 -28 -237 -112 -35 -37 -79 -90 -98 -119 -19 -28 -38 -52 -42 -52 -14 0 -8 163 6 211 67 219 272 344 468 285z m-1544 -1407 c73 -36 137 -105 180 -193 55 -113 64 -186 22 -186 -13 0 -33 23 -61 70 -23 39 -48 70 -55 70 -8 0 -14 -2 -14 -4 0 -2 -4 -27 -10 -55 -13 -67 -1 -121 39 -176 17 -24 31 -46 31 -50 0 -13 -61 4 -91 26 -83 59 -105 188 -50 292 l29 56 -41 38 c-74 68 -141 79 -200 33 -32 -26 -37 -25 -37 5 0 14 15 40 38 65 37 38 42 40 99 40 47 0 73 -7 121 -31z m1333 -149 c82 -12 232 -65 266 -94 23 -20 24 -25 13 -47 -7 -13 -14 -25 -15 -27 -2 -2 -230 84 -353 135 -34 14 -65 29 -68 34 -7 12 74 11 157 -1z"/>
<path d="M5641 9438 c-49 -85 -176 -199 -274 -244 -30 -14 -26 -15 70 -10 105 5 190 24 255 57 64 32 66 20 6 -40 -150 -149 -334 -172 -752 -96 l-129 24 -66 -43 c-37 -23 -124 -96 -195 -162 -70 -65 -160 -145 -199 -178 -40 -32 -73 -62 -74 -65 -1 -3 19 -21 46 -39 272 -184 722 -258 1016 -165 232 73 508 300 630 517 33 58 118 257 113 261 -2 1 -34 9 -73 18 -107 26 -182 67 -255 141 -36 36 -72 66 -80 66 -8 0 -26 -19 -39 -42z m-91 -503 c-35 -37 -133 -83 -194 -90 -63 -8 -142 6 -203 37 -63 32 -63 47 0 35 68 -12 215 -2 302 22 39 11 81 20 94 20 l24 1 -23 -25z"/>
<path d="M9375 8851 c-140 -38 -483 -177 -744 -302 -80 -38 -147 -71 -149 -74 -3 -2 10 -21 29 -42 19 -21 62 -75 97 -119 l63 -82 52 26 c92 44 298 119 493 177 207 62 329 114 386 164 71 62 88 190 32 242 -22 21 -37 24 -107 26 -56 2 -105 -3 -152 -16z"/>
<path d="M4270 8536 c0 -8 9 -52 19 -98 29 -121 32 -238 6 -238 -16 0 -63 87 -89 167 -10 29 -22 55 -27 59 -5 3 -7 9 -4 13 2 5 -23 -6 -56 -23 -69 -36 -77 -52 -59 -128 17 -72 34 -102 89 -161 117 -125 283 -213 701 -371 52 -20 111 -47 131 -60 43 -30 150 -207 266 -438 43 -87 82 -158 87 -158 21 0 -14 349 -54 530 l-19 85 57 90 c72 114 91 170 92 266 0 65 -4 84 -30 135 -17 32 -44 69 -59 81 -56 44 -57 42 -64 -55 -6 -96 -27 -162 -51 -162 -27 0 -39 42 -44 145 l-4 100 -117 1 c-165 2 -327 31 -486 86 -77 27 -211 93 -252 124 -25 19 -33 21 -33 10z"/>
<path d="M8100 8431 c-136 -43 -216 -133 -278 -310 -22 -66 -26 -92 -26 -196 0 -77 6 -150 18 -203 10 -46 15 -87 11 -90 -4 -4 -20 8 -36 26 l-29 32 -40 -25 c-52 -33 -97 -95 -116 -164 -24 -79 -14 -239 20 -355 30 -100 119 -290 165 -354 l32 -43 47 32 c70 48 189 149 260 221 l63 64 -27 25 c-14 13 -32 36 -40 51 -14 27 -19 78 -8 78 3 0 26 -18 51 -39 109 -97 282 -103 476 -18 63 29 71 43 30 58 -84 30 -161 97 -189 164 -23 56 -18 162 10 212 l24 42 -39 39 c-42 43 -49 41 -68 -19 -44 -138 -233 -242 -360 -198 -31 11 -42 29 -18 29 38 0 148 47 194 82 39 30 61 57 85 106 20 40 28 67 22 69 -66 22 -167 126 -214 220 -38 76 -65 204 -40 188 6 -4 42 -49 80 -100 122 -162 221 -236 320 -237 66 0 109 25 138 82 20 38 22 55 17 105 -14 149 -191 393 -314 434 -50 16 -158 13 -221 -8z"/>
<path d="M8835 8196 c-42 -11 -115 -41 -115 -49 0 -1 7 -20 15 -42 23 -64 19 -171 -9 -230 -23 -50 -78 -107 -122 -127 -35 -16 -25 -30 32 -50 96 -33 234 -15 334 45 144 85 210 196 181 304 -35 130 -158 188 -316 149z"/>
<path d="M9080 7705 c-35 -37 -97 -71 -186 -101 -67 -22 -90 -25 -159 -21 -44 3 -89 7 -100 9 -44 7 -72 -119 -40 -182 22 -43 73 -77 140 -95 75 -19 125 -19 199 0 86 23 125 44 178 96 88 88 97 214 20 302 -20 22 -24 22 -52 -8z"/>
<path d="M8256 6943 c-4 -5 -13 -8 -19 -8 -7 0 -13 -6 -13 -12 -1 -7 -3 -16 -4 -20 -1 -5 -2 -11 -1 -15 0 -5 -3 -8 -9 -8 -5 0 -10 -7 -10 -15 0 -9 -8 -19 -17 -22 -10 -4 -21 -11 -24 -16 -4 -5 -12 -6 -18 -2 -9 5 -9 11 1 23 12 15 11 16 -4 3 -10 -7 -16 -17 -13 -21 3 -5 1 -11 -4 -14 -5 -3 -7 -16 -3 -28 3 -13 1 -19 -6 -15 -5 4 -12 1 -15 -5 -3 -9 -10 -7 -22 7 -9 11 -14 15 -11 9 7 -14 -29 -48 -42 -40 -6 4 -9 -5 -7 -19 2 -27 -13 -33 -34 -12 -10 10 -12 9 -9 -3 2 -9 -4 -14 -15 -13 -10 0 -16 -2 -13 -5 3 -3 1 -11 -5 -19 -9 -10 -8 -18 4 -31 9 -9 15 -21 14 -27 -1 -5 7 -10 18 -10 11 0 19 -5 18 -12 -2 -7 4 -10 12 -7 9 4 22 1 29 -5 8 -7 28 -16 45 -21 28 -8 30 -7 21 10 -13 25 -13 30 4 30 8 0 17 -9 21 -20 4 -14 14 -19 35 -17 15 1 26 5 24 9 -5 7 16 23 31 23 5 0 9 14 10 30 0 22 5 30 17 29 10 -1 15 3 11 9 -11 17 -13 88 -3 82 6 -4 8 -11 5 -16 -4 -5 -1 -9 5 -9 6 0 10 6 9 13 -1 6 1 20 5 29 12 27 -11 58 -44 58 -17 0 -30 -4 -30 -10 0 -5 -6 -7 -12 -5 -8 3 -14 -4 -14 -20 -2 -30 16 -33 36 -5 17 24 45 26 54 5 3 -8 1 -15 -3 -15 -5 0 -12 6 -14 13 -3 7 -6 5 -6 -5 -1 -11 -9 -18 -21 -18 -23 0 -24 -4 -10 -31 16 -28 4 -40 -26 -27 -16 7 -20 14 -13 19 19 11 2 27 -26 24 -30 -4 -31 0 -5 27 15 16 17 24 8 29 -8 5 -1 10 18 15 16 4 36 15 44 25 14 15 20 15 45 5 l30 -13 3 59 c2 44 -1 58 -11 58 -7 0 -17 -3 -21 -7z m-130 -240 c-1 -12 7 -19 23 -21 38 -6 53 -26 41 -56 -7 -18 -17 -26 -34 -26 -14 0 -28 5 -31 10 -3 6 -1 10 5 10 6 0 8 5 5 10 -3 6 -1 10 6 10 7 0 3 9 -9 21 -27 24 -41 18 -35 -15 3 -13 0 -27 -6 -30 -7 -5 -11 2 -11 16 0 13 -9 30 -20 38 -27 20 -25 29 6 25 15 -1 28 3 31 11 8 20 31 17 29 -3z m-92 -36 c3 4 6 -8 6 -25 0 -22 6 -32 20 -37 25 -8 27 -27 3 -23 -22 4 -54 38 -47 49 3 5 -7 9 -23 9 -19 0 -24 -3 -15 -9 11 -7 11 -9 0 -14 -18 -6 -21 30 -5 48 8 8 19 10 33 4 12 -4 25 -5 28 -2z"/>
<path d="M3015 6090 c-75 -124 -248 -281 -402 -366 -38 -21 -69 -38 -71 -39 -2 -2 5 -22 15 -46 54 -137 173 -275 278 -322 100 -45 110 -52 113 -75 6 -38 -33 -47 -127 -28 l-82 17 -57 -51 c-31 -28 -61 -49 -67 -47 -24 8 -15 55 20 107 20 29 34 56 33 59 -2 3 -30 32 -64 64 l-61 57 -40 -29 c-102 -74 -98 -229 9 -346 120 -132 319 -166 487 -84 87 43 155 114 216 228 72 133 78 135 73 26 -3 -58 -11 -104 -23 -130 -30 -65 -26 -70 20 -25 57 56 90 118 118 226 34 126 67 122 67 -7 0 -52 13 -49 38 9 34 80 47 153 46 257 -1 114 -11 160 -60 263 -61 128 -173 223 -353 301 l-91 39 -35 -58z"/>
</g>
</g>
    <g><g transform="translate(0.000000,1536.000000) scale(0.100000,-0.100000)" fill="#c21919" stroke="none">
<path d="M6281 6036 c-17 -20 -187 -101 -272 -129 -305 -100 -613 -133 -1156 -124 -576 9 -950 59 -1234 166 l-75 28 27 -51 c15 -28 41 -88 59 -133 30 -79 33 -84 78 -104 219 -98 496 -166 865 -214 30 -4 45 -10 41 -17 -10 -16 -346 -3 -459 17 -124 22 -301 70 -390 105 -42 17 -78 30 -80 30 -3 0 -5 -29 -5 -64 l0 -64 53 -25 c124 -61 312 -123 467 -156 58 -12 125 -26 150 -31 133 -28 297 -42 558 -47 457 -9 721 26 976 128 134 54 160 68 252 138 140 105 196 200 178 300 -10 54 -12 55 -57 19 -180 -144 -373 -218 -727 -279 -110 -19 -270 -24 -270 -8 0 4 33 12 73 19 39 6 124 25 187 42 63 16 129 33 145 37 177 45 358 129 497 229 112 81 148 122 148 167 0 37 -10 44 -29 21z"/>
<path d="M4908 5883 c23 -2 61 -2 85 0 23 2 4 4 -43 4 -47 0 -66 -2 -42 -4z"/>
<path d="M6305 5463 c-149 -141 -386 -251 -662 -309 -21 -4 -23 -10 -23 -82 0 -110 -32 -341 -70 -507 -35 -157 -114 -433 -150 -530 -15 -41 -74 -194 -97 -253 -11 -28 119 73 201 156 109 111 176 203 233 320 25 50 47 92 50 92 9 0 -7 -121 -24 -180 -34 -118 -105 -230 -216 -339 -108 -106 -179 -154 -304 -202 -13 -5 -23 -15 -23 -22 0 -47 -241 -462 -343 -589 l-29 -36 32 -46 c108 -158 296 -258 590 -313 130 -24 449 -29 585 -9 282 41 505 148 693 330 182 177 256 347 283 658 10 125 10 162 -5 293 -33 288 -140 686 -256 950 -123 282 -174 383 -240 480 -39 58 -152 195 -160 195 -3 -1 -32 -26 -65 -57z"/>
<path d="M3641 5308 c-39 -128 -128 -255 -211 -298 -14 -7 -43 -28 -65 -45 -70 -57 -124 -79 -195 -80 -50 -1 -80 -9 -132 -33 -37 -18 -72 -32 -77 -32 -15 0 -306 -446 -402 -617 -155 -274 -238 -541 -239 -760 0 -89 31 -252 61 -324 58 -140 186 -281 353 -391 160 -106 298 -160 516 -203 116 -23 163 -27 330 -28 256 -2 385 20 580 101 295 124 488 293 706 622 94 141 148 237 232 412 249 517 375 938 436 1451 l6 47 -83 -6 c-45 -3 -109 -10 -142 -15 -93 -14 -503 -10 -678 6 -141 13 -342 42 -436 63 l-34 7 -62 -180 c-70 -204 -86 -245 -197 -510 -144 -342 -165 -390 -175 -388 -6 1 -23 -20 -38 -48 -26 -48 -50 -63 -27 -16 6 12 13 36 15 52 12 80 85 319 166 537 49 134 99 270 110 303 36 107 91 256 96 265 5 8 -89 40 -118 40 -8 0 -40 -44 -73 -102 -148 -260 -329 -536 -430 -653 -38 -44 -80 -95 -93 -113 -13 -18 -26 -31 -29 -27 -3 3 0 11 6 17 15 15 16 31 0 22 -7 -4 -8 -3 -4 5 4 6 11 9 16 6 4 -3 6 3 4 12 -3 10 2 27 11 38 16 20 16 19 10 -5 -5 -19 -4 -22 4 -10 6 8 8 22 6 30 -3 9 9 38 27 65 32 52 128 216 128 221 0 1 26 46 58 101 59 99 234 434 230 439 -2 1 -32 14 -68 29 -36 15 -70 29 -76 31 -6 3 -16 -14 -23 -38z"/>
</g>
</g>
    <g><g transform="translate(0.000000,1536.000000) scale(0.100000,-0.100000)" fill="#000000" stroke="none">
<path d="M3646 14375 c-375 -61 -665 -272 -831 -605 -54 -108 -79 -178 -141 -399 -112 -399 -145 -479 -238 -578 -84 -91 -160 -126 -281 -131 -116 -5 -172 10 -284 78 -47 27 -86 48 -88 46 -11 -11 54 -122 100 -173 240 -263 662 -237 943 58 113 119 156 195 276 484 104 252 144 321 248 426 131 133 231 174 404 167 117 -5 184 -27 260 -85 62 -47 130 -146 153 -221 32 -106 13 -297 -62 -624 -15 -64 -25 -137 -25 -185 l0 -78 -67 -23 c-96 -34 -273 -124 -361 -185 -98 -67 -206 -176 -265 -265 -178 -267 -231 -582 -166 -990 10 -67 19 -126 19 -130 0 -4 -53 -7 -118 -7 -104 -1 -123 -4 -173 -27 -112 -52 -199 -158 -245 -302 -34 -106 -36 -261 -5 -379 55 -210 211 -401 394 -481 65 -29 187 -56 254 -56 l49 0 28 -95 c33 -109 116 -286 174 -373 l41 -59 -44 -56 c-55 -69 -128 -126 -219 -168 -58 -27 -83 -33 -165 -37 -192 -9 -302 37 -456 192 -63 64 -110 121 -128 156 l-27 54 0 -70 c0 -120 51 -277 128 -393 148 -223 389 -359 692 -392 200 -21 492 27 652 107 59 30 70 30 66 2 -2 -17 -22 -32 -74 -59 -87 -43 -174 -71 -454 -144 -666 -174 -1259 -448 -1729 -798 -253 -189 -422 -373 -507 -552 -68 -143 -79 -195 -78 -380 1 -144 3 -169 27 -248 56 -183 143 -331 275 -464 209 -213 494 -328 757 -304 l70 6 21 -55 c12 -30 24 -62 28 -71 5 -11 -3 -20 -28 -32 -44 -21 -92 -85 -111 -150 -60 -201 87 -420 334 -497 35 -11 78 -20 97 -20 19 0 34 -4 34 -9 0 -4 -23 -38 -50 -74 -193 -254 -402 -629 -474 -847 -59 -178 -71 -255 -71 -445 1 -202 11 -248 90 -410 95 -195 254 -349 475 -460 30 -15 57 -29 59 -31 1 -1 -9 -27 -23 -56 -21 -44 -24 -59 -17 -91 9 -36 25 -64 46 -79 12 -9 13 -7 -60 -48 -166 -93 -289 -185 -550 -415 -88 -78 -197 -172 -243 -209 -45 -38 -87 -76 -92 -86 -32 -60 83 -139 255 -176 108 -23 320 -23 438 0 244 47 499 172 706 346 56 48 75 59 82 49 5 -8 6 -22 3 -32 -8 -27 24 -57 61 -57 80 0 241 70 316 138 90 80 128 207 109 359 -9 73 -25 137 -45 186 -6 14 -2 17 21 17 52 0 237 47 334 84 202 79 336 165 496 319 l92 88 88 -88 c57 -56 118 -105 169 -134 82 -48 241 -112 308 -124 20 -4 37 -9 37 -11 0 -1 -21 -31 -48 -66 -77 -102 -97 -156 -97 -268 0 -88 3 -101 33 -162 73 -149 203 -213 467 -233 83 -6 92 -5 109 14 13 14 17 31 14 61 -2 22 -3 40 -2 40 1 0 57 -26 125 -58 499 -236 848 -278 1236 -150 194 64 388 220 410 329 l6 32 -94 -9 c-52 -5 -148 -9 -214 -8 -193 1 -326 46 -592 200 -62 37 -144 78 -181 93 -54 21 -67 30 -64 45 5 24 -47 78 -120 126 l-56 37 53 17 c81 25 262 118 343 176 194 137 334 318 402 519 51 152 64 244 63 461 0 176 -4 226 -27 355 -62 354 -187 734 -351 1070 -88 180 -166 301 -274 422 l-80 91 6 55 c6 61 -10 142 -33 168 -13 15 -12 21 7 53 26 44 28 119 6 163 -16 29 -15 31 10 54 28 26 73 113 73 142 0 19 15 23 25 7 10 -16 104 -83 180 -128 161 -95 316 -141 505 -149 227 -9 415 35 651 154 268 136 419 260 497 409 57 112 75 193 70 322 l-5 102 44 0 c24 0 65 5 91 11 78 19 227 94 276 139 37 34 57 45 99 51 116 19 238 87 306 173 94 117 92 297 -4 400 l-24 26 32 61 c28 54 32 72 32 138 0 59 -5 85 -23 119 -29 54 -84 115 -128 143 -20 12 -34 23 -32 25 2 1 64 19 138 39 365 98 475 157 538 294 35 73 37 175 4 237 -66 128 -220 153 -482 77 -109 -31 -481 -189 -727 -308 l-191 -93 -59 14 c-263 62 -504 -104 -585 -403 -17 -63 -21 -106 -21 -220 1 -117 -2 -143 -14 -148 -9 -3 -50 -12 -92 -21 -103 -21 -200 -74 -356 -194 -149 -114 -159 -120 -223 -120 -93 0 -134 30 -396 288 -255 252 -371 349 -515 431 -163 94 -465 212 -579 227 -29 4 -54 10 -57 14 -2 4 42 30 99 58 286 142 492 376 616 697 13 33 26 64 30 68 14 16 146 10 180 -8 60 -31 123 -100 206 -226 97 -148 157 -205 268 -259 191 -92 436 -93 624 -4 132 63 257 203 301 337 28 84 44 210 36 277 l-7 55 -50 -104 c-79 -166 -176 -247 -326 -273 -93 -16 -151 0 -209 58 -64 64 -74 109 -83 369 -7 198 -10 228 -33 300 -15 44 -43 109 -64 145 -53 91 -180 214 -284 275 l-84 50 3 66 c13 224 -100 425 -293 520 -121 59 -216 81 -380 85 l-140 4 -3 48 c-12 225 -74 489 -165 699 -42 97 -44 103 -39 181 5 95 -14 166 -61 219 -29 33 -93 73 -119 73 -7 1 -26 22 -43 48 -41 64 -165 193 -244 253 -146 109 -338 187 -531 214 -61 8 -115 15 -121 15 -6 0 19 33 56 73 146 156 222 281 272 444 24 79 26 104 27 243 0 114 -4 173 -17 222 -97 387 -385 657 -792 743 -110 23 -336 28 -449 10z m1044 -1869 c225 -37 408 -133 564 -296 113 -120 115 -123 71 -150 -111 -69 -209 -272 -161 -335 14 -19 17 -17 83 54 95 104 177 135 254 96 34 -18 77 -82 86 -128 3 -18 32 -111 64 -207 32 -96 56 -176 54 -178 -2 -2 -13 15 -25 39 -28 54 -114 139 -165 163 -67 32 -117 32 -179 2 -31 -15 -69 -44 -86 -66 -36 -46 -76 -131 -85 -182 -4 -21 -10 -38 -14 -38 -3 0 -19 20 -34 44 -85 136 -247 203 -383 160 -110 -34 -225 -179 -255 -322 -16 -78 -6 -248 21 -340 34 -119 78 -200 150 -273 87 -87 142 -114 240 -113 62 0 84 5 128 28 83 42 138 99 181 187 l37 78 18 -30 c23 -38 72 -69 111 -69 36 0 118 23 278 79 164 57 317 78 448 63 262 -31 422 -148 474 -347 53 -204 -55 -435 -258 -554 -70 -41 -228 -96 -317 -110 -92 -15 -245 -13 -334 3 -194 38 -468 156 -569 246 -71 64 -90 99 -90 166 0 130 112 188 258 133 31 -12 59 -18 62 -15 3 3 -2 17 -11 31 -39 59 -141 92 -226 74 -73 -15 -129 -62 -165 -137 -25 -51 -33 -60 -50 -56 -11 3 -85 8 -165 11 -236 9 -378 -35 -542 -165 -145 -115 -230 -246 -367 -561 -47 -107 -89 -190 -95 -188 -35 11 -212 437 -186 445 49 17 116 117 106 158 -8 32 -21 30 -62 -6 -114 -100 -260 -104 -441 -14 -274 137 -406 529 -265 787 38 71 105 133 164 153 82 27 205 16 292 -25 78 -38 191 -142 224 -207 39 -76 82 -86 82 -18 0 82 -90 212 -218 315 l-43 34 -16 110 c-10 70 -16 190 -17 330 -1 209 0 225 27 330 55 221 168 395 342 527 288 219 696 334 1005 284z m799 -1016 c82 -41 155 -155 193 -300 26 -100 34 -272 16 -325 -13 -39 -14 -40 -143 -89 -71 -27 -151 -51 -176 -54 l-47 -4 -30 63 c-47 97 -67 209 -67 380 l0 145 38 77 c59 119 127 153 216 107z m-552 -98 c48 -25 116 -99 148 -162 12 -25 35 -83 50 -130 24 -73 28 -103 29 -205 1 -71 -4 -137 -12 -162 -19 -65 -72 -134 -133 -176 -129 -89 -265 -46 -371 117 -68 105 -115 315 -98 436 17 120 100 252 185 292 51 24 143 19 202 -10z m952 -2071 c34 -16 93 -37 132 -46 38 -9 69 -20 69 -24 0 -16 -81 -207 -107 -250 -149 -257 -451 -489 -717 -549 -100 -22 -333 -22 -448 1 -128 26 -251 63 -337 103 -80 37 -201 111 -201 124 0 4 28 29 62 56 34 27 120 104 191 171 71 67 162 145 203 173 l74 51 188 -32 c309 -54 456 -46 605 33 50 27 145 113 135 123 -2 2 -26 -7 -53 -20 -67 -33 -173 -55 -270 -55 l-80 0 54 30 c118 65 214 158 262 253 l20 39 78 -76 c51 -50 99 -86 140 -105z m3724 -463 c56 -22 74 -114 38 -194 -42 -92 -143 -145 -469 -243 -158 -47 -323 -108 -507 -186 -5 -2 -27 20 -48 49 -21 29 -63 82 -92 117 -30 35 -55 68 -55 72 0 18 480 233 717 321 221 83 327 99 416 64z m-5267 -356 c193 -116 452 -182 711 -182 l103 0 1 -77 c2 -215 77 -225 94 -13 4 50 10 90 14 90 3 0 21 -9 39 -20 43 -27 89 -100 103 -168 21 -104 -3 -187 -98 -339 l-46 -75 27 -146 c35 -192 46 -295 46 -412 l-1 -95 -89 180 c-89 182 -203 380 -243 424 -30 32 -111 70 -252 120 -140 50 -398 172 -482 229 -138 94 -214 201 -220 312 l-3 55 64 31 64 31 37 -99 c39 -101 69 -153 86 -143 23 15 2 201 -37 328 -3 9 -4 17 -1 17 2 0 40 -21 83 -48z m3958 -56 c73 -22 120 -59 192 -149 90 -114 136 -211 142 -301 3 -62 1 -75 -20 -105 -39 -58 -72 -76 -136 -76 -103 1 -201 74 -332 248 -36 47 -68 83 -72 79 -14 -14 24 -142 60 -201 44 -73 121 -153 168 -176 19 -9 34 -21 34 -26 0 -6 -11 -34 -25 -64 -41 -86 -125 -150 -231 -176 -68 -16 -74 -26 -23 -39 54 -15 146 1 205 35 58 34 118 103 139 161 10 27 21 52 25 57 3 4 25 -10 49 -32 l42 -39 -23 -38 c-19 -32 -23 -54 -23 -119 0 -69 4 -86 27 -127 36 -60 87 -101 162 -132 l61 -24 -74 -36 c-193 -93 -368 -86 -496 20 -40 32 -45 34 -45 16 0 -33 16 -67 52 -107 l33 -38 -75 -69 c-94 -87 -202 -176 -257 -213 l-43 -28 -20 24 c-43 50 -160 305 -186 405 -33 126 -36 253 -10 337 21 63 79 138 128 163 30 15 31 15 58 -18 15 -18 30 -31 33 -28 3 3 -4 52 -14 110 -34 194 -22 321 45 465 72 155 207 246 377 254 14 0 47 -5 73 -13z m-4359 -143 c18 -106 62 -191 137 -263 112 -109 398 -264 668 -360 80 -29 152 -56 162 -61 29 -15 158 -237 284 -489 67 -135 134 -256 149 -270 35 -32 54 -20 79 51 16 45 19 83 20 234 0 184 -4 220 -50 426 l-27 115 37 49 c87 113 120 216 114 354 -3 79 -8 107 -29 149 -18 36 -22 52 -13 52 40 0 383 -129 505 -190 169 -85 252 -152 519 -416 243 -240 356 -334 401 -334 36 0 27 -17 -26 -48 -103 -62 -183 -177 -193 -277 l-5 -50 115 120 c76 80 134 130 169 149 93 50 180 110 304 208 112 89 244 178 264 178 5 0 -3 -33 -17 -72 -23 -65 -26 -88 -26 -203 0 -89 5 -153 17 -203 77 -324 296 -615 525 -699 l53 -19 -128 -76 c-205 -122 -352 -182 -540 -218 -301 -58 -558 18 -838 247 l-60 49 -8 84 c-10 120 -37 220 -134 500 -91 263 -192 486 -284 624 -72 109 -237 281 -254 264 -2 -2 28 -57 66 -122 91 -154 217 -404 269 -536 82 -206 198 -572 216 -679 48 -296 -56 -439 -407 -555 -321 -106 -733 -149 -1229 -126 -610 27 -992 95 -1242 221 -121 61 -125 73 -108 342 7 120 8 221 3 268 l-9 77 48 6 c70 10 166 63 205 114 18 24 33 48 33 53 0 5 -35 -9 -78 -32 -68 -36 -162 -66 -162 -52 0 3 26 31 58 63 64 64 113 154 131 238 25 118 6 253 -44 309 l-24 28 6 -85 c7 -106 -10 -209 -46 -287 -48 -101 -179 -212 -351 -298 -63 -32 -191 -85 -204 -85 -2 0 -7 12 -11 28 -10 40 -53 110 -98 159 -79 86 -258 169 -386 179 l-66 6 95 -54 c213 -120 291 -185 336 -282 34 -73 32 -77 -26 -55 -102 39 -275 63 -376 53 -93 -10 -71 -23 116 -73 197 -52 281 -92 352 -170 122 -132 126 -224 17 -408 -47 -78 -185 -221 -271 -280 -201 -139 -348 -171 -534 -118 -236 68 -415 198 -549 400 -113 170 -157 305 -158 490 -1 184 43 310 170 480 299 401 1171 895 1948 1105 66 17 181 49 255 70 74 21 140 38 147 39 7 0 15 -16 18 -36z m5090 -112 c106 -48 155 -182 105 -286 -39 -81 -169 -179 -278 -211 -29 -9 -81 -16 -116 -16 -60 0 -160 24 -171 42 -2 4 14 20 37 35 122 81 167 208 122 340 -19 58 -12 69 70 94 79 26 178 26 231 2z m103 -484 c32 -34 54 -105 48 -155 -18 -137 -151 -238 -327 -250 -142 -9 -254 48 -277 141 -13 51 -2 112 26 139 17 17 24 18 58 9 87 -24 198 -6 319 54 39 18 81 45 94 59 30 32 32 32 59 3z m-833 -780 c20 -187 -78 -387 -189 -387 -51 0 -114 31 -171 83 l-46 42 99 73 c54 40 141 114 193 165 52 50 97 91 101 89 3 -1 9 -30 13 -65z m-5016 -447 c-4 -262 -6 -299 -19 -294 -43 18 -135 44 -157 44 -22 0 -24 3 -19 23 4 12 10 52 13 88 8 91 -15 162 -77 244 -28 36 -50 69 -50 74 0 4 35 18 78 30 42 13 106 38 142 56 36 18 71 33 79 34 11 1 13 -49 10 -299z m-54 -413 c105 -54 217 -164 262 -258 65 -131 79 -276 43 -427 -17 -71 -62 -182 -74 -182 -3 0 -2 24 1 53 6 60 -7 122 -26 122 -8 0 -22 -36 -37 -94 -13 -51 -35 -113 -50 -138 -24 -42 -109 -133 -124 -133 -4 0 7 27 23 60 24 48 31 78 35 140 3 48 1 80 -5 80 -5 0 -32 -41 -59 -91 -81 -152 -167 -230 -295 -270 -183 -57 -401 34 -477 199 -52 114 -24 230 68 277 24 12 29 9 92 -49 l67 -61 -33 -43 c-38 -47 -51 -85 -38 -108 7 -13 19 -7 68 36 58 51 60 51 104 44 25 -5 72 -9 105 -9 54 0 60 2 63 22 3 18 -11 28 -91 67 -80 38 -105 56 -165 121 -65 69 -152 212 -152 249 0 6 26 26 58 43 160 89 325 234 406 360 l47 72 52 -20 c29 -11 88 -39 132 -62z m3075 -52 c0 -45 -36 -86 -148 -167 -139 -100 -320 -184 -497 -229 -16 -4 -82 -21 -145 -37 -63 -17 -148 -36 -187 -42 -40 -7 -73 -15 -73 -19 0 -16 160 -11 270 8 354 61 547 135 727 279 45 36 47 35 57 -19 18 -100 -38 -195 -178 -300 -92 -70 -118 -84 -252 -138 -255 -102 -519 -137 -976 -128 -261 5 -425 19 -558 47 -25 5 -92 19 -150 31 -155 33 -343 95 -467 156 l-53 25 0 64 c0 35 2 64 5 64 2 0 38 -13 80 -30 89 -35 266 -83 390 -105 113 -20 449 -33 459 -17 4 7 -11 13 -41 17 -369 48 -646 116 -865 214 -45 20 -48 25 -78 104 -18 45 -44 105 -59 133 l-27 51 75 -28 c284 -107 658 -157 1234 -166 543 -9 851 24 1156 124 85 28 255 109 272 129 19 23 29 16 29 -21z m126 -567 c128 -154 173 -236 334 -603 116 -264 223 -662 256 -950 15 -131 15 -168 5 -293 -27 -311 -101 -481 -283 -658 -188 -182 -411 -289 -693 -330 -136 -20 -455 -15 -585 9 -294 55 -482 155 -590 313 l-32 46 29 36 c102 127 343 542 343 589 0 7 10 17 23 22 125 48 196 96 304 202 111 109 182 221 216 339 17 59 33 180 24 180 -3 0 -25 -42 -50 -92 -57 -117 -124 -209 -233 -320 -82 -83 -212 -184 -201 -156 23 59 82 212 97 253 36 97 115 373 150 530 38 166 70 397 70 507 0 72 2 78 23 82 276 58 513 168 662 309 33 31 62 56 65 57 3 0 33 -33 66 -72z m-2696 -133 c36 -15 66 -28 68 -29 4 -5 -171 -340 -230 -439 -32 -55 -58 -100 -58 -101 0 -5 -96 -169 -128 -221 -18 -27 -30 -56 -27 -65 2 -8 0 -22 -6 -30 -8 -12 -9 -9 -4 10 6 24 6 25 -10 5 -9 -11 -14 -28 -11 -38 2 -9 0 -15 -4 -12 -5 3 -12 0 -16 -6 -4 -8 -3 -9 4 -5 16 9 15 -7 0 -22 -6 -6 -9 -14 -6 -17 3 -4 16 9 29 27 13 18 55 69 93 113 101 117 282 393 430 653 33 58 65 102 73 102 29 0 123 -32 118 -40 -5 -9 -60 -158 -96 -265 -11 -33 -61 -169 -110 -303 -81 -218 -154 -457 -166 -537 -2 -16 -9 -40 -15 -52 -23 -47 1 -32 27 16 15 28 32 49 38 48 10 -2 31 46 175 388 111 265 127 306 197 510 l62 180 34 -7 c94 -21 295 -50 436 -63 175 -16 585 -20 678 -6 33 5 97 12 142 15 l83 6 -6 -47 c-61 -513 -187 -934 -436 -1451 -84 -175 -138 -271 -232 -412 -218 -329 -411 -498 -706 -622 -195 -81 -324 -103 -580 -101 -167 1 -214 5 -330 28 -218 43 -356 97 -516 203 -167 110 -295 251 -353 391 -30 72 -61 235 -61 324 1 219 84 486 239 760 96 171 387 617 402 617 5 0 40 14 77 32 52 24 82 32 132 33 71 1 125 23 195 80 22 17 51 38 65 45 83 43 172 170 211 298 7 24 17 41 23 38 6 -2 40 -16 76 -31z"/>
<path d="M4604 12000 c-179 -38 -314 -218 -314 -418 0 -74 12 -79 50 -25 174 246 311 286 569 168 147 -68 175 -58 126 42 -37 75 -127 163 -206 202 -71 34 -155 46 -225 31z"/>
<path d="M3038 10605 c-33 -19 -72 -80 -64 -102 6 -14 9 -13 30 6 25 24 81 37 119 27 28 -7 127 -83 127 -98 0 -5 -9 -23 -20 -39 -28 -39 -45 -123 -36 -183 6 -37 17 -58 48 -92 35 -38 101 -74 114 -62 2 3 -7 20 -21 38 -55 75 -68 160 -35 244 l11 30 52 -79 c29 -44 61 -81 71 -83 17 -4 18 1 14 52 -10 117 -119 276 -226 328 -58 28 -147 34 -184 13z"/>
<path d="M4410 10442 c0 -4 12 -13 28 -18 179 -71 372 -144 380 -144 15 0 31 31 25 48 -13 35 -194 99 -318 112 -110 12 -115 12 -115 2z"/>
<path d="M5321 11144 c-33 -24 -51 -74 -51 -146 1 -129 82 -220 160 -178 10 5 26 30 36 55 34 90 -2 237 -66 270 -37 19 -50 19 -79 -1z"/>
<path d="M4773 11092 c-30 -5 -71 -55 -79 -98 -23 -121 34 -255 113 -270 70 -13 116 52 115 167 0 127 -65 214 -149 201z"/>
<path d="M5465 8937 c-62 -16 -111 -21 -217 -21 -133 -1 -137 -2 -115 -18 38 -30 113 -49 188 -49 58 0 82 5 133 30 58 28 106 62 106 75 0 8 -4 7 -95 -17z"/>
</g>
</g>
  </g>
</svg>