<?xml version='1.0' encoding='ASCII' standalone='yes'?>
<svg xmlns="http://www.w3.org/2000/svg" xmlns:xlink="http://www.w3.org/1999/xlink" version="1.1" width="1024.0pt" viewBox="0 0 1024.0 1536.0" height="1536.0pt">
  <g>
    <g>
<g transform="translate(0.000000,1536.000000) scale(0.100000,-0.100000)" fill="#e7c49f" stroke="none">
<path d="M4450 12517 c-3 -3 -32 -8 -65 -11 -94 -9 -356 -82 -375 -105 -3 -3 -12 -7 -20 -9 -8 -2 -41 -15 -73 -29 -42 -19 -56 -30 -52 -41 4 -11 2 -12 -8 -4 -20 17 -256 -146 -242 -168 2 -3 -1 -12 -7 -20 -8 -12 -9 -12 -4 3 8 25 -3 21 -36 -15 -66 -74 -110 -139 -152 -228 -89 -189 -117 -379 -97 -653 14 -199 19 -229 35 -220 7 4 7 2 -1 -8 -22 -27 -5 -85 33 -114 19 -15 39 -23 46 -19 6 4 8 3 5 -3 -4 -6 12 -28 36 -50 77 -73 138 -179 139 -245 1 -78 -36 -74 -84 10 -49 85 -134 164 -225 208 -71 35 -85 38 -163 38 -47 0 -96 -2 -110 -5 -138 -30 -250 -230 -237 -424 5 -72 39 -212 56 -225 3 -3 7 -12 9 -20 5 -23 72 -130 83 -131 19 -3 25 -5 44 -16 11 -7 15 -13 10 -13 -6 0 -16 5 -23 12 -7 7 -12 8 -12 2 0 -12 62 -74 75 -74 4 0 0 10 -11 22 l-19 22 26 -20 c15 -10 23 -22 17 -25 -12 -8 5 -21 67 -51 81 -41 155 -62 168 -49 6 6 20 11 32 10 17 -1 16 -2 -5 -9 l-25 -7 28 -8 c63 -17 172 18 243 79 46 39 64 36 64 -7 0 -39 -27 -85 -76 -130 l-37 -34 27 -84 c33 -101 130 -307 155 -331 18 -16 19 -16 24 0 14 46 168 386 201 442 84 144 208 284 295 336 34 20 42 37 14 28 -15 -5 -15 -4 -3 4 9 7 18 7 26 1 7 -5 14 -6 16 -1 3 7 100 50 153 67 16 5 17 8 5 15 -9 6 -10 10 -3 10 6 0 15 -5 18 -11 4 -6 14 -8 22 -5 45 18 212 27 303 17 54 -6 104 -13 112 -16 10 -4 18 6 26 33 16 54 77 121 136 148 86 40 175 28 246 -33 22 -19 40 -43 40 -54 0 -18 -1 -18 -49 1 -64 25 -146 36 -155 21 -4 -6 -1 -11 6 -11 18 0 -12 -20 -31 -20 -11 0 -11 3 -1 15 22 26 -7 17 -38 -12 -41 -38 -52 -64 -52 -118 0 -88 56 -156 192 -236 125 -73 352 -153 511 -180 70 -12 80 -11 107 5 17 9 30 13 30 7 0 -5 -8 -12 -17 -14 -10 -3 9 -5 42 -6 33 0 78 4 100 9 22 6 58 13 79 16 50 7 147 40 211 72 98 49 190 124 181 148 -2 6 2 11 11 10 8 0 20 8 27 19 6 11 14 22 18 25 16 13 60 115 75 176 14 55 15 80 6 140 -13 89 -58 188 -112 247 -130 141 -412 195 -685 132 -60 -14 -113 -30 -118 -37 -4 -7 -8 -10 -8 -6 0 4 -46 -9 -102 -29 -57 -20 -131 -38 -165 -41 -62 -5 -63 -4 -102 35 -22 22 -44 37 -49 34 -4 -3 -20 -32 -35 -63 -37 -75 -128 -159 -204 -188 -102 -39 -215 -18 -301 55 -18 15 -37 23 -43 19 -7 -4 -9 -3 -6 2 3 6 -10 30 -30 54 -49 62 -99 172 -125 277 -24 98 -29 278 -10 326 7 16 8 27 2 27 -6 0 -10 5 -10 11 0 5 4 8 9 4 5 -3 26 27 47 66 73 139 163 204 294 212 19 2 41 6 49 11 10 6 12 5 7 -3 -4 -6 -1 -13 6 -15 102 -30 202 -104 243 -180 11 -20 22 -36 26 -36 4 0 9 18 13 40 9 60 49 142 91 188 105 117 239 109 364 -23 32 -35 56 -67 53 -71 -4 -4 -2 -4 5 0 8 4 -1 44 -34 139 -24 72 -50 156 -58 184 -16 66 -54 125 -77 119 -11 -2 -15 1 -11 10 7 20 -60 29 -112 14 -44 -12 -135 -81 -135 -102 0 -6 8 -5 18 3 15 13 16 12 3 -3 -7 -10 -17 -16 -21 -13 -4 2 -20 -9 -35 -25 -35 -37 -53 -38 -61 -4 -16 63 29 190 92 257 14 15 22 31 19 36 -3 5 0 13 6 17 8 4 9 3 5 -4 -4 -7 -2 -12 4 -12 6 0 13 6 16 14 3 8 16 17 30 20 41 11 28 40 -65 139 -34 36 -70 54 -38 19 10 -10 17 -22 17 -26 0 -5 -8 2 -19 15 -10 13 -17 28 -14 35 8 21 -187 159 -239 169 -11 3 -26 9 -33 15 -7 6 -45 21 -85 35 -54 18 -77 22 -86 14 -7 -6 -19 -9 -26 -6 -7 3 -4 6 7 7 35 1 -6 19 -61 25 -85 10 -229 17 -234 12z m194 -496 c6 -9 106 -23 166 -24 19 0 26 -2 16 -4 -15 -4 -10 -11 27 -34 53 -33 65 -36 46 -12 -13 15 -12 15 9 2 12 -8 18 -15 12 -17 -6 -2 9 -23 32 -47 22 -25 46 -41 51 -38 6 3 7 1 4 -4 -4 -6 7 -35 23 -64 33 -61 37 -81 15 -99 -11 -9 -33 -3 -112 33 -124 57 -171 70 -258 70 -101 0 -158 -27 -239 -115 -35 -38 -79 -91 -98 -118 -18 -27 -36 -50 -40 -50 -14 0 -8 163 6 211 45 147 153 255 290 290 40 10 46 14 30 20 -16 6 -16 8 -2 8 9 1 19 -3 22 -8z m-1419 -1430 c32 -16 63 -28 69 -27 6 2 8 1 4 -1 -3 -2 5 -16 18 -30 13 -14 40 -50 60 -80 21 -32 40 -51 47 -47 9 5 9 4 0 -6 -9 -10 -9 -19 1 -39 22 -41 38 -110 31 -131 -13 -40 -43 -22 -86 50 -23 39 -48 70 -55 70 -8 0 -14 -2 -14 -4 0 -2 -4 -27 -10 -55 -13 -67 -1 -121 39 -176 37 -52 38 -57 9 -54 -13 2 -29 0 -36 -5 -8 -5 -19 -3 -25 3 -9 9 -7 11 8 6 13 -5 7 5 -17 26 -60 55 -78 95 -78 169 0 45 7 79 22 110 30 65 30 72 -3 106 -64 66 -144 79 -202 34 -32 -26 -37 -25 -37 5 0 14 15 40 38 65 37 38 42 40 99 40 47 0 73 -7 118 -29z m1465 -185 c52 -18 104 -37 114 -41 14 -6 17 -5 12 3 -4 7 -2 12 4 12 7 0 10 -6 7 -12 -2 -7 2 -21 10 -30 12 -13 12 -21 2 -40 -6 -13 -13 -24 -14 -26 -1 -1 -65 22 -141 52 -76 30 -148 56 -159 58 -11 2 -22 5 -25 8 -3 3 -24 14 -48 25 -73 32 -63 39 44 31 73 -5 124 -15 194 -40z"/>
<path d="M5637 9434 c-25 -42 -26 -47 -11 -58 15 -12 15 -13 0 -13 -9 0 -16 5 -16 10 0 6 -28 -17 -62 -50 -35 -32 -91 -76 -125 -98 -35 -21 -63 -39 -63 -41 0 -12 220 9 244 23 6 4 19 9 29 10 10 2 35 12 57 23 59 30 67 23 26 -20 -79 -85 -158 -126 -284 -151 -42 -8 -59 -15 -50 -20 9 -6 6 -9 -10 -9 -13 0 -20 4 -17 10 4 6 -17 10 -57 10 -63 0 -258 26 -398 54 -75 14 -75 14 -124 -12 -27 -15 -62 -39 -78 -54 -16 -14 -33 -28 -38 -30 -20 -7 -250 -230 -245 -238 3 -5 0 -12 -6 -16 -8 -4 -9 -3 -5 4 4 7 4 12 1 12 -7 0 -107 -80 -117 -94 -10 -15 65 -65 80 -53 9 7 11 6 6 -6 -4 -12 14 -25 78 -55 285 -136 642 -174 893 -95 65 20 195 83 195 94 0 5 6 9 13 9 17 0 124 78 205 149 80 69 181 195 226 280 34 66 109 242 104 246 -2 2 -27 8 -57 14 -29 6 -81 23 -116 36 -34 14 -69 23 -77 20 -8 -3 -21 1 -28 10 -15 18 0 21 18 3 7 -7 12 -9 12 -5 0 9 -73 76 -83 77 -5 0 -5 -6 -1 -12 4 -7 -4 -3 -17 9 -13 12 -28 22 -34 23 -5 1 -12 3 -13 5 -10 10 28 -3 42 -14 26 -22 18 1 -11 31 -15 15 -34 28 -42 28 -9 0 -29 -21 -44 -46z m-85 -497 c-12 -13 -20 -26 -16 -29 3 -3 0 -9 -7 -14 -8 -5 -10 -3 -4 6 4 7 4 11 -1 8 -5 -2 -36 -17 -69 -33 -51 -25 -72 -29 -140 -30 -71 0 -88 4 -148 33 -37 18 -67 37 -67 41 0 5 24 4 53 -1 69 -13 214 -3 302 21 39 11 81 20 94 20 l24 1 -21 -23z"/>
<path d="M9375 8851 c-38 -11 -83 -25 -100 -32 -16 -6 -36 -13 -42 -15 -34 -7 -183 -70 -183 -78 0 -4 6 -6 13 -3 37 15 48 15 19 0 -23 -12 -35 -14 -40 -6 -11 17 -164 -48 -157 -66 4 -10 2 -11 -7 -4 -9 7 -40 -2 -105 -31 -51 -22 -93 -45 -93 -50 0 -4 8 -5 18 -1 14 5 15 4 5 -6 -10 -10 -16 -10 -24 -2 -9 9 -35 0 -103 -34 -50 -25 -93 -47 -96 -50 -2 -2 7 -14 20 -27 14 -13 58 -67 98 -119 l74 -96 51 26 c87 44 272 111 482 174 217 66 340 118 397 168 39 34 67 91 45 91 -7 0 -4 5 6 11 26 15 18 125 -9 115 -9 -3 -11 0 -7 11 5 12 2 15 -10 10 -11 -4 -14 -2 -10 9 3 7 4 14 2 14 -79 11 -184 7 -244 -9z"/>
<path d="M4268 8543 c6 -2 10 -8 7 -13 -3 -4 4 -46 14 -92 29 -124 32 -238 6 -238 -16 0 -63 87 -89 167 -10 29 -22 55 -27 59 -5 3 -7 9 -4 14 3 6 -8 2 -24 -8 -17 -9 -31 -21 -31 -26 0 -4 12 -1 28 8 l27 17 -24 -21 c-16 -13 -28 -17 -34 -11 -15 15 -57 -9 -63 -36 -7 -26 12 -115 33 -157 71 -139 342 -302 731 -437 48 -17 111 -44 141 -61 40 -22 52 -26 48 -13 -4 9 -3 14 3 10 6 -4 9 -12 8 -18 -4 -20 32 -78 44 -71 7 4 8 3 4 -4 -10 -16 36 -93 52 -87 7 3 10 0 7 -5 -8 -12 196 -420 209 -420 21 0 -14 342 -54 527 l-19 87 57 90 c72 115 91 171 92 266 0 59 -5 86 -25 129 -14 30 -28 51 -31 48 -3 -3 -1 -16 6 -29 11 -22 10 -22 -4 -4 -9 11 -13 28 -10 39 5 15 2 18 -14 13 -11 -4 -23 -2 -27 3 -4 7 1 9 12 5 12 -4 9 3 -10 20 -15 14 -32 26 -36 26 -5 0 -11 -39 -13 -87 -8 -134 -47 -202 -79 -140 -7 12 -14 67 -17 123 l-4 101 -97 0 c-111 -1 -219 8 -276 22 -25 6 -43 7 -49 1 -6 -6 -15 -10 -20 -10 -6 0 -5 4 3 9 11 7 -2 14 -45 26 -143 39 -326 119 -374 163 -14 12 -29 22 -35 21 -5 0 -4 -3 3 -6z"/>
<path d="M8098 8431 c-74 -24 -119 -53 -165 -105 -34 -39 -91 -137 -97 -169 -2 -7 -8 -24 -14 -39 -37 -89 -39 -244 -6 -403 9 -42 13 -79 10 -83 -4 -3 -19 7 -34 21 -16 15 -35 27 -44 27 -20 0 -101 -77 -121 -116 -25 -49 -40 -115 -28 -127 6 -6 11 -16 11 -22 0 -5 -5 -3 -10 5 -20 29 -8 -142 15 -236 39 -154 172 -424 209 -424 18 0 176 117 176 130 0 5 6 10 13 10 7 0 50 37 95 83 l82 84 -26 24 c-33 31 -54 71 -54 104 0 34 8 32 58 -14 81 -74 205 -97 341 -62 92 23 191 64 191 80 0 5 -27 22 -60 37 -65 29 -132 94 -156 149 -23 56 -18 162 10 212 l24 42 -39 39 c-43 44 -46 43 -73 -28 -10 -25 -25 -53 -34 -63 -13 -15 -14 -20 -3 -26 9 -6 10 -11 2 -15 -6 -4 -11 -2 -11 5 0 7 -8 5 -20 -6 -16 -14 -18 -21 -8 -28 9 -6 7 -7 -5 -3 -11 3 -30 -2 -45 -13 -15 -10 -40 -23 -57 -28 -17 -6 -29 -16 -27 -24 3 -10 0 -11 -8 -3 -7 7 -30 9 -55 7 -42 -5 -115 11 -115 26 0 4 24 13 53 20 59 16 142 55 154 73 4 7 17 18 27 24 20 10 69 91 81 134 7 22 6 23 -9 11 -14 -12 -16 -12 -11 1 4 9 -3 19 -18 25 -97 44 -227 254 -227 365 0 39 10 31 76 -58 40 -54 59 -72 72 -68 14 5 15 4 2 -5 -13 -9 -6 -20 40 -65 30 -31 61 -56 68 -56 6 0 12 -4 12 -8 0 -5 20 -19 45 -31 54 -27 129 -30 174 -6 34 17 78 78 61 83 -5 2 -3 11 6 19 25 26 10 114 -36 208 -37 76 -138 216 -162 224 -6 2 -8 -1 -3 -9 5 -9 4 -11 -4 -6 -6 4 -9 11 -6 16 5 8 -52 58 -61 53 -2 -1 -16 4 -30 12 -19 9 -33 11 -45 4 -23 -12 -38 -11 -19 1 11 7 4 9 -25 9 -35 -1 -37 -2 -15 -9 23 -7 23 -8 3 -9 -12 -1 -25 4 -28 9 -9 14 -31 12 -97 -9z"/>
<path d="M8835 8195 c-58 -13 -78 -23 -70 -35 3 -5 0 -12 -6 -16 -8 -4 -9 -3 -5 4 4 7 1 12 -8 12 -24 0 -27 -15 -11 -60 23 -66 19 -165 -9 -225 -23 -50 -78 -107 -121 -127 -35 -16 -19 -36 43 -54 74 -22 180 -15 247 16 28 13 52 24 55 25 20 5 70 37 70 45 0 6 6 10 14 10 17 0 48 39 40 51 -2 4 1 11 7 15 8 4 9 3 5 -4 -4 -7 -3 -12 3 -12 16 0 59 81 66 125 8 49 -7 110 -38 156 -28 42 -96 82 -114 67 -7 -5 -18 -8 -25 -5 -7 3 -4 6 7 6 17 1 17 3 5 11 -19 12 -91 10 -155 -5z"/>
<path d="M9085 7708 c-33 -33 -91 -67 -169 -97 -59 -23 -90 -28 -162 -29 -80 -1 -111 -5 -138 -20 -5 -3 -6 0 -2 6 4 7 15 12 24 12 12 0 13 3 5 11 -42 42 -83 -113 -48 -181 36 -70 157 -118 270 -107 163 16 285 104 315 226 13 54 1 118 -26 146 -8 8 -12 15 -8 15 4 0 -1 9 -11 20 -22 24 -25 24 -50 -2z"/>
<path d="M8266 6949 c-15 -12 -23 -26 -19 -32 4 -7 -2 -5 -12 3 -10 8 -16 10 -12 4 3 -6 -7 -24 -23 -39 -30 -29 -29 -44 4 -77 11 -12 11 -17 1 -31 -11 -15 -13 -16 -19 -2 -3 8 0 15 6 15 8 0 6 6 -4 16 -10 10 -23 14 -34 10 -15 -6 -15 -8 -1 -24 14 -16 14 -17 -9 -18 -13 -1 -24 2 -24 7 0 5 5 9 12 9 6 0 8 3 5 7 -4 3 0 15 10 25 10 12 12 18 4 18 -7 0 -9 5 -5 13 5 8 3 8 -9 -2 -9 -7 -15 -17 -12 -21 2 -4 -4 -15 -15 -25 -15 -13 -17 -22 -10 -36 8 -14 6 -21 -11 -29 -11 -7 -23 -9 -27 -6 -3 3 1 6 8 6 7 0 10 3 7 7 -4 3 -2 12 3 18 8 9 6 14 -5 19 -9 3 -14 2 -11 -3 3 -5 -1 -14 -9 -21 -18 -15 -5 -44 31 -72 22 -18 23 -58 2 -58 -6 0 -8 6 -5 14 7 17 -18 40 -33 31 -5 -3 -10 -12 -10 -20 0 -7 -6 -15 -12 -18 -16 -5 -61 41 -53 54 11 16 25 10 25 -11 0 -23 4 -24 29 -10 16 8 19 26 12 61 0 4 -7 9 -15 12 -10 4 -14 0 -11 -12 2 -14 -2 -17 -21 -15 -13 1 -22 -3 -21 -9 1 -7 -6 -11 -15 -11 -10 1 -16 -3 -15 -10 1 -6 -6 -10 -16 -10 -17 2 -17 1 -1 -17 9 -10 20 -16 25 -13 4 2 6 -4 4 -16 -2 -11 1 -23 7 -26 7 -4 8 -2 4 4 -11 18 -2 15 53 -19 35 -22 62 -31 88 -30 62 2 82 5 77 12 -5 8 15 23 31 24 6 1 9 6 7 13 -4 19 28 73 38 67 6 -3 7 1 4 9 -3 8 0 32 7 53 9 29 29 233 23 233 -1 0 -13 -9 -28 -21z m-19 -102 c2 -17 1 -19 -6 -7 -6 8 -13 11 -16 8 -4 -4 0 -17 9 -29 14 -20 16 -21 22 -5 9 23 23 1 17 -25 -7 -27 -20 -23 -38 11 -9 17 -20 30 -25 30 -6 0 -3 11 6 25 18 28 26 26 31 -8z m-67 -131 c5 -21 4 -34 -1 -30 -5 3 -12 -2 -15 -10 -8 -21 -40 -20 -50 2 -14 33 -10 47 19 50 17 2 27 9 27 19 0 26 11 8 20 -31z m66 29 c9 -8 11 -15 5 -15 -6 0 -8 -6 -5 -13 2 -7 -3 -21 -12 -32 -8 -11 -13 -15 -10 -9 3 6 1 25 -3 42 -12 42 -1 54 25 27z"/>
<path d="M8120 6700 c0 -13 7 -20 20 -20 13 0 20 7 20 20 0 13 -7 20 -20 20 -13 0 -20 -7 -20 -20z"/>
<path d="M3020 6099 c-16 -27 -30 -53 -30 -58 0 -5 -7 -11 -15 -15 -8 -3 -15 -10 -15 -16 0 -6 5 -8 12 -4 7 5 8 3 4 -5 -5 -7 -10 -10 -13 -7 -3 3 -45 -32 -94 -78 -85 -82 -215 -176 -292 -212 -43 -20 -43 -24 5 -119 42 -84 89 -147 105 -140 8 3 11 0 7 -6 -7 -13 54 -79 73 -79 7 0 13 8 13 18 0 14 2 15 10 2 6 -9 5 -17 -3 -22 -17 -10 15 -32 85 -58 31 -12 64 -30 73 -40 16 -17 15 -20 -4 -39 -25 -25 -31 -25 -128 -5 -65 13 -79 13 -88 2 -24 -31 -105 -89 -116 -83 -10 7 -9 35 2 74 2 7 16 28 32 45 15 17 26 36 25 41 -2 6 -30 36 -63 67 -61 57 -61 57 -86 40 -68 -46 -89 -84 -89 -161 0 -51 26 -141 41 -141 5 0 9 -6 9 -14 0 -35 149 -144 204 -150 12 -1 28 -6 35 -10 24 -15 165 -9 219 8 74 25 166 88 207 143 19 26 35 52 34 57 0 5 3 12 8 15 5 3 26 36 46 73 21 37 42 70 48 74 7 4 10 -23 8 -81 -1 -66 -7 -98 -23 -129 -32 -63 -31 -74 3 -42 30 29 42 54 19 40 -7 -4 -8 -3 -4 4 4 6 13 9 20 6 17 -7 60 61 52 82 -3 8 -2 12 3 9 14 -8 18 3 44 102 34 125 67 121 67 -8 0 -22 4 -39 9 -39 15 0 53 102 68 185 19 106 5 297 -22 287 -9 -4 -25 17 -25 33 0 6 4 3 10 -5 5 -8 11 -12 14 -9 9 8 -60 137 -98 184 -45 55 -155 138 -173 131 -8 -3 -11 -2 -8 4 3 5 -8 16 -25 25 -16 8 -30 13 -30 9 0 -4 -6 -2 -12 4 -7 6 -39 21 -70 35 l-57 26 -31 -50z"/>
</g>
</g>
    <g>
<g transform="translate(0.000000,1536.000000) scale(0.100000,-0.100000)" fill="#d55a43" stroke="none">
<path d="M6281 6036 c-34 -41 -306 -148 -461 -181 -280 -61 -531 -79 -969 -72 -561 9 -894 52 -1197 155 l-109 37 26 -50 c15 -27 41 -87 59 -132 30 -80 32 -83 84 -106 204 -94 490 -164 861 -212 41 -6 46 -9 30 -17 -26 -15 -336 -3 -450 17 -169 30 -419 104 -462 138 -10 7 -13 -6 -13 -61 l0 -70 67 -32 c148 -71 398 -146 618 -184 180 -32 376 -46 626 -46 405 0 654 36 884 127 130 51 173 75 264 143 140 106 189 188 175 298 -3 28 -9 52 -12 52 -3 0 -23 -15 -46 -33 -177 -142 -373 -217 -724 -277 -116 -19 -272 -25 -272 -9 0 4 33 12 73 19 91 15 312 71 437 111 131 42 277 115 387 194 116 84 153 124 153 170 0 37 -10 44 -29 21z"/>
<path d="M4908 5883 c23 -2 61 -2 85 0 23 2 4 4 -43 4 -47 0 -66 -2 -42 -4z"/>
<path d="M6329 5484 c-59 -61 -162 -132 -277 -189 -141 -71 -245 -106 -409 -141 -21 -4 -23 -10 -23 -77 0 -76 -20 -245 -45 -387 -47 -262 -150 -604 -270 -903 -13 -31 110 60 193 143 104 104 187 218 239 328 24 50 47 92 50 92 3 0 2 -28 -1 -62 -19 -172 -93 -314 -238 -456 -107 -105 -214 -177 -291 -196 -15 -4 -30 -14 -34 -24 -36 -108 -244 -464 -342 -586 -17 -21 -31 -42 -31 -45 0 -20 110 -147 156 -180 129 -93 316 -159 529 -187 146 -19 466 -14 590 10 375 72 704 314 826 608 41 100 65 209 80 365 11 114 10 151 -5 290 -26 244 -101 555 -189 788 -37 97 -67 174 -88 220 -12 28 -30 70 -41 95 -33 75 -118 242 -151 295 -44 72 -174 235 -187 235 -3 0 -22 -16 -41 -36z"/>
<path d="M3628 5277 c-46 -122 -122 -227 -192 -264 -16 -8 -51 -33 -78 -53 -63 -51 -151 -83 -203 -77 -31 5 -54 -1 -111 -29 -39 -19 -76 -34 -82 -34 -16 0 -311 -450 -399 -610 -210 -378 -280 -677 -223 -947 35 -168 97 -279 219 -396 125 -119 285 -219 445 -278 44 -17 147 -44 230 -61 138 -28 169 -31 351 -32 223 -1 323 13 480 65 112 38 286 124 373 187 234 166 467 478 664 891 205 429 337 828 402 1221 18 107 36 263 31 268 -2 2 -52 -2 -111 -9 -167 -18 -548 -23 -724 -9 -142 11 -412 48 -502 69 -30 7 -38 6 -38 -5 0 -25 -145 -423 -215 -589 -37 -88 -89 -212 -115 -275 -78 -187 -109 -250 -92 -188 3 14 2 19 -6 14 -7 -4 -12 -13 -12 -20 0 -22 -53 -111 -58 -97 -2 7 1 18 7 24 6 6 11 21 11 33 0 48 86 331 170 559 48 132 102 281 120 330 17 50 44 125 60 167 l27 77 -61 19 c-33 10 -64 17 -67 16 -3 -2 -30 -45 -59 -96 -160 -281 -364 -589 -448 -678 -13 -14 -42 -49 -64 -78 -23 -29 -43 -50 -46 -47 -3 3 0 11 6 17 15 15 16 32 2 23 -13 -8 49 110 88 168 16 23 43 69 62 102 49 89 62 112 117 205 28 47 90 161 137 254 84 164 90 185 54 186 -4 0 -32 11 -62 25 -30 14 -56 25 -58 25 -2 0 -15 -33 -30 -73z"/>
</g>
</g>
    <g>
<g transform="translate(0.000000,1536.000000) scale(0.100000,-0.100000)" fill="#000000" stroke="none">
<path d="M3646 14375 c-375 -61 -665 -272 -831 -605 -54 -108 -79 -178 -141 -399 -112 -399 -145 -479 -238 -578 -39 -43 -79 -73 -124 -95 -64 -31 -72 -33 -182 -33 -108 0 -119 2 -180 31 -36 17 -89 47 -117 67 -29 20 -53 31 -53 26 0 -28 57 -126 103 -176 240 -263 662 -237 943 58 113 119 156 195 276 484 104 252 144 321 248 426 131 133 231 174 404 167 117 -5 184 -27 260 -85 62 -47 130 -146 153 -221 32 -106 13 -297 -62 -624 -15 -64 -25 -137 -25 -185 l0 -78 -67 -23 c-96 -34 -273 -124 -361 -185 -98 -67 -206 -176 -265 -265 -178 -267 -231 -582 -166 -990 10 -67 19 -126 19 -130 0 -4 -53 -7 -118 -7 -104 -1 -123 -4 -173 -27 -112 -52 -199 -158 -245 -302 -34 -106 -36 -261 -5 -379 55 -210 211 -401 394 -481 65 -29 187 -56 254 -56 l49 0 28 -95 c33 -109 116 -286 174 -373 l41 -59 -44 -56 c-55 -69 -128 -126 -219 -168 -58 -27 -83 -33 -165 -37 -192 -9 -302 37 -456 192 -61 62 -111 122 -129 156 l-28 55 6 -95 c10 -180 84 -344 220 -489 178 -189 483 -296 781 -275 165 11 362 58 467 110 59 30 70 30 66 2 -2 -17 -22 -32 -74 -59 -87 -43 -174 -71 -454 -144 -666 -174 -1259 -448 -1729 -798 -253 -189 -422 -373 -507 -552 -68 -143 -79 -195 -78 -380 1 -144 3 -169 27 -248 56 -183 143 -331 275 -464 209 -213 494 -328 757 -304 l70 6 21 -55 c12 -30 24 -62 28 -71 5 -11 -3 -20 -28 -32 -44 -21 -92 -85 -111 -150 -60 -201 87 -420 334 -497 35 -11 78 -20 97 -20 19 0 34 -4 34 -9 0 -4 -23 -38 -50 -74 -193 -254 -402 -629 -474 -847 -59 -178 -71 -255 -71 -445 1 -202 11 -248 90 -410 95 -195 254 -349 475 -460 30 -15 57 -29 59 -31 1 -1 -9 -27 -23 -56 -21 -44 -24 -59 -17 -91 9 -36 25 -64 46 -79 12 -9 13 -7 -60 -48 -166 -93 -289 -185 -550 -415 -88 -78 -197 -172 -243 -209 -45 -38 -87 -76 -92 -86 -32 -60 83 -139 255 -176 108 -23 320 -23 438 0 244 47 499 172 706 346 56 48 75 59 82 49 5 -8 6 -22 3 -32 -8 -27 24 -57 61 -57 80 0 241 70 316 138 90 80 128 207 109 359 -9 73 -25 137 -45 186 -6 14 -2 17 21 17 52 0 237 47 334 84 202 79 336 165 496 319 l92 88 88 -88 c57 -56 118 -105 169 -134 86 -50 247 -114 313 -125 l40 -6 -45 -57 c-26 -31 -60 -85 -77 -121 -28 -58 -31 -75 -31 -160 0 -88 3 -101 33 -162 73 -149 203 -213 467 -233 83 -6 92 -5 109 14 13 14 17 31 14 61 -2 22 -3 40 -2 40 1 0 57 -26 125 -58 499 -236 848 -278 1236 -150 194 64 388 220 410 329 l6 32 -94 -9 c-52 -5 -148 -9 -214 -8 -193 1 -326 46 -592 200 -62 37 -144 78 -181 93 -54 21 -67 30 -64 45 5 24 -47 78 -120 126 l-56 37 53 17 c81 25 262 118 343 176 194 137 334 318 402 519 51 152 64 244 63 461 0 176 -4 226 -27 355 -62 354 -187 734 -351 1070 -88 180 -166 301 -274 422 l-80 91 6 55 c6 61 -10 142 -33 168 -13 15 -12 21 7 53 26 44 28 119 6 163 -16 29 -15 31 10 54 28 26 73 113 73 142 0 19 15 23 25 7 10 -16 104 -83 180 -128 161 -95 316 -141 505 -149 227 -9 415 35 651 154 268 136 419 260 497 409 57 112 75 193 70 322 l-5 102 44 0 c24 0 65 5 91 11 78 19 227 94 276 139 37 34 57 45 99 51 116 19 238 87 306 173 94 117 92 297 -4 400 l-24 26 32 61 c28 54 32 72 32 138 0 59 -5 85 -23 119 -29 54 -84 115 -128 143 -20 12 -34 23 -32 25 2 1 64 19 138 39 365 98 475 157 538 294 35 73 37 175 4 237 -66 128 -220 153 -482 77 -110 -31 -481 -189 -728 -309 l-193 -93 -57 14 c-203 53 -419 -50 -525 -252 -61 -117 -80 -204 -80 -370 1 -117 -2 -143 -14 -148 -9 -3 -50 -12 -92 -21 -103 -21 -200 -74 -356 -194 -149 -114 -159 -120 -223 -120 -93 0 -134 30 -396 288 -255 252 -371 349 -515 431 -168 97 -469 214 -584 227 -31 4 -57 10 -57 14 0 3 47 30 104 58 286 142 480 361 612 687 l32 80 44 6 c130 19 208 -36 344 -242 97 -148 157 -205 268 -259 191 -92 436 -93 624 -4 132 63 257 203 301 337 28 84 44 210 36 277 l-7 55 -50 -104 c-79 -166 -176 -247 -326 -273 -93 -16 -151 0 -209 58 -64 64 -74 109 -83 369 -7 198 -10 228 -33 300 -15 44 -43 109 -64 145 -53 91 -180 214 -284 275 l-84 50 3 66 c13 224 -100 425 -293 520 -121 59 -216 81 -380 85 l-140 4 -3 48 c-12 225 -74 489 -165 699 -42 97 -44 103 -39 181 5 95 -14 166 -61 219 -29 33 -93 73 -119 73 -7 1 -26 22 -43 48 -41 64 -165 193 -244 253 -146 109 -338 187 -531 214 -61 8 -115 15 -121 15 -6 0 19 33 56 73 146 156 222 281 272 444 24 79 26 104 27 243 0 114 -4 173 -17 222 -97 387 -385 657 -792 743 -110 23 -336 28 -449 10z m1129 -1885 c223 -60 409 -180 548 -355 l39 -49 -23 -15 c-48 -30 -126 -118 -152 -172 -34 -70 -44 -147 -23 -174 14 -19 17 -17 83 54 95 104 177 135 254 96 34 -18 77 -82 86 -128 3 -18 32 -110 64 -206 32 -96 57 -177 55 -179 -3 -2 -14 15 -26 39 -28 54 -114 139 -165 163 -67 32 -117 32 -179 2 -82 -40 -143 -128 -169 -243 l-13 -56 -33 51 c-43 67 -101 118 -170 151 -80 37 -185 37 -257 -1 -97 -51 -189 -182 -215 -306 -16 -78 -6 -248 21 -340 47 -165 151 -307 265 -362 72 -35 180 -34 250 2 85 44 141 102 183 188 l38 79 18 -30 c23 -38 72 -69 111 -69 36 0 118 23 275 78 164 58 314 79 446 64 266 -29 426 -146 479 -347 53 -204 -55 -435 -258 -554 -70 -41 -228 -96 -317 -110 -92 -15 -245 -13 -334 3 -194 38 -468 156 -569 246 -70 63 -90 99 -91 165 -1 129 113 189 259 134 31 -12 59 -18 62 -15 3 3 -2 17 -11 31 -39 59 -141 92 -226 74 -73 -15 -129 -62 -165 -137 -25 -51 -33 -60 -50 -56 -11 3 -83 8 -160 11 -238 9 -383 -35 -545 -164 -146 -116 -233 -248 -369 -562 -47 -107 -89 -190 -95 -188 -35 11 -213 436 -186 445 49 17 116 116 106 158 -8 32 -21 30 -62 -6 -114 -100 -260 -104 -442 -13 -273 137 -405 528 -264 786 40 74 103 132 163 152 82 27 206 17 290 -23 85 -41 159 -108 218 -197 55 -83 84 -94 89 -33 6 76 -84 215 -194 298 -33 24 -60 45 -62 46 -1 0 -10 54 -19 120 -11 79 -17 190 -17 334 -1 203 1 221 27 325 35 139 106 285 187 382 165 199 482 365 815 428 112 21 323 14 430 -15z m714 -1000 c82 -41 155 -155 193 -300 26 -100 34 -272 16 -325 -13 -39 -14 -40 -143 -89 -71 -27 -151 -51 -176 -54 l-47 -4 -30 63 c-47 97 -67 209 -67 380 l0 145 38 77 c59 119 127 153 216 107z m-552 -98 c48 -25 116 -99 148 -162 12 -25 35 -83 50 -130 24 -73 28 -103 29 -205 1 -71 -4 -137 -12 -162 -19 -65 -72 -134 -133 -176 -129 -89 -265 -46 -371 117 -68 105 -115 315 -98 436 17 120 100 252 185 292 51 24 143 19 202 -10z m954 -2072 c33 -15 91 -36 130 -45 38 -9 69 -20 69 -24 0 -17 -81 -206 -111 -257 -126 -222 -408 -451 -639 -521 -211 -65 -477 -51 -742 37 -125 42 -318 145 -318 169 0 5 28 30 62 57 35 27 120 103 189 169 70 67 161 144 203 174 l76 52 188 -32 c309 -54 456 -46 605 33 50 27 145 113 135 123 -2 2 -26 -7 -53 -20 -68 -34 -173 -55 -275 -55 l-85 0 50 24 c110 51 226 160 276 259 l20 39 80 -77 c51 -48 103 -87 140 -105z m3722 -462 c36 -14 57 -56 56 -110 -2 -148 -91 -208 -486 -327 -158 -47 -324 -108 -508 -186 -5 -2 -27 20 -48 49 -21 29 -63 82 -92 117 -30 35 -55 68 -55 72 0 18 480 233 717 321 221 83 327 99 416 64z m-5287 -344 c180 -115 416 -181 682 -191 l152 -6 1 -76 c2 -212 69 -227 92 -21 6 55 13 100 16 100 4 0 21 -9 39 -20 43 -27 89 -100 103 -168 21 -104 -3 -187 -98 -339 l-46 -75 27 -146 c34 -191 46 -295 46 -412 l0 -95 -98 195 c-98 196 -195 365 -235 408 -29 32 -101 67 -227 113 -160 57 -201 74 -332 139 -269 135 -385 255 -396 410 l-3 55 64 31 65 31 37 -99 c39 -101 69 -153 86 -143 23 15 2 201 -37 328 -7 24 -2 22 62 -19z m3978 -68 c73 -22 120 -59 192 -149 93 -117 136 -208 141 -299 4 -64 2 -77 -19 -107 -39 -58 -72 -76 -136 -76 -103 1 -201 74 -332 248 -36 47 -68 83 -72 79 -14 -14 24 -142 60 -201 44 -73 121 -153 168 -176 19 -9 34 -21 34 -26 0 -6 -11 -34 -25 -64 -41 -86 -125 -150 -231 -176 -68 -16 -74 -26 -23 -39 54 -15 146 1 205 35 58 34 118 103 139 161 10 27 22 53 26 57 4 5 26 -9 48 -31 l41 -40 -22 -39 c-19 -31 -23 -53 -23 -118 0 -69 4 -86 27 -127 36 -60 87 -101 162 -132 l61 -24 -74 -36 c-193 -93 -368 -86 -496 20 -42 34 -45 35 -45 15 0 -29 26 -79 59 -115 l26 -28 -75 -70 c-93 -86 -201 -176 -257 -213 l-43 -28 -20 24 c-37 43 -157 296 -178 376 -12 43 -26 112 -32 154 -23 168 35 319 143 376 28 14 30 14 57 -19 15 -18 30 -31 33 -28 3 3 -4 52 -14 110 -35 201 -22 323 51 475 46 97 104 157 186 197 99 47 180 57 258 34z m-4359 -143 c18 -106 62 -191 137 -263 112 -109 398 -264 668 -360 80 -29 152 -56 162 -61 29 -15 158 -237 284 -489 67 -135 134 -256 149 -270 35 -32 54 -20 79 51 16 45 19 83 20 234 0 184 -4 220 -50 426 l-27 115 37 49 c78 101 116 207 117 325 1 84 -13 148 -41 198 -15 25 -16 32 -5 32 41 0 382 -128 506 -190 169 -85 252 -152 519 -416 243 -240 356 -334 401 -334 36 0 27 -17 -26 -48 -103 -62 -183 -177 -193 -277 l-5 -50 115 120 c76 80 134 130 169 149 93 50 180 110 304 208 112 89 244 178 264 178 5 0 -3 -33 -17 -72 -23 -65 -26 -88 -26 -203 0 -89 5 -153 17 -203 77 -324 296 -615 525 -699 l53 -19 -128 -76 c-205 -122 -352 -182 -540 -218 -250 -48 -471 -4 -688 139 -50 32 -117 81 -150 108 l-60 49 -8 84 c-10 120 -37 220 -134 500 -91 263 -192 486 -284 624 -72 109 -237 281 -254 264 -2 -2 28 -57 66 -122 91 -154 217 -404 269 -536 82 -206 198 -572 216 -679 48 -296 -56 -439 -407 -555 -321 -106 -733 -149 -1229 -126 -610 27 -992 95 -1242 221 -121 61 -125 73 -108 342 7 120 8 221 3 268 l-9 77 48 6 c74 10 166 63 210 121 20 27 36 51 34 53 -2 2 -40 -16 -83 -38 -69 -36 -163 -67 -163 -53 0 3 26 31 58 63 64 64 113 154 131 238 25 118 6 253 -44 309 l-24 28 6 -85 c7 -106 -10 -209 -46 -287 -49 -102 -178 -212 -351 -298 -63 -32 -191 -85 -204 -85 -2 0 -7 12 -11 28 -10 40 -53 110 -98 159 -79 86 -258 169 -386 179 l-66 6 95 -54 c139 -78 233 -142 275 -189 35 -39 85 -130 85 -155 0 -7 -23 -3 -62 11 -90 32 -198 49 -316 49 -96 -1 -124 -6 -109 -20 3 -4 80 -26 169 -50 213 -58 289 -95 367 -180 93 -102 111 -179 67 -287 -77 -187 -258 -373 -463 -476 -131 -65 -256 -77 -399 -36 -236 68 -415 198 -549 400 -113 170 -157 305 -158 490 -1 184 43 310 170 480 299 401 1171 895 1948 1105 66 17 181 49 255 70 74 21 140 38 147 39 7 0 15 -16 18 -36z m5090 -112 c106 -48 155 -182 105 -286 -39 -81 -169 -179 -278 -211 -69 -21 -168 -20 -231 1 -28 9 -53 20 -56 24 -2 5 20 25 49 45 30 20 65 54 79 74 48 70 60 172 31 257 -19 58 -12 69 70 94 79 26 178 26 231 2z m107 -490 c39 -46 53 -111 38 -178 -17 -76 -97 -160 -185 -193 -180 -68 -382 -13 -413 113 -13 51 -2 112 26 139 17 17 24 18 58 9 111 -31 305 21 404 107 19 17 38 31 42 32 3 0 17 -13 30 -29z m-837 -766 c17 -129 -37 -302 -113 -365 -64 -53 -152 -34 -247 53 l-46 42 99 73 c54 40 141 114 193 165 52 50 97 91 101 89 4 -1 10 -27 13 -57z m-5016 -455 c-4 -262 -6 -299 -19 -294 -43 18 -135 44 -157 44 -22 0 -24 3 -19 23 4 12 10 52 13 88 8 91 -15 162 -77 244 -28 36 -50 69 -50 74 0 4 35 18 78 30 42 13 106 38 142 56 36 18 71 33 79 34 11 1 13 -49 10 -299z m-90 -397 c98 -47 125 -65 190 -131 85 -85 130 -165 156 -273 31 -133 9 -314 -54 -437 l-30 -57 5 65 c6 71 -5 125 -25 125 -8 0 -22 -37 -37 -94 -13 -51 -35 -113 -50 -138 -24 -42 -109 -133 -124 -133 -4 0 7 27 23 60 24 48 31 78 35 140 3 48 1 80 -5 80 -5 0 -32 -41 -59 -91 -27 -50 -67 -112 -89 -137 -88 -101 -227 -160 -349 -149 -175 16 -314 120 -351 263 -25 96 0 171 74 221 l33 22 69 -62 68 -62 -25 -30 c-38 -46 -57 -95 -47 -118 8 -18 14 -15 68 32 59 52 61 52 105 45 25 -5 72 -9 105 -9 54 0 60 2 63 22 3 18 -11 28 -91 67 -80 38 -105 56 -165 121 -65 70 -153 213 -152 249 0 6 45 37 99 70 167 99 312 236 380 358 31 56 23 57 180 -19z m3111 -68 c0 -46 -37 -86 -153 -170 -110 -79 -256 -152 -387 -194 -125 -40 -346 -96 -437 -111 -40 -7 -73 -15 -73 -19 0 -16 156 -10 272 9 351 60 547 135 724 277 23 18 43 33 46 33 3 0 9 -24 12 -52 14 -110 -35 -192 -175 -298 -156 -117 -364 -197 -609 -235 -342 -52 -829 -48 -1165 11 -220 38 -470 113 -618 184 l-67 32 0 70 c0 55 3 68 13 61 43 -34 293 -108 462 -138 114 -20 424 -32 450 -17 16 8 11 11 -30 17 -371 48 -657 118 -861 212 -52 23 -54 26 -84 106 -18 45 -44 105 -59 132 l-26 50 109 -37 c303 -103 636 -146 1197 -155 438 -7 689 11 969 72 155 33 427 140 461 181 19 23 29 16 29 -21z m86 -517 c52 -60 134 -168 161 -213 33 -53 118 -220 151 -295 11 -25 29 -67 41 -95 21 -46 51 -123 88 -220 88 -233 163 -544 189 -788 15 -139 16 -176 5 -290 -15 -156 -39 -265 -80 -365 -122 -294 -451 -536 -826 -608 -124 -24 -444 -29 -590 -10 -213 28 -400 94 -529 187 -46 33 -156 160 -156 180 0 3 14 24 31 45 98 122 306 478 342 586 4 10 19 20 34 24 77 19 184 91 291 196 145 142 219 284 238 456 3 34 4 62 1 62 -3 0 -26 -42 -50 -92 -52 -110 -135 -224 -239 -328 -83 -83 -206 -174 -193 -143 120 299 223 641 270 903 25 142 45 311 45 387 0 67 2 73 23 77 164 35 268 70 409 141 115 57 218 128 277 189 19 20 38 36 41 36 4 0 15 -10 26 -22z m-2680 -173 c30 -14 58 -25 62 -25 36 -1 30 -22 -54 -186 -47 -93 -109 -207 -137 -254 -55 -93 -68 -116 -117 -205 -19 -33 -46 -79 -62 -102 -39 -58 -101 -176 -88 -168 14 9 13 -8 -2 -23 -6 -6 -9 -14 -6 -17 3 -3 23 18 46 47 22 29 51 64 64 78 84 89 288 397 448 678 29 51 56 94 59 96 3 1 34 -6 67 -16 l61 -19 -27 -77 c-16 -42 -43 -117 -60 -167 -18 -49 -72 -198 -120 -330 -84 -228 -170 -511 -170 -559 0 -12 -5 -27 -11 -33 -6 -6 -9 -17 -7 -24 5 -14 58 75 58 97 0 7 5 16 12 20 8 5 9 0 6 -14 -17 -62 14 1 92 188 26 63 78 187 115 275 70 166 215 564 215 589 0 11 8 12 38 5 90 -21 360 -58 502 -69 176 -14 557 -9 724 9 59 7 109 11 111 9 5 -5 -13 -161 -31 -268 -65 -393 -197 -792 -402 -1221 -197 -413 -430 -725 -664 -891 -87 -63 -261 -149 -373 -187 -157 -52 -257 -66 -480 -65 -182 1 -213 4 -351 32 -83 17 -186 44 -230 61 -160 59 -320 159 -445 278 -122 117 -184 228 -219 396 -57 270 13 569 223 947 88 160 383 610 399 610 6 0 43 15 82 34 57 28 80 34 111 29 52 -6 140 26 203 77 27 20 62 45 78 53 70 37 146 142 192 264 15 40 28 73 30 73 2 0 28 -11 58 -25z"/>
<path d="M4604 12000 c-179 -37 -314 -218 -314 -418 0 -80 11 -79 75 9 33 45 77 97 99 115 122 104 262 109 456 15 133 -65 163 -52 115 46 -37 75 -127 163 -206 201 -71 34 -157 47 -225 32z"/>
<path d="M3038 10605 c-33 -19 -72 -80 -64 -102 6 -14 9 -13 30 6 26 24 81 37 119 27 30 -7 127 -82 127 -97 0 -6 -9 -24 -20 -40 -28 -39 -45 -123 -36 -183 6 -37 17 -58 48 -92 35 -38 101 -74 114 -62 2 3 -7 20 -21 38 -55 75 -68 160 -35 244 l11 30 20 -30 c11 -16 35 -51 52 -79 18 -27 41 -51 51 -53 17 -4 18 1 14 52 -10 117 -119 276 -226 328 -58 28 -147 34 -184 13z"/>
<path d="M4410 10442 c0 -4 39 -23 88 -42 48 -18 136 -53 197 -77 60 -24 115 -43 122 -43 15 0 32 31 26 48 -13 35 -194 99 -318 112 -110 12 -115 12 -115 2z"/>
<path d="M5321 11144 c-13 -9 -29 -32 -37 -50 -20 -48 -17 -150 5 -200 35 -76 108 -107 150 -65 68 68 42 274 -39 316 -37 19 -50 19 -79 -1z"/>
<path d="M4773 11092 c-30 -5 -71 -55 -79 -98 -23 -121 34 -255 113 -270 70 -13 116 52 115 167 0 127 -65 214 -149 201z"/>
<path d="M5495 8944 c-140 -30 -192 -36 -286 -32 -97 4 -99 3 -77 -14 39 -30 114 -49 189 -49 58 0 82 5 133 30 58 28 113 68 105 75 -2 2 -31 -3 -64 -10z"/>
</g>
</g>
  </g>
</svg>
