STARTFONT 2.1
FONT -FontForge-Helv Cyrillic-Normal-R-Normal--19-140-100-100-P-99-WinRoman-0
SIZE 14 100 100
FONTBOUNDINGBOX 18 22 0 -5
COMMENT "Generated by fontforge, http://fontforge.sourceforge.net"
COMMENT "Copyright (C) Steepler Ltd., 1990-92."
STARTPROPERTIES 34
FOUNDRY "FontForge"
FAMILY_NAME "Helv Cyrillic"
WEIGHT_NAME "Normal"
SLANT "R"
SETWIDTH_NAME "Normal"
ADD_STYLE_NAME ""
PIXEL_SIZE 19
POINT_SIZE 140
RESOLUTION_X 100
RESOLUTION_Y 100
SPACING "P"
AVERAGE_WIDTH 99
CHARSET_REGISTRY "WinRoman"
CHARSET_ENCODING "0"
FONTNAME_REGISTRY ""
CHARSET_COLLECTIONS "WinRoman"
FONT_NAME "HelvCyrillic"
FACE_NAME "Helv Cyrillic"
COPYRIGHT "Copyright (C) Steepler Ltd., 1990-92."
FONT_VERSION "001.000"
FONT_ASCENT 16
FONT_DESCENT 4
UNDERLINE_POSITION -2
UNDERLINE_THICKNESS 1
X_HEIGHT 9
CAP_HEIGHT 13
RAW_ASCENT 800
RAW_DESCENT 200
NORM_SPACE 5
RELATIVE_WEIGHT 40
RELATIVE_SETWIDTH 50
FIGURE_WIDTH 10
AVG_LOWERCASE_WIDTH 102
AVG_UPPERCASE_WIDTH 129
ENDPROPERTIES
CHARS 224
STARTCHAR space
ENCODING 32
SWIDTH 281 0
DWIDTH 5 0
BBX 1 1 4 -5
BITMAP
00
ENDCHAR
STARTCHAR exclam
ENCODING 33
SWIDTH 281 0
DWIDTH 5 0
BBX 2 14 2 0
BITMAP
C0
C0
C0
C0
C0
C0
C0
C0
C0
C0
00
00
C0
C0
ENDCHAR
STARTCHAR quotedbl
ENCODING 34
SWIDTH 344 0
DWIDTH 7 0
BBX 5 4 1 10
BITMAP
D8
D8
D8
D8
ENDCHAR
STARTCHAR numbersign
ENCODING 35
SWIDTH 562 0
DWIDTH 10 0
BBX 8 14 1 0
BITMAP
12
12
12
12
7F
24
24
24
24
FE
48
48
48
48
ENDCHAR
STARTCHAR dollar
ENCODING 36
SWIDTH 562 0
DWIDTH 10 0
BBX 9 18 0 -2
BITMAP
0800
0800
1C00
7F00
6B00
C800
E800
7800
3E00
0F00
0B80
0980
C980
6B00
7F00
1C00
0800
0800
ENDCHAR
STARTCHAR percent
ENCODING 37
SWIDTH 875 0
DWIDTH 15 0
BBX 13 14 1 0
BITMAP
7830
CC60
8460
84C0
CD80
7980
0300
0600
0CF0
0D98
1908
3108
3198
60F0
ENDCHAR
STARTCHAR ampersand
ENCODING 38
SWIDTH 688 0
DWIDTH 13 0
BBX 12 14 1 0
BITMAP
1800
3C00
6600
6600
6600
3C00
3860
7C60
EEC0
C7C0
C380
E3C0
7EE0
3C70
ENDCHAR
STARTCHAR quotesingle
ENCODING 39
SWIDTH 219 0
DWIDTH 4 0
BBX 2 4 1 10
BITMAP
C0
C0
C0
C0
ENDCHAR
STARTCHAR parenleft
ENCODING 40
SWIDTH 344 0
DWIDTH 6 0
BBX 4 18 1 -4
BITMAP
10
30
60
60
C0
C0
C0
C0
C0
C0
C0
C0
C0
C0
60
60
30
10
ENDCHAR
STARTCHAR parenright
ENCODING 41
SWIDTH 344 0
DWIDTH 6 0
BBX 4 18 1 -4
BITMAP
80
C0
60
60
30
30
30
30
30
30
30
30
30
30
60
60
C0
80
ENDCHAR
STARTCHAR asterisk
ENCODING 42
SWIDTH 375 0
DWIDTH 7 0
BBX 5 7 1 7
BITMAP
20
A8
F8
70
F8
A8
20
ENDCHAR
STARTCHAR plus
ENCODING 43
SWIDTH 594 0
DWIDTH 11 0
BBX 10 10 1 2
BITMAP
0C00
0C00
0C00
0C00
FFC0
FFC0
0C00
0C00
0C00
0C00
ENDCHAR
STARTCHAR comma
ENCODING 44
SWIDTH 281 0
DWIDTH 5 0
BBX 2 4 2 -2
BITMAP
C0
C0
40
80
ENDCHAR
STARTCHAR hyphen
ENCODING 45
SWIDTH 312 0
DWIDTH 6 0
BBX 6 2 0 4
BITMAP
FC
FC
ENDCHAR
STARTCHAR period
ENCODING 46
SWIDTH 281 0
DWIDTH 5 0
BBX 2 2 2 0
BITMAP
C0
C0
ENDCHAR
STARTCHAR slash
ENCODING 47
SWIDTH 281 0
DWIDTH 5 0
BBX 5 16 0 -2
BITMAP
18
18
18
18
30
30
30
30
60
60
60
60
C0
C0
C0
C0
ENDCHAR
STARTCHAR zero
ENCODING 48
SWIDTH 562 0
DWIDTH 10 0
BBX 9 14 1 0
BITMAP
1C00
7F00
6300
C180
C180
C180
C180
C180
C180
C180
C180
6300
7F00
1C00
ENDCHAR
STARTCHAR one
ENCODING 49
SWIDTH 500 0
DWIDTH 10 0
BBX 5 14 2 0
BITMAP
18
38
F8
F8
18
18
18
18
18
18
18
18
18
18
ENDCHAR
STARTCHAR two
ENCODING 50
SWIDTH 562 0
DWIDTH 10 0
BBX 9 14 1 0
BITMAP
3E00
7F00
E380
C180
0180
0380
0700
1E00
3800
7000
6000
C000
FF80
FF80
ENDCHAR
STARTCHAR three
ENCODING 51
SWIDTH 562 0
DWIDTH 10 0
BBX 9 14 1 0
BITMAP
1C00
7F00
6300
C180
C180
0300
1E00
1F00
0300
C180
C180
6300
7F00
1C00
ENDCHAR
STARTCHAR four
ENCODING 52
SWIDTH 562 0
DWIDTH 10 0
BBX 9 14 1 0
BITMAP
0E00
0E00
1E00
1E00
3600
3600
6600
6600
C600
FF80
FF80
0600
0600
0600
ENDCHAR
STARTCHAR five
ENCODING 53
SWIDTH 562 0
DWIDTH 10 0
BBX 9 14 1 0
BITMAP
7F00
7F00
6000
6000
C000
FC00
FF00
C300
0180
0180
C180
E300
7F00
3C00
ENDCHAR
STARTCHAR six
ENCODING 54
SWIDTH 562 0
DWIDTH 10 0
BBX 9 14 1 0
BITMAP
1C00
7F00
6300
C180
C000
DC00
FF00
E300
C180
C180
C180
6300
7F00
1C00
ENDCHAR
STARTCHAR seven
ENCODING 55
SWIDTH 562 0
DWIDTH 10 0
BBX 9 14 1 0
BITMAP
FF80
FF80
0180
0180
0300
0300
0600
0600
0C00
0C00
0C00
1800
1800
1800
ENDCHAR
STARTCHAR eight
ENCODING 56
SWIDTH 562 0
DWIDTH 10 0
BBX 9 14 1 0
BITMAP
1C00
7F00
6300
C180
C180
6300
3E00
7F00
6300
C180
C180
6300
7F00
1C00
ENDCHAR
STARTCHAR nine
ENCODING 57
SWIDTH 562 0
DWIDTH 10 0
BBX 9 14 1 0
BITMAP
1C00
7F00
6300
C180
C180
C180
6380
7F80
1D80
0180
C180
6300
7F00
1C00
ENDCHAR
STARTCHAR colon
ENCODING 58
SWIDTH 281 0
DWIDTH 5 0
BBX 2 10 2 0
BITMAP
C0
C0
00
00
00
00
00
00
C0
C0
ENDCHAR
STARTCHAR semicolon
ENCODING 59
SWIDTH 281 0
DWIDTH 5 0
BBX 2 12 2 -2
BITMAP
C0
C0
00
00
00
00
00
00
C0
C0
40
80
ENDCHAR
STARTCHAR less
ENCODING 60
SWIDTH 594 0
DWIDTH 11 0
BBX 10 9 1 2
BITMAP
00C0
03C0
0F00
3C00
F000
3C00
0F00
03C0
00C0
ENDCHAR
STARTCHAR equal
ENCODING 61
SWIDTH 594 0
DWIDTH 11 0
BBX 10 6 1 4
BITMAP
FFC0
FFC0
0000
0000
FFC0
FFC0
ENDCHAR
STARTCHAR greater
ENCODING 62
SWIDTH 594 0
DWIDTH 11 0
BBX 10 9 1 2
BITMAP
C000
F000
3C00
0F00
07C0
0F00
3C00
F000
C000
ENDCHAR
STARTCHAR question
ENCODING 63
SWIDTH 531 0
DWIDTH 10 0
BBX 9 14 1 0
BITMAP
1C00
7F00
6300
C180
C180
0300
0700
0E00
0C00
1800
1800
0000
1800
1800
ENDCHAR
STARTCHAR at
ENCODING 64
SWIDTH 938 0
DWIDTH 19 0
BBX 17 17 1 -3
BITMAP
07F000
1C1C00
300600
600300
400100
C1D980
833080
863080
863080
8C6180
8C6300
C7BE00
400000
600000
300400
1C1C00
07F000
ENDCHAR
STARTCHAR A
ENCODING 65
SWIDTH 688 0
DWIDTH 13 0
BBX 13 14 0 0
BITMAP
0700
0700
0D80
0D80
18C0
18C0
18C0
3060
3FE0
7FF0
6030
6030
C018
C018
ENDCHAR
STARTCHAR B
ENCODING 66
SWIDTH 656 0
DWIDTH 12 0
BBX 10 14 1 0
BITMAP
FF00
FF80
C1C0
C0C0
C0C0
C1C0
FF80
FF80
C1C0
C0C0
C0C0
C1C0
FF80
FF00
ENDCHAR
STARTCHAR C
ENCODING 67
SWIDTH 719 0
DWIDTH 13 0
BBX 12 14 1 0
BITMAP
0F80
3FE0
7070
6030
C000
C000
C000
C000
C000
C000
6030
7070
3FE0
0F80
ENDCHAR
STARTCHAR D
ENCODING 68
SWIDTH 719 0
DWIDTH 13 0
BBX 11 14 1 0
BITMAP
FE00
FF80
C1C0
C0C0
C060
C060
C060
C060
C060
C060
C0C0
C1C0
FF80
FE00
ENDCHAR
STARTCHAR E
ENCODING 69
SWIDTH 656 0
DWIDTH 13 0
BBX 11 14 1 0
BITMAP
FFE0
FFE0
C000
C000
C000
C000
FFC0
FFC0
C000
C000
C000
C000
FFE0
FFE0
ENDCHAR
STARTCHAR F
ENCODING 70
SWIDTH 625 0
DWIDTH 12 0
BBX 11 14 1 0
BITMAP
FFE0
FFE0
C000
C000
C000
C000
FFC0
FFC0
C000
C000
C000
C000
C000
C000
ENDCHAR
STARTCHAR G
ENCODING 71
SWIDTH 781 0
DWIDTH 14 0
BBX 12 14 1 0
BITMAP
0F80
3FE0
7070
6030
C000
C000
C000
C0F0
C0F0
C030
6030
7070
3FF0
0FB0
ENDCHAR
STARTCHAR H
ENCODING 72
SWIDTH 719 0
DWIDTH 14 0
BBX 12 14 1 0
BITMAP
C030
C030
C030
C030
C030
C030
FFF0
FFF0
C030
C030
C030
C030
C030
C030
ENDCHAR
STARTCHAR I
ENCODING 73
SWIDTH 250 0
DWIDTH 4 0
BBX 2 14 1 0
BITMAP
C0
C0
C0
C0
C0
C0
C0
C0
C0
C0
C0
C0
C0
C0
ENDCHAR
STARTCHAR J
ENCODING 74
SWIDTH 500 0
DWIDTH 9 0
BBX 8 14 0 0
BITMAP
03
03
03
03
03
03
03
03
03
03
C3
E7
7E
18
ENDCHAR
STARTCHAR K
ENCODING 75
SWIDTH 656 0
DWIDTH 12 0
BBX 11 14 1 0
BITMAP
C1C0
C380
C700
CE00
DC00
F800
F000
F800
DC00
CE00
C700
C380
C1C0
C0E0
ENDCHAR
STARTCHAR L
ENCODING 76
SWIDTH 562 0
DWIDTH 10 0
BBX 9 14 1 0
BITMAP
C000
C000
C000
C000
C000
C000
C000
C000
C000
C000
C000
C000
FF80
FF80
ENDCHAR
STARTCHAR M
ENCODING 77
SWIDTH 812 0
DWIDTH 16 0
BBX 14 14 1 0
BITMAP
C00C
C00C
E01C
E01C
F03C
F03C
D86C
D86C
CCCC
CCCC
C78C
C78C
C30C
C30C
ENDCHAR
STARTCHAR N
ENCODING 78
SWIDTH 750 0
DWIDTH 14 0
BBX 12 14 1 0
BITMAP
E030
F030
F030
F830
DC30
CC30
CE30
C730
C330
C3B0
C1F0
C0F0
C0F0
C070
ENDCHAR
STARTCHAR O
ENCODING 79
SWIDTH 781 0
DWIDTH 15 0
BBX 13 14 1 0
BITMAP
0F80
3FE0
7070
6030
C018
C018
C018
C018
C018
C018
6030
7070
3FE0
0F80
ENDCHAR
STARTCHAR P
ENCODING 80
SWIDTH 656 0
DWIDTH 12 0
BBX 11 14 1 0
BITMAP
FF00
FFC0
C0C0
C060
C060
C060
C0C0
FFC0
FF00
C000
C000
C000
C000
C000
ENDCHAR
STARTCHAR Q
ENCODING 81
SWIDTH 781 0
DWIDTH 15 0
BBX 13 14 1 0
BITMAP
0F80
3FE0
7070
6030
C018
C018
C018
C018
C098
C1D8
60F0
7070
3FF8
0F90
ENDCHAR
STARTCHAR R
ENCODING 82
SWIDTH 688 0
DWIDTH 13 0
BBX 12 14 1 0
BITMAP
FF00
FFC0
C0C0
C060
C060
C060
C0C0
FFC0
FFC0
C060
C060
C060
C060
C030
ENDCHAR
STARTCHAR S
ENCODING 83
SWIDTH 656 0
DWIDTH 12 0
BBX 10 14 1 0
BITMAP
1E00
7F80
E1C0
C0C0
E000
7800
3F00
0F80
01C0
00C0
C0C0
E1C0
7F80
1E00
ENDCHAR
STARTCHAR T
ENCODING 84
SWIDTH 625 0
DWIDTH 12 0
BBX 12 14 0 0
BITMAP
FFF0
FFF0
0600
0600
0600
0600
0600
0600
0600
0600
0600
0600
0600
0600
ENDCHAR
STARTCHAR U
ENCODING 85
SWIDTH 719 0
DWIDTH 13 0
BBX 11 14 1 0
BITMAP
C060
C060
C060
C060
C060
C060
C060
C060
C060
C060
60C0
71C0
3F80
0E00
ENDCHAR
STARTCHAR V
ENCODING 86
SWIDTH 688 0
DWIDTH 13 0
BBX 13 14 0 0
BITMAP
C018
C018
6030
6030
3060
3060
3060
18C0
18C0
0D80
0D80
0F80
0700
0700
ENDCHAR
STARTCHAR W
ENCODING 87
SWIDTH 969 0
DWIDTH 18 0
BBX 18 14 0 0
BITMAP
C0C0C0
C0C0C0
C0C0C0
61E180
61E180
61E180
333300
333300
333300
1E1E00
1E1E00
1E1E00
0C0C00
0C0C00
ENDCHAR
STARTCHAR X
ENCODING 88
SWIDTH 656 0
DWIDTH 14 0
BBX 14 14 0 0
BITMAP
C00C
E01C
7038
3870
1CE0
0FC0
0780
0780
0FC0
1CE0
3870
7038
E01C
C00C
ENDCHAR
STARTCHAR Y
ENCODING 89
SWIDTH 688 0
DWIDTH 12 0
BBX 12 14 0 0
BITMAP
C030
E070
6060
30C0
39C0
1980
0F00
0F00
0600
0600
0600
0600
0600
0600
ENDCHAR
STARTCHAR Z
ENCODING 90
SWIDTH 625 0
DWIDTH 12 0
BBX 12 14 0 0
BITMAP
7FF0
7FF0
0070
00E0
01C0
0380
0700
0E00
1C00
3800
7000
E000
FFF0
FFF0
ENDCHAR
STARTCHAR bracketleft
ENCODING 91
SWIDTH 281 0
DWIDTH 5 0
BBX 4 19 1 -4
BITMAP
F0
F0
C0
C0
C0
C0
C0
C0
C0
C0
C0
C0
C0
C0
C0
C0
C0
F0
F0
ENDCHAR
STARTCHAR backslash
ENCODING 92
SWIDTH 281 0
DWIDTH 5 0
BBX 5 16 0 -2
BITMAP
C0
C0
C0
C0
60
60
60
60
30
30
30
30
18
18
18
18
ENDCHAR
STARTCHAR bracketright
ENCODING 93
SWIDTH 281 0
DWIDTH 5 0
BBX 4 19 0 -4
BITMAP
F0
F0
30
30
30
30
30
30
30
30
30
30
30
30
30
30
30
F0
F0
ENDCHAR
STARTCHAR asciicircum
ENCODING 94
SWIDTH 469 0
DWIDTH 9 0
BBX 7 3 1 11
BITMAP
38
6C
C6
ENDCHAR
STARTCHAR underscore
ENCODING 95
SWIDTH 562 0
DWIDTH 10 0
BBX 10 2 0 -3
BITMAP
FFC0
FFC0
ENDCHAR
STARTCHAR grave
ENCODING 96
SWIDTH 344 0
DWIDTH 6 0
BBX 4 3 1 11
BITMAP
E0
30
10
ENDCHAR
STARTCHAR a
ENCODING 97
SWIDTH 562 0
DWIDTH 10 0
BBX 9 10 1 0
BITMAP
3C00
7E00
E700
0300
1F00
7300
C300
C700
FF80
7980
ENDCHAR
STARTCHAR b
ENCODING 98
SWIDTH 562 0
DWIDTH 11 0
BBX 9 14 1 0
BITMAP
C000
C000
C000
C000
DC00
FF00
E300
C180
C180
C180
C180
E300
FF00
DC00
ENDCHAR
STARTCHAR c
ENCODING 99
SWIDTH 500 0
DWIDTH 10 0
BBX 9 10 1 0
BITMAP
1C00
7F00
6300
C180
C000
C000
C180
6300
7F00
1C00
ENDCHAR
STARTCHAR d
ENCODING 100
SWIDTH 562 0
DWIDTH 11 0
BBX 9 14 1 0
BITMAP
0180
0180
0180
0180
1D80
7F80
6380
C180
C180
C180
C180
6380
7F80
1D80
ENDCHAR
STARTCHAR e
ENCODING 101
SWIDTH 531 0
DWIDTH 11 0
BBX 9 10 1 0
BITMAP
1C00
7F00
6300
C180
FF80
FF80
C000
6180
7F00
1C00
ENDCHAR
STARTCHAR f
ENCODING 102
SWIDTH 281 0
DWIDTH 4 0
BBX 4 14 0 0
BITMAP
30
70
60
60
F0
F0
60
60
60
60
60
60
60
60
ENDCHAR
STARTCHAR g
ENCODING 103
SWIDTH 562 0
DWIDTH 11 0
BBX 9 14 1 -4
BITMAP
1D80
7F80
6380
C180
C180
C180
C180
6380
7F80
1D80
C180
6300
7F00
1C00
ENDCHAR
STARTCHAR h
ENCODING 104
SWIDTH 562 0
DWIDTH 11 0
BBX 9 14 1 0
BITMAP
C000
C000
C000
C000
DC00
FF00
E300
C180
C180
C180
C180
C180
C180
C180
ENDCHAR
STARTCHAR i
ENCODING 105
SWIDTH 219 0
DWIDTH 4 0
BBX 2 14 1 0
BITMAP
C0
C0
00
00
C0
C0
C0
C0
C0
C0
C0
C0
C0
C0
ENDCHAR
STARTCHAR j
ENCODING 106
SWIDTH 219 0
DWIDTH 4 0
BBX 3 18 0 -4
BITMAP
60
60
00
00
60
60
60
60
60
60
60
60
60
60
60
60
E0
C0
ENDCHAR
STARTCHAR k
ENCODING 107
SWIDTH 500 0
DWIDTH 9 0
BBX 8 14 1 0
BITMAP
C0
C0
C0
C0
C3
C6
CC
D8
F0
F8
CC
C6
C3
C1
ENDCHAR
STARTCHAR l
ENCODING 108
SWIDTH 219 0
DWIDTH 4 0
BBX 2 14 1 0
BITMAP
C0
C0
C0
C0
C0
C0
C0
C0
C0
C0
C0
C0
C0
C0
ENDCHAR
STARTCHAR m
ENCODING 109
SWIDTH 844 0
DWIDTH 16 0
BBX 14 10 1 0
BITMAP
DC70
FEF8
E79C
C30C
C30C
C30C
C30C
C30C
C30C
C30C
ENDCHAR
STARTCHAR n
ENCODING 110
SWIDTH 562 0
DWIDTH 11 0
BBX 9 10 1 0
BITMAP
DC00
FF00
E300
C180
C180
C180
C180
C180
C180
C180
ENDCHAR
STARTCHAR o
ENCODING 111
SWIDTH 562 0
DWIDTH 11 0
BBX 9 10 1 0
BITMAP
1C00
7F00
6300
C180
C180
C180
C180
6300
7F00
1C00
ENDCHAR
STARTCHAR p
ENCODING 112
SWIDTH 562 0
DWIDTH 11 0
BBX 9 14 1 -4
BITMAP
DC00
FF00
E300
C180
C180
C180
C180
E300
FF00
DC00
C000
C000
C000
C000
ENDCHAR
STARTCHAR q
ENCODING 113
SWIDTH 562 0
DWIDTH 11 0
BBX 9 14 1 -4
BITMAP
1D80
7F80
6380
C180
C180
C180
C180
6380
7F80
1D80
0180
0180
0180
0180
ENDCHAR
STARTCHAR r
ENCODING 114
SWIDTH 344 0
DWIDTH 6 0
BBX 5 10 1 0
BITMAP
D8
F8
E0
C0
C0
C0
C0
C0
C0
C0
ENDCHAR
STARTCHAR s
ENCODING 115
SWIDTH 500 0
DWIDTH 9 0
BBX 7 10 1 0
BITMAP
38
7C
C6
E0
78
1C
06
C6
7C
38
ENDCHAR
STARTCHAR t
ENCODING 116
SWIDTH 281 0
DWIDTH 4 0
BBX 4 13 0 0
BITMAP
60
60
60
F0
F0
60
60
60
60
60
60
70
30
ENDCHAR
STARTCHAR u
ENCODING 117
SWIDTH 562 0
DWIDTH 11 0
BBX 9 10 1 0
BITMAP
C180
C180
C180
C180
C180
C180
C180
6380
7F80
1D80
ENDCHAR
STARTCHAR v
ENCODING 118
SWIDTH 469 0
DWIDTH 9 0
BBX 9 10 0 0
BITMAP
C180
C180
C180
6300
6300
3600
3600
3E00
1C00
1C00
ENDCHAR
STARTCHAR w
ENCODING 119
SWIDTH 719 0
DWIDTH 14 0
BBX 14 10 0 0
BITMAP
C30C
C30C
6318
6798
6798
3CF0
3CF0
1CE0
1860
1860
ENDCHAR
STARTCHAR x
ENCODING 120
SWIDTH 469 0
DWIDTH 10 0
BBX 10 10 0 0
BITMAP
C0C0
E1C0
7380
3F00
1E00
1E00
3F00
7380
E1C0
C0C0
ENDCHAR
STARTCHAR y
ENCODING 121
SWIDTH 469 0
DWIDTH 9 0
BBX 9 14 0 -4
BITMAP
C180
C180
C180
6300
6300
3600
3600
3E00
1C00
1C00
1800
1800
7800
7000
ENDCHAR
STARTCHAR z
ENCODING 122
SWIDTH 500 0
DWIDTH 9 0
BBX 9 10 0 0
BITMAP
FF80
FF80
0300
0600
0C00
1800
3000
6000
FF80
FF80
ENDCHAR
STARTCHAR braceleft
ENCODING 123
SWIDTH 344 0
DWIDTH 6 0
BBX 5 18 1 -4
BITMAP
18
30
30
30
30
30
30
60
C0
C0
60
30
30
30
30
30
30
18
ENDCHAR
STARTCHAR bar
ENCODING 124
SWIDTH 219 0
DWIDTH 4 0
BBX 2 19 1 -5
BITMAP
C0
C0
C0
C0
C0
C0
C0
C0
C0
C0
C0
C0
C0
C0
C0
C0
C0
C0
C0
ENDCHAR
STARTCHAR braceright
ENCODING 125
SWIDTH 344 0
DWIDTH 6 0
BBX 5 18 0 -4
BITMAP
C0
60
60
60
60
60
60
30
18
18
30
60
60
60
60
60
60
C0
ENDCHAR
STARTCHAR asciitilde
ENCODING 126
SWIDTH 594 0
DWIDTH 11 0
BBX 9 3 1 11
BITMAP
7180
DD80
C700
ENDCHAR
STARTCHAR uni007F
ENCODING 127
SWIDTH 344 0
DWIDTH 6 0
BBX 4 14 1 0
BITMAP
F0
F0
F0
F0
F0
F0
F0
F0
F0
F0
F0
F0
F0
F0
ENDCHAR
STARTCHAR Euro
ENCODING 128
SWIDTH 344 0
DWIDTH 6 0
BBX 4 14 1 0
BITMAP
F0
F0
F0
F0
F0
F0
F0
F0
F0
F0
F0
F0
F0
F0
ENDCHAR
STARTCHAR NameMe.129
ENCODING 129
SWIDTH 344 0
DWIDTH 6 0
BBX 4 14 1 0
BITMAP
F0
F0
F0
F0
F0
F0
F0
F0
F0
F0
F0
F0
F0
F0
ENDCHAR
STARTCHAR quotesinglbase
ENCODING 130
SWIDTH 344 0
DWIDTH 6 0
BBX 4 14 1 0
BITMAP
F0
F0
F0
F0
F0
F0
F0
F0
F0
F0
F0
F0
F0
F0
ENDCHAR
STARTCHAR florin
ENCODING 131
SWIDTH 344 0
DWIDTH 6 0
BBX 4 14 1 0
BITMAP
F0
F0
F0
F0
F0
F0
F0
F0
F0
F0
F0
F0
F0
F0
ENDCHAR
STARTCHAR quotedblbase
ENCODING 132
SWIDTH 344 0
DWIDTH 6 0
BBX 4 14 1 0
BITMAP
F0
F0
F0
F0
F0
F0
F0
F0
F0
F0
F0
F0
F0
F0
ENDCHAR
STARTCHAR ellipsis
ENCODING 133
SWIDTH 344 0
DWIDTH 6 0
BBX 4 14 1 0
BITMAP
F0
F0
F0
F0
F0
F0
F0
F0
F0
F0
F0
F0
F0
F0
ENDCHAR
STARTCHAR dagger
ENCODING 134
SWIDTH 344 0
DWIDTH 6 0
BBX 4 14 1 0
BITMAP
F0
F0
F0
F0
F0
F0
F0
F0
F0
F0
F0
F0
F0
F0
ENDCHAR
STARTCHAR daggerdbl
ENCODING 135
SWIDTH 344 0
DWIDTH 6 0
BBX 4 14 1 0
BITMAP
F0
F0
F0
F0
F0
F0
F0
F0
F0
F0
F0
F0
F0
F0
ENDCHAR
STARTCHAR circumflex
ENCODING 136
SWIDTH 344 0
DWIDTH 6 0
BBX 4 14 1 0
BITMAP
F0
F0
F0
F0
F0
F0
F0
F0
F0
F0
F0
F0
F0
F0
ENDCHAR
STARTCHAR perthousand
ENCODING 137
SWIDTH 344 0
DWIDTH 6 0
BBX 4 14 1 0
BITMAP
F0
F0
F0
F0
F0
F0
F0
F0
F0
F0
F0
F0
F0
F0
ENDCHAR
STARTCHAR Scaron
ENCODING 138
SWIDTH 344 0
DWIDTH 6 0
BBX 4 14 1 0
BITMAP
F0
F0
F0
F0
F0
F0
F0
F0
F0
F0
F0
F0
F0
F0
ENDCHAR
STARTCHAR guilsinglleft
ENCODING 139
SWIDTH 344 0
DWIDTH 6 0
BBX 4 14 1 0
BITMAP
F0
F0
F0
F0
F0
F0
F0
F0
F0
F0
F0
F0
F0
F0
ENDCHAR
STARTCHAR OE
ENCODING 140
SWIDTH 344 0
DWIDTH 6 0
BBX 4 14 1 0
BITMAP
F0
F0
F0
F0
F0
F0
F0
F0
F0
F0
F0
F0
F0
F0
ENDCHAR
STARTCHAR NameMe.141
ENCODING 141
SWIDTH 344 0
DWIDTH 6 0
BBX 4 14 1 0
BITMAP
F0
F0
F0
F0
F0
F0
F0
F0
F0
F0
F0
F0
F0
F0
ENDCHAR
STARTCHAR Zcaron
ENCODING 142
SWIDTH 344 0
DWIDTH 6 0
BBX 4 14 1 0
BITMAP
F0
F0
F0
F0
F0
F0
F0
F0
F0
F0
F0
F0
F0
F0
ENDCHAR
STARTCHAR NameMe.143
ENCODING 143
SWIDTH 344 0
DWIDTH 6 0
BBX 4 14 1 0
BITMAP
F0
F0
F0
F0
F0
F0
F0
F0
F0
F0
F0
F0
F0
F0
ENDCHAR
STARTCHAR NameMe.144
ENCODING 144
SWIDTH 344 0
DWIDTH 6 0
BBX 4 14 1 0
BITMAP
F0
F0
F0
F0
F0
F0
F0
F0
F0
F0
F0
F0
F0
F0
ENDCHAR
STARTCHAR quoteleft
ENCODING 145
SWIDTH 281 0
DWIDTH 5 0
BBX 2 4 2 10
BITMAP
40
80
C0
C0
ENDCHAR
STARTCHAR quoteright
ENCODING 146
SWIDTH 281 0
DWIDTH 5 0
BBX 2 4 1 10
BITMAP
C0
C0
40
80
ENDCHAR
STARTCHAR quotedblleft
ENCODING 147
SWIDTH 344 0
DWIDTH 6 0
BBX 4 14 1 0
BITMAP
F0
F0
F0
F0
F0
F0
F0
F0
F0
F0
F0
F0
F0
F0
ENDCHAR
STARTCHAR quotedblright
ENCODING 148
SWIDTH 344 0
DWIDTH 6 0
BBX 4 14 1 0
BITMAP
F0
F0
F0
F0
F0
F0
F0
F0
F0
F0
F0
F0
F0
F0
ENDCHAR
STARTCHAR bullet
ENCODING 149
SWIDTH 344 0
DWIDTH 6 0
BBX 4 14 1 0
BITMAP
F0
F0
F0
F0
F0
F0
F0
F0
F0
F0
F0
F0
F0
F0
ENDCHAR
STARTCHAR endash
ENCODING 150
SWIDTH 344 0
DWIDTH 6 0
BBX 4 14 1 0
BITMAP
F0
F0
F0
F0
F0
F0
F0
F0
F0
F0
F0
F0
F0
F0
ENDCHAR
STARTCHAR emdash
ENCODING 151
SWIDTH 344 0
DWIDTH 6 0
BBX 4 14 1 0
BITMAP
F0
F0
F0
F0
F0
F0
F0
F0
F0
F0
F0
F0
F0
F0
ENDCHAR
STARTCHAR tilde
ENCODING 152
SWIDTH 344 0
DWIDTH 6 0
BBX 4 14 1 0
BITMAP
F0
F0
F0
F0
F0
F0
F0
F0
F0
F0
F0
F0
F0
F0
ENDCHAR
STARTCHAR trademark
ENCODING 153
SWIDTH 344 0
DWIDTH 6 0
BBX 4 14 1 0
BITMAP
F0
F0
F0
F0
F0
F0
F0
F0
F0
F0
F0
F0
F0
F0
ENDCHAR
STARTCHAR scaron
ENCODING 154
SWIDTH 344 0
DWIDTH 6 0
BBX 4 14 1 0
BITMAP
F0
F0
F0
F0
F0
F0
F0
F0
F0
F0
F0
F0
F0
F0
ENDCHAR
STARTCHAR guilsinglright
ENCODING 155
SWIDTH 344 0
DWIDTH 6 0
BBX 4 14 1 0
BITMAP
F0
F0
F0
F0
F0
F0
F0
F0
F0
F0
F0
F0
F0
F0
ENDCHAR
STARTCHAR oe
ENCODING 156
SWIDTH 344 0
DWIDTH 6 0
BBX 4 14 1 0
BITMAP
F0
F0
F0
F0
F0
F0
F0
F0
F0
F0
F0
F0
F0
F0
ENDCHAR
STARTCHAR NameMe.157
ENCODING 157
SWIDTH 344 0
DWIDTH 6 0
BBX 4 14 1 0
BITMAP
F0
F0
F0
F0
F0
F0
F0
F0
F0
F0
F0
F0
F0
F0
ENDCHAR
STARTCHAR zcaron
ENCODING 158
SWIDTH 344 0
DWIDTH 6 0
BBX 4 14 1 0
BITMAP
F0
F0
F0
F0
F0
F0
F0
F0
F0
F0
F0
F0
F0
F0
ENDCHAR
STARTCHAR Ydieresis
ENCODING 159
SWIDTH 344 0
DWIDTH 6 0
BBX 4 14 1 0
BITMAP
F0
F0
F0
F0
F0
F0
F0
F0
F0
F0
F0
F0
F0
F0
ENDCHAR
STARTCHAR uni00A0
ENCODING 160
SWIDTH 281 0
DWIDTH 5 0
BBX 1 1 4 -5
BITMAP
00
ENDCHAR
STARTCHAR exclamdown
ENCODING 161
SWIDTH 281 0
DWIDTH 5 0
BBX 2 14 1 0
BITMAP
C0
C0
00
00
C0
C0
C0
C0
C0
C0
C0
C0
C0
C0
ENDCHAR
STARTCHAR cent
ENCODING 162
SWIDTH 562 0
DWIDTH 10 0
BBX 8 14 1 -2
BITMAP
02
02
1E
7F
67
C4
CC
C8
C8
7B
7F
3C
20
20
ENDCHAR
STARTCHAR sterling
ENCODING 163
SWIDTH 562 0
DWIDTH 10 0
BBX 9 14 1 0
BITMAP
1E00
3F00
6180
6000
6000
6000
FC00
6000
3000
3000
3000
6180
FF80
EF00
ENDCHAR
STARTCHAR currency
ENCODING 164
SWIDTH 562 0
DWIDTH 10 0
BBX 9 9 1 4
BITMAP
C180
FF80
7F00
6300
6300
6300
7F00
FF80
C180
ENDCHAR
STARTCHAR yen
ENCODING 165
SWIDTH 562 0
DWIDTH 10 0
BBX 10 14 0 0
BITMAP
C0C0
C0C0
6180
6180
3300
7F80
7F80
1E00
0C00
7F80
7F80
0C00
0C00
0C00
ENDCHAR
STARTCHAR brokenbar
ENCODING 166
SWIDTH 219 0
DWIDTH 4 0
BBX 2 18 1 -4
BITMAP
C0
C0
C0
C0
C0
C0
C0
C0
00
00
C0
C0
C0
C0
C0
C0
C0
C0
ENDCHAR
STARTCHAR section
ENCODING 167
SWIDTH 562 0
DWIDTH 10 0
BBX 8 15 1 -1
BITMAP
3C
7E
66
60
F0
D8
CC
66
33
1B
0F
06
66
7E
3C
ENDCHAR
STARTCHAR dieresis
ENCODING 168
SWIDTH 344 0
DWIDTH 6 0
BBX 6 2 0 12
BITMAP
CC
CC
ENDCHAR
STARTCHAR copyright
ENCODING 169
SWIDTH 750 0
DWIDTH 14 0
BBX 13 14 0 0
BITMAP
0F80
38E0
6030
4790
CCD8
9808
9808
9808
9808
CCD8
4790
6030
38E0
0F80
ENDCHAR
STARTCHAR ordfeminine
ENCODING 170
SWIDTH 375 0
DWIDTH 7 0
BBX 6 8 1 6
BITMAP
78
CC
3C
6C
CC
7C
00
FC
ENDCHAR
STARTCHAR guillemotleft
ENCODING 171
SWIDTH 562 0
DWIDTH 10 0
BBX 7 5 1 2
BITMAP
22
66
CC
66
22
ENDCHAR
STARTCHAR logicalnot
ENCODING 172
SWIDTH 594 0
DWIDTH 11 0
BBX 9 5 1 3
BITMAP
FF80
FF80
0180
0180
0180
ENDCHAR
STARTCHAR uni00AD
ENCODING 173
SWIDTH 312 0
DWIDTH 6 0
BBX 6 2 0 4
BITMAP
FC
FC
ENDCHAR
STARTCHAR registered
ENCODING 174
SWIDTH 750 0
DWIDTH 14 0
BBX 13 14 1 0
BITMAP
0F80
38E0
6030
5F90
D8D8
98C8
98C8
9F88
98C8
D8D8
58D0
6030
38E0
0F80
ENDCHAR
STARTCHAR macron
ENCODING 175
SWIDTH 500 0
DWIDTH 10 0
BBX 10 2 0 15
BITMAP
FFC0
FFC0
ENDCHAR
STARTCHAR degree
ENCODING 176
SWIDTH 344 0
DWIDTH 6 0
BBX 5 5 1 9
BITMAP
70
D8
88
D8
70
ENDCHAR
STARTCHAR plusminus
ENCODING 177
SWIDTH 594 0
DWIDTH 11 0
BBX 8 11 2 0
BITMAP
18
18
18
FF
FF
18
18
18
00
FF
FF
ENDCHAR
STARTCHAR uni00B2
ENCODING 178
SWIDTH 281 0
DWIDTH 5 0
BBX 5 7 0 7
BITMAP
70
D8
98
30
60
C0
F8
ENDCHAR
STARTCHAR uni00B3
ENCODING 179
SWIDTH 281 0
DWIDTH 5 0
BBX 5 7 0 7
BITMAP
70
D8
18
70
18
D8
70
ENDCHAR
STARTCHAR acute
ENCODING 180
SWIDTH 344 0
DWIDTH 6 0
BBX 4 3 1 11
BITMAP
70
C0
80
ENDCHAR
STARTCHAR mu
ENCODING 181
SWIDTH 562 0
DWIDTH 9 0
BBX 8 14 1 -4
BITMAP
C3
C3
C3
C3
C3
C3
C3
E7
FF
DB
C0
C0
C0
C0
ENDCHAR
STARTCHAR paragraph
ENCODING 182
SWIDTH 531 0
DWIDTH 10 0
BBX 8 16 1 -2
BITMAP
1F
7A
7A
FA
FA
FA
7A
7A
1A
0A
0A
0A
0A
0A
0A
0A
ENDCHAR
STARTCHAR periodcentered
ENCODING 183
SWIDTH 281 0
DWIDTH 5 0
BBX 2 2 2 7
BITMAP
C0
C0
ENDCHAR
STARTCHAR cedilla
ENCODING 184
SWIDTH 344 0
DWIDTH 6 0
BBX 5 4 0 -4
BITMAP
20
38
18
F0
ENDCHAR
STARTCHAR uni00B9
ENCODING 185
SWIDTH 281 0
DWIDTH 5 0
BBX 4 7 0 7
BITMAP
30
70
F0
30
30
30
30
ENDCHAR
STARTCHAR ordmasculine
ENCODING 186
SWIDTH 375 0
DWIDTH 7 0
BBX 6 8 1 6
BITMAP
78
CC
CC
CC
CC
78
00
FC
ENDCHAR
STARTCHAR guillemotright
ENCODING 187
SWIDTH 562 0
DWIDTH 10 0
BBX 7 5 2 2
BITMAP
88
CC
66
CC
88
ENDCHAR
STARTCHAR onequarter
ENCODING 188
SWIDTH 719 0
DWIDTH 15 0
BBX 12 14 1 0
BITMAP
3030
7060
F060
30C0
3180
3180
3300
0630
0C70
0CB0
1930
31F0
3030
6030
ENDCHAR
STARTCHAR onehalf
ENCODING 189
SWIDTH 719 0
DWIDTH 15 0
BBX 12 14 1 0
BITMAP
3030
7060
F060
30C0
3180
3180
3300
06E0
0DB0
0D30
1860
30C0
3180
61F0
ENDCHAR
STARTCHAR threequarters
ENCODING 190
SWIDTH 719 0
DWIDTH 15 0
BBX 12 14 1 0
BITMAP
7030
D860
1860
70C0
1980
D980
7300
0630
0C70
0CB0
1930
31F0
3030
6030
ENDCHAR
STARTCHAR questiondown
ENCODING 191
SWIDTH 531 0
DWIDTH 10 0
BBX 9 14 0 0
BITMAP
0C00
0C00
0000
0C00
0C00
1800
3800
7000
6000
C180
C180
6300
7F00
1C00
ENDCHAR
STARTCHAR Agrave
ENCODING 192
SWIDTH 688 0
DWIDTH 13 0
BBX 13 14 0 0
BITMAP
0700
0700
0D80
0D80
18C0
18C0
18C0
3060
3FE0
7FF0
6030
6030
C018
C018
ENDCHAR
STARTCHAR Aacute
ENCODING 193
SWIDTH 656 0
DWIDTH 12 0
BBX 10 14 1 0
BITMAP
FF80
FF80
C000
C000
C000
C000
FF80
FF80
C1C0
C0C0
C0C0
C1C0
FF80
FF00
ENDCHAR
STARTCHAR Acircumflex
ENCODING 194
SWIDTH 656 0
DWIDTH 12 0
BBX 10 14 1 0
BITMAP
FF00
FF80
C1C0
C0C0
C0C0
C1C0
FF80
FF80
C1C0
C0C0
C0C0
C1C0
FF80
FF00
ENDCHAR
STARTCHAR Atilde
ENCODING 195
SWIDTH 656 0
DWIDTH 13 0
BBX 11 14 1 0
BITMAP
FFE0
FFE0
C000
C000
C000
C000
C000
C000
C000
C000
C000
C000
C000
C000
ENDCHAR
STARTCHAR Adieresis
ENCODING 196
SWIDTH 719 0
DWIDTH 15 0
BBX 13 16 1 -2
BITMAP
1FE0
1FE0
1860
1860
1860
1860
1860
1860
1860
1860
1860
3060
FFF8
FFF8
C018
C018
ENDCHAR
STARTCHAR Aring
ENCODING 197
SWIDTH 656 0
DWIDTH 13 0
BBX 11 14 1 0
BITMAP
FFE0
FFE0
C000
C000
C000
C000
FFC0
FFC0
C000
C000
C000
C000
FFE0
FFE0
ENDCHAR
STARTCHAR AE
ENCODING 198
SWIDTH 969 0
DWIDTH 18 0
BBX 18 14 0 0
BITMAP
60C180
70C380
38C700
1CCE00
0EDC00
07F800
03F000
07F800
0EDC00
1CCE00
38C700
70C380
E0C1C0
C0C0C0
ENDCHAR
STARTCHAR Ccedilla
ENCODING 199
SWIDTH 594 0
DWIDTH 11 0
BBX 9 14 1 0
BITMAP
3E00
7F00
C180
0180
0180
0300
0E00
0E00
0300
0180
0180
C180
7F00
3E00
ENDCHAR
STARTCHAR Egrave
ENCODING 200
SWIDTH 750 0
DWIDTH 14 0
BBX 12 14 1 0
BITMAP
C030
C030
C070
C0F0
C1F0
C3B0
C730
CE30
DC30
F830
F030
E030
C030
C030
ENDCHAR
STARTCHAR Eacute
ENCODING 201
SWIDTH 750 0
DWIDTH 14 0
BBX 12 17 1 0
BITMAP
30C0
1F80
0F00
C030
C030
C070
C0F0
C1F0
C3B0
C730
CE30
DC30
F830
F030
E030
C030
C030
ENDCHAR
STARTCHAR Ecircumflex
ENCODING 202
SWIDTH 656 0
DWIDTH 12 0
BBX 11 14 1 0
BITMAP
C1C0
C380
C700
CE00
DC00
F800
F000
F800
DC00
CE00
C700
C380
C1C0
C0E0
ENDCHAR
STARTCHAR Edieresis
ENCODING 203
SWIDTH 656 0
DWIDTH 13 0
BBX 11 14 1 0
BITMAP
3FE0
3FE0
3060
3060
3060
3060
3060
3060
3060
3060
3060
3060
7060
E060
ENDCHAR
STARTCHAR Igrave
ENCODING 204
SWIDTH 812 0
DWIDTH 16 0
BBX 14 14 1 0
BITMAP
C00C
C00C
E01C
E01C
F03C
F03C
D86C
D86C
CCCC
CCCC
C78C
C78C
C30C
C30C
ENDCHAR
STARTCHAR Iacute
ENCODING 205
SWIDTH 719 0
DWIDTH 14 0
BBX 12 14 1 0
BITMAP
C030
C030
C030
C030
C030
C030
FFF0
FFF0
C030
C030
C030
C030
C030
C030
ENDCHAR
STARTCHAR Icircumflex
ENCODING 206
SWIDTH 781 0
DWIDTH 15 0
BBX 13 14 1 0
BITMAP
0F80
3FE0
7070
6030
C018
C018
C018
C018
C018
C018
6030
7070
3FE0
0F80
ENDCHAR
STARTCHAR Idieresis
ENCODING 207
SWIDTH 719 0
DWIDTH 14 0
BBX 12 14 1 0
BITMAP
FFF0
FFF0
C030
C030
C030
C030
C030
C030
C030
C030
C030
C030
C030
C030
ENDCHAR
STARTCHAR Eth
ENCODING 208
SWIDTH 656 0
DWIDTH 12 0
BBX 11 14 1 0
BITMAP
FF00
FFC0
C0C0
C060
C060
C060
C0C0
FFC0
FF00
C000
C000
C000
C000
C000
ENDCHAR
STARTCHAR Ntilde
ENCODING 209
SWIDTH 719 0
DWIDTH 13 0
BBX 12 14 1 0
BITMAP
0F80
3FE0
7070
6030
C000
C000
C000
C000
C000
C000
6030
7070
3FE0
0F80
ENDCHAR
STARTCHAR Ograve
ENCODING 210
SWIDTH 625 0
DWIDTH 12 0
BBX 12 14 0 0
BITMAP
FFF0
FFF0
0600
0600
0600
0600
0600
0600
0600
0600
0600
0600
0600
0600
ENDCHAR
STARTCHAR Oacute
ENCODING 211
SWIDTH 688 0
DWIDTH 12 0
BBX 12 14 0 0
BITMAP
C030
C030
6060
6060
30C0
30C0
1980
1980
0F00
0700
0600
0E00
3C00
3800
ENDCHAR
STARTCHAR Ocircumflex
ENCODING 212
SWIDTH 844 0
DWIDTH 16 0
BBX 14 14 1 0
BITMAP
0FC0
3FF0
7338
6318
C30C
C30C
C30C
C30C
C30C
6318
7338
3FF0
0FC0
0300
ENDCHAR
STARTCHAR Otilde
ENCODING 213
SWIDTH 656 0
DWIDTH 14 0
BBX 14 14 0 0
BITMAP
C00C
E01C
7038
3870
1CE0
0FC0
0780
0780
0FC0
1CE0
3870
7038
E01C
C00C
ENDCHAR
STARTCHAR Odieresis
ENCODING 214
SWIDTH 750 0
DWIDTH 14 0
BBX 12 16 1 -2
BITMAP
C060
C060
C060
C060
C060
C060
C060
C060
C060
C060
C060
C060
FFE0
FFF0
0030
0030
ENDCHAR
STARTCHAR multiply
ENCODING 215
SWIDTH 719 0
DWIDTH 14 0
BBX 12 14 1 0
BITMAP
C030
C030
C030
C030
C030
E030
7FF0
3FF0
0030
0030
0030
0030
0030
0030
ENDCHAR
STARTCHAR Oslash
ENCODING 216
SWIDTH 906 0
DWIDTH 18 0
BBX 16 14 1 0
BITMAP
C183
C183
C183
C183
C183
C183
C183
C183
C183
C183
C183
C183
FFFF
FFFF
ENDCHAR
STARTCHAR Ugrave
ENCODING 217
SWIDTH 969 0
DWIDTH 19 0
BBX 17 16 1 -2
BITMAP
C18300
C18300
C18300
C18300
C18300
C18300
C18300
C18300
C18300
C18300
C18300
C18300
FFFF80
FFFF80
000180
000180
ENDCHAR
STARTCHAR Uacute
ENCODING 218
SWIDTH 750 0
DWIDTH 15 0
BBX 13 14 1 0
BITMAP
F000
F000
3000
3000
3000
3FE0
3FF0
3038
3018
3018
3018
3038
3FF0
3FE0
ENDCHAR
STARTCHAR Ucircumflex
ENCODING 219
SWIDTH 812 0
DWIDTH 16 0
BBX 14 14 1 0
BITMAP
C00C
C00C
C00C
C00C
C00C
FF8C
FFCC
C0EC
C06C
C06C
C06C
C0EC
FFCC
FF8C
ENDCHAR
STARTCHAR Udieresis
ENCODING 220
SWIDTH 719 0
DWIDTH 13 0
BBX 11 14 1 0
BITMAP
C000
C000
C000
C000
C000
FF80
FFC0
C0E0
C060
C060
C060
C0E0
FFC0
FF80
ENDCHAR
STARTCHAR Yacute
ENCODING 221
SWIDTH 750 0
DWIDTH 13 0
BBX 11 14 1 0
BITMAP
3F00
7F80
E1C0
00E0
0060
0060
0FE0
0FE0
0060
0060
00C0
E1C0
7F80
3F00
ENDCHAR
STARTCHAR Thorn
ENCODING 222
SWIDTH 906 0
DWIDTH 16 0
BBX 15 14 1 0
BITMAP
C1E0
C7F8
CE1C
CC0C
D806
D806
F806
F806
D806
D806
CC0C
CE1C
C7F8
C1E0
ENDCHAR
STARTCHAR germandbls
ENCODING 223
SWIDTH 656 0
DWIDTH 13 0
BBX 11 15 1 -1
BITMAP
3FE0
7FE0
E060
C060
C060
C060
E060
7FE0
3FE0
0760
0E60
1C60
3860
7060
E060
ENDCHAR
STARTCHAR agrave
ENCODING 224
SWIDTH 562 0
DWIDTH 10 0
BBX 9 10 1 0
BITMAP
3C00
7E00
E700
0300
1F00
7300
C300
C700
FF80
7980
ENDCHAR
STARTCHAR aacute
ENCODING 225
SWIDTH 562 0
DWIDTH 11 0
BBX 9 14 1 0
BITMAP
0300
3F00
7E00
E000
DE00
FF00
E380
C180
C180
C180
C180
E380
7F00
3E00
ENDCHAR
STARTCHAR acircumflex
ENCODING 226
SWIDTH 562 0
DWIDTH 10 0
BBX 8 10 1 0
BITMAP
FE
FE
C3
C3
FE
FE
C3
C3
FF
FE
ENDCHAR
STARTCHAR atilde
ENCODING 227
SWIDTH 500 0
DWIDTH 9 0
BBX 8 10 1 0
BITMAP
FF
FF
C0
C0
C0
C0
C0
C0
C0
C0
ENDCHAR
STARTCHAR adieresis
ENCODING 228
SWIDTH 688 0
DWIDTH 13 0
BBX 12 12 1 -2
BITMAP
1FC0
1FC0
18C0
18C0
18C0
18C0
18C0
30C0
FFF0
FFF0
C030
C030
ENDCHAR
STARTCHAR aring
ENCODING 229
SWIDTH 531 0
DWIDTH 11 0
BBX 9 10 1 0
BITMAP
1C00
7F00
6300
C180
FF80
FF80
C000
6180
7F00
1C00
ENDCHAR
STARTCHAR ae
ENCODING 230
SWIDTH 781 0
DWIDTH 16 0
BBX 16 11 0 -1
BITMAP
E187
718E
399C
1DB8
0FF0
0FF0
1DB8
399C
718E
E187
C183
ENDCHAR
STARTCHAR ccedilla
ENCODING 231
SWIDTH 500 0
DWIDTH 10 0
BBX 8 10 1 0
BITMAP
7E
FF
C3
03
1E
1F
03
C3
FF
7E
ENDCHAR
STARTCHAR egrave
ENCODING 232
SWIDTH 562 0
DWIDTH 11 0
BBX 9 10 1 0
BITMAP
C180
C180
C380
C780
CD80
D980
F180
E180
C180
C180
ENDCHAR
STARTCHAR eacute
ENCODING 233
SWIDTH 562 0
DWIDTH 11 0
BBX 9 12 1 0
BITMAP
3600
1C00
C180
C180
C380
C780
CD80
D980
F180
E180
C180
C180
ENDCHAR
STARTCHAR ecircumflex
ENCODING 234
SWIDTH 500 0
DWIDTH 9 0
BBX 8 10 1 0
BITMAP
C3
C6
CC
D8
F0
F8
CC
C6
C3
C1
ENDCHAR
STARTCHAR edieresis
ENCODING 235
SWIDTH 562 0
DWIDTH 11 0
BBX 9 10 1 0
BITMAP
3F80
3F80
3180
3180
3180
3180
3180
3180
7180
E180
ENDCHAR
STARTCHAR igrave
ENCODING 236
SWIDTH 750 0
DWIDTH 14 0
BBX 12 10 1 0
BITMAP
C030
E070
F0F0
D9B0
CF30
C630
C030
C030
C030
C030
ENDCHAR
STARTCHAR iacute
ENCODING 237
SWIDTH 562 0
DWIDTH 11 0
BBX 9 10 1 0
BITMAP
C180
C180
C180
C180
FF80
FF80
C180
C180
C180
C180
ENDCHAR
STARTCHAR icircumflex
ENCODING 238
SWIDTH 562 0
DWIDTH 11 0
BBX 9 10 1 0
BITMAP
1C00
7F00
6300
C180
C180
C180
C180
6300
7F00
1C00
ENDCHAR
STARTCHAR idieresis
ENCODING 239
SWIDTH 562 0
DWIDTH 11 0
BBX 9 10 1 0
BITMAP
FF80
FF80
C180
C180
C180
C180
C180
C180
C180
C180
ENDCHAR
STARTCHAR eth
ENCODING 240
SWIDTH 562 0
DWIDTH 11 0
BBX 9 14 1 -4
BITMAP
DC00
FF00
E300
C180
C180
C180
C180
E300
FF00
DC00
C000
C000
C000
C000
ENDCHAR
STARTCHAR ntilde
ENCODING 241
SWIDTH 500 0
DWIDTH 10 0
BBX 9 10 1 0
BITMAP
1C00
7F00
6300
C180
C000
C000
C180
6300
7F00
1C00
ENDCHAR
STARTCHAR ograve
ENCODING 242
SWIDTH 562 0
DWIDTH 12 0
BBX 10 11 1 -1
BITMAP
FFC0
FFC0
0C00
0C00
0C00
0C00
0C00
0C00
0C00
0C00
0C00
ENDCHAR
STARTCHAR oacute
ENCODING 243
SWIDTH 469 0
DWIDTH 9 0
BBX 9 14 0 -4
BITMAP
C180
C180
C180
6300
6300
3600
3600
3E00
1C00
1C00
1800
1800
7800
7000
ENDCHAR
STARTCHAR ocircumflex
ENCODING 244
SWIDTH 656 0
DWIDTH 14 0
BBX 12 16 1 -5
BITMAP
0600
1F80
7FE0
6660
C630
C630
C630
C630
6660
7FE0
1F80
0600
0600
0600
0600
0600
ENDCHAR
STARTCHAR otilde
ENCODING 245
SWIDTH 469 0
DWIDTH 10 0
BBX 10 10 0 0
BITMAP
C0C0
E1C0
7380
3F00
1E00
1E00
3F00
7380
E1C0
C0C0
ENDCHAR
STARTCHAR odieresis
ENCODING 246
SWIDTH 594 0
DWIDTH 12 0
BBX 10 12 1 -2
BITMAP
C180
C180
C180
C180
C180
C180
C180
C180
FFC0
FFC0
00C0
00C0
ENDCHAR
STARTCHAR divide
ENCODING 247
SWIDTH 562 0
DWIDTH 11 0
BBX 9 10 1 0
BITMAP
C180
C180
C180
C180
FF80
7F80
0180
0180
0180
0180
ENDCHAR
STARTCHAR oslash
ENCODING 248
SWIDTH 781 0
DWIDTH 14 0
BBX 12 10 1 0
BITMAP
C630
C630
C630
C630
C630
C630
C630
C630
FFF0
FFF0
ENDCHAR
STARTCHAR ugrave
ENCODING 249
SWIDTH 812 0
DWIDTH 15 0
BBX 13 12 1 -2
BITMAP
C630
C630
C630
C630
C630
C630
C630
C630
FFF8
FFF8
0018
0018
ENDCHAR
STARTCHAR uacute
ENCODING 250
SWIDTH 625 0
DWIDTH 13 0
BBX 11 10 1 0
BITMAP
F000
F000
3000
3FC0
3FE0
3060
3060
3060
3FE0
3FC0
ENDCHAR
STARTCHAR ucircumflex
ENCODING 251
SWIDTH 719 0
DWIDTH 14 0
BBX 12 10 1 0
BITMAP
C030
C030
C030
FF30
FFB0
C1B0
C1B0
C1B0
FFB0
FF30
ENDCHAR
STARTCHAR udieresis
ENCODING 252
SWIDTH 562 0
DWIDTH 11 0
BBX 9 10 1 0
BITMAP
C000
C000
C000
FF00
FF80
C180
C180
C180
FF80
FF00
ENDCHAR
STARTCHAR yacute
ENCODING 253
SWIDTH 531 0
DWIDTH 10 0
BBX 8 10 1 0
BITMAP
3C
7E
C7
03
1F
1F
03
C7
7E
3C
ENDCHAR
STARTCHAR thorn
ENCODING 254
SWIDTH 719 0
DWIDTH 14 0
BBX 12 10 1 0
BITMAP
C380
CFE0
CC60
D830
F830
F830
D830
CC60
CFE0
C380
ENDCHAR
STARTCHAR ydieresis
ENCODING 255
SWIDTH 531 0
DWIDTH 11 0
BBX 9 10 1 0
BITMAP
7F80
FF80
C180
C180
C180
FF80
7F80
3980
7180
E180
ENDCHAR
ENDFONT
