STARTFONT 2.1
FONT -FontForge-Helv Cyrillic-Normal-R-Normal--16-120-100-100-P-83-WinRoman-0
SIZE 12 100 100
FONTBOUNDINGBOX 15 18 0 -4
COMMENT "Generated by fontforge, http://fontforge.sourceforge.net"
COMMENT "Copyright (C) Steepler Ltd., 1990-92."
STARTPROPERTIES 34
FOUNDRY "FontForge"
FAMILY_NAME "Helv Cyrillic"
WEIGHT_NAME "Normal"
SLANT "R"
SETWIDTH_NAME "Normal"
ADD_STYLE_NAME ""
PIXEL_SIZE 16
POINT_SIZE 120
RESOLUTION_X 100
RESOLUTION_Y 100
SPACING "P"
AVERAGE_WIDTH 83
CHARSET_REGISTRY "WinRoman"
CHARSET_ENCODING "0"
FONTNAME_REGISTRY ""
CHARSET_COLLECTIONS "WinRoman"
FONT_NAME "HelvCyrillic"
FACE_NAME "Helv Cyrillic"
COPYRIGHT "Copyright (C) Steepler Ltd., 1990-92."
FONT_VERSION "001.000"
FONT_ASCENT 13
FONT_DESCENT 3
UNDERLINE_POSITION -2
UNDERLINE_THICKNESS 1
X_HEIGHT 8
CAP_HEIGHT 11
RAW_ASCENT 800
RAW_DESCENT 200
NORM_SPACE 4
RELATIVE_WEIGHT 40
RELATIVE_SETWIDTH 50
FIGURE_WIDTH 9
AVG_LOWERCASE_WIDTH 83
AVG_UPPERCASE_WIDTH 109
ENDPROPERTIES
CHARS 224
STARTCHAR space
ENCODING 32
SWIDTH 281 0
DWIDTH 4 0
BBX 1 1 3 -4
BITMAP
00
ENDCHAR
STARTCHAR exclam
ENCODING 33
SWIDTH 281 0
DWIDTH 4 0
BBX 1 12 2 0
BITMAP
80
80
80
80
80
80
80
80
80
00
00
80
ENDCHAR
STARTCHAR quotedbl
ENCODING 34
SWIDTH 344 0
DWIDTH 6 0
BBX 4 4 1 8
BITMAP
90
90
90
90
ENDCHAR
STARTCHAR numbersign
ENCODING 35
SWIDTH 562 0
DWIDTH 9 0
BBX 8 12 0 0
BITMAP
12
12
12
7F
24
24
24
24
FE
48
48
48
ENDCHAR
STARTCHAR dollar
ENCODING 36
SWIDTH 562 0
DWIDTH 9 0
BBX 7 14 1 -1
BITMAP
10
38
54
92
90
50
38
14
12
12
92
54
38
10
ENDCHAR
STARTCHAR percent
ENCODING 37
SWIDTH 875 0
DWIDTH 14 0
BBX 12 12 1 0
BITMAP
7010
8820
8840
8880
7100
0200
0400
08E0
1110
2110
4110
80E0
ENDCHAR
STARTCHAR ampersand
ENCODING 38
SWIDTH 688 0
DWIDTH 11 0
BBX 10 12 1 0
BITMAP
3000
4800
4800
4800
3000
3000
4800
8480
8280
8100
4280
3C40
ENDCHAR
STARTCHAR quotesingle
ENCODING 39
SWIDTH 219 0
DWIDTH 3 0
BBX 1 4 1 8
BITMAP
80
80
80
80
ENDCHAR
STARTCHAR parenleft
ENCODING 40
SWIDTH 344 0
DWIDTH 5 0
BBX 3 16 1 -3
BITMAP
20
40
40
40
80
80
80
80
80
80
80
80
40
40
40
20
ENDCHAR
STARTCHAR parenright
ENCODING 41
SWIDTH 344 0
DWIDTH 5 0
BBX 3 16 1 -3
BITMAP
80
40
40
40
20
20
20
20
20
20
20
20
40
40
40
80
ENDCHAR
STARTCHAR asterisk
ENCODING 42
SWIDTH 375 0
DWIDTH 6 0
BBX 5 5 1 8
BITMAP
20
A8
70
50
88
ENDCHAR
STARTCHAR plus
ENCODING 43
SWIDTH 594 0
DWIDTH 9 0
BBX 7 7 1 2
BITMAP
10
10
10
FE
10
10
10
ENDCHAR
STARTCHAR comma
ENCODING 44
SWIDTH 281 0
DWIDTH 4 0
BBX 2 2 1 -1
BITMAP
40
80
ENDCHAR
STARTCHAR hyphen
ENCODING 45
SWIDTH 312 0
DWIDTH 5 0
BBX 5 1 0 5
BITMAP
F8
ENDCHAR
STARTCHAR period
ENCODING 46
SWIDTH 281 0
DWIDTH 4 0
BBX 1 1 2 0
BITMAP
80
ENDCHAR
STARTCHAR slash
ENCODING 47
SWIDTH 281 0
DWIDTH 4 0
BBX 4 13 0 -1
BITMAP
10
10
10
10
20
20
20
20
40
40
40
40
80
ENDCHAR
STARTCHAR zero
ENCODING 48
SWIDTH 562 0
DWIDTH 9 0
BBX 7 12 1 0
BITMAP
38
44
44
82
82
82
82
82
82
44
44
38
ENDCHAR
STARTCHAR one
ENCODING 49
SWIDTH 500 0
DWIDTH 9 0
BBX 3 12 2 0
BITMAP
20
E0
20
20
20
20
20
20
20
20
20
20
ENDCHAR
STARTCHAR two
ENCODING 50
SWIDTH 562 0
DWIDTH 9 0
BBX 7 12 1 0
BITMAP
38
44
82
82
02
04
08
10
20
40
80
FE
ENDCHAR
STARTCHAR three
ENCODING 51
SWIDTH 562 0
DWIDTH 9 0
BBX 7 12 1 0
BITMAP
38
44
82
82
04
38
04
02
82
82
44
38
ENDCHAR
STARTCHAR four
ENCODING 52
SWIDTH 562 0
DWIDTH 9 0
BBX 7 12 1 0
BITMAP
04
0C
0C
14
24
24
44
84
FE
04
04
04
ENDCHAR
STARTCHAR five
ENCODING 53
SWIDTH 562 0
DWIDTH 9 0
BBX 7 12 1 0
BITMAP
FE
80
80
80
B8
C4
82
02
82
82
44
38
ENDCHAR
STARTCHAR six
ENCODING 54
SWIDTH 562 0
DWIDTH 9 0
BBX 7 12 1 0
BITMAP
38
44
82
80
B8
C4
82
82
82
82
44
38
ENDCHAR
STARTCHAR seven
ENCODING 55
SWIDTH 562 0
DWIDTH 9 0
BBX 7 12 1 0
BITMAP
FE
02
02
04
04
08
08
08
10
10
10
10
ENDCHAR
STARTCHAR eight
ENCODING 56
SWIDTH 562 0
DWIDTH 9 0
BBX 7 12 1 0
BITMAP
38
44
82
82
44
38
44
82
82
82
44
38
ENDCHAR
STARTCHAR nine
ENCODING 57
SWIDTH 562 0
DWIDTH 9 0
BBX 7 12 1 0
BITMAP
38
44
82
82
82
82
46
3A
02
82
44
38
ENDCHAR
STARTCHAR colon
ENCODING 58
SWIDTH 281 0
DWIDTH 4 0
BBX 1 9 2 0
BITMAP
80
00
00
00
00
00
00
00
80
ENDCHAR
STARTCHAR semicolon
ENCODING 59
SWIDTH 281 0
DWIDTH 4 0
BBX 2 10 1 -1
BITMAP
40
00
00
00
00
00
00
00
40
80
ENDCHAR
STARTCHAR less
ENCODING 60
SWIDTH 594 0
DWIDTH 9 0
BBX 7 7 1 2
BITMAP
06
18
60
80
60
18
06
ENDCHAR
STARTCHAR equal
ENCODING 61
SWIDTH 594 0
DWIDTH 9 0
BBX 7 4 1 4
BITMAP
FE
00
00
FE
ENDCHAR
STARTCHAR greater
ENCODING 62
SWIDTH 594 0
DWIDTH 9 0
BBX 7 7 1 2
BITMAP
C0
30
0C
02
0C
30
C0
ENDCHAR
STARTCHAR question
ENCODING 63
SWIDTH 531 0
DWIDTH 9 0
BBX 7 12 1 0
BITMAP
38
44
82
82
02
04
08
10
10
00
00
10
ENDCHAR
STARTCHAR at
ENCODING 64
SWIDTH 938 0
DWIDTH 16 0
BBX 14 12 1 0
BITMAP
07E0
1810
2008
4384
4444
8844
8844
88C8
8770
4000
3030
0FC0
ENDCHAR
STARTCHAR A
ENCODING 65
SWIDTH 688 0
DWIDTH 11 0
BBX 11 12 0 0
BITMAP
0400
0400
0A00
0A00
1100
1100
2080
2080
7FC0
4040
8020
8020
ENDCHAR
STARTCHAR B
ENCODING 66
SWIDTH 656 0
DWIDTH 11 0
BBX 8 12 2 0
BITMAP
FC
82
81
81
82
FC
82
81
81
81
82
FC
ENDCHAR
STARTCHAR C
ENCODING 67
SWIDTH 719 0
DWIDTH 11 0
BBX 10 12 1 0
BITMAP
1E00
6180
4080
8040
8000
8000
8000
8000
8040
4080
6180
1E00
ENDCHAR
STARTCHAR D
ENCODING 68
SWIDTH 719 0
DWIDTH 12 0
BBX 9 12 2 0
BITMAP
FC00
8300
8100
8080
8080
8080
8080
8080
8080
8100
8300
FC00
ENDCHAR
STARTCHAR E
ENCODING 69
SWIDTH 656 0
DWIDTH 11 0
BBX 8 12 2 0
BITMAP
FF
80
80
80
80
FE
80
80
80
80
80
FF
ENDCHAR
STARTCHAR F
ENCODING 70
SWIDTH 625 0
DWIDTH 10 0
BBX 8 12 2 0
BITMAP
FF
80
80
80
80
FE
80
80
80
80
80
80
ENDCHAR
STARTCHAR G
ENCODING 71
SWIDTH 781 0
DWIDTH 13 0
BBX 10 12 1 0
BITMAP
1E00
6180
4080
8040
8000
8000
87C0
8040
8040
40C0
61C0
1E40
ENDCHAR
STARTCHAR H
ENCODING 72
SWIDTH 719 0
DWIDTH 12 0
BBX 8 12 2 0
BITMAP
81
81
81
81
81
FF
81
81
81
81
81
81
ENDCHAR
STARTCHAR I
ENCODING 73
SWIDTH 250 0
DWIDTH 5 0
BBX 1 12 2 0
BITMAP
80
80
80
80
80
80
80
80
80
80
80
80
ENDCHAR
STARTCHAR J
ENCODING 74
SWIDTH 500 0
DWIDTH 8 0
BBX 6 12 0 0
BITMAP
04
04
04
04
04
04
04
04
84
84
84
78
ENDCHAR
STARTCHAR K
ENCODING 75
SWIDTH 656 0
DWIDTH 10 0
BBX 8 12 2 0
BITMAP
82
84
88
90
A0
C0
A0
90
88
84
82
81
ENDCHAR
STARTCHAR L
ENCODING 76
SWIDTH 562 0
DWIDTH 9 0
BBX 7 12 2 0
BITMAP
80
80
80
80
80
80
80
80
80
80
80
FE
ENDCHAR
STARTCHAR M
ENCODING 77
SWIDTH 812 0
DWIDTH 13 0
BBX 9 12 2 0
BITMAP
8080
8080
C180
C180
A280
A280
9480
9480
8880
8880
8080
8080
ENDCHAR
STARTCHAR N
ENCODING 78
SWIDTH 750 0
DWIDTH 11 0
BBX 7 12 2 0
BITMAP
82
C2
C2
A2
A2
92
92
8A
8A
86
86
82
ENDCHAR
STARTCHAR O
ENCODING 79
SWIDTH 781 0
DWIDTH 12 0
BBX 10 12 1 0
BITMAP
1E00
6180
4080
8040
8040
8040
8040
8040
8040
4080
6180
1E00
ENDCHAR
STARTCHAR P
ENCODING 80
SWIDTH 656 0
DWIDTH 10 0
BBX 8 12 2 0
BITMAP
FC
82
81
81
81
82
FC
80
80
80
80
80
ENDCHAR
STARTCHAR Q
ENCODING 81
SWIDTH 781 0
DWIDTH 12 0
BBX 10 13 1 -1
BITMAP
1E00
6180
4080
8040
8040
8040
8040
8040
8440
4280
6180
1E80
0040
ENDCHAR
STARTCHAR R
ENCODING 82
SWIDTH 688 0
DWIDTH 12 0
BBX 9 12 2 0
BITMAP
FC00
8200
8100
8100
8100
8200
FC00
8200
8100
8100
8100
8080
ENDCHAR
STARTCHAR S
ENCODING 83
SWIDTH 656 0
DWIDTH 11 0
BBX 9 12 1 0
BITMAP
3E00
4100
8080
8000
4000
3E00
0100
0080
0080
8080
4100
3E00
ENDCHAR
STARTCHAR T
ENCODING 84
SWIDTH 625 0
DWIDTH 9 0
BBX 9 12 0 0
BITMAP
FF80
0800
0800
0800
0800
0800
0800
0800
0800
0800
0800
0800
ENDCHAR
STARTCHAR U
ENCODING 85
SWIDTH 719 0
DWIDTH 12 0
BBX 8 12 2 0
BITMAP
81
81
81
81
81
81
81
81
81
81
42
3C
ENDCHAR
STARTCHAR V
ENCODING 86
SWIDTH 688 0
DWIDTH 11 0
BBX 11 12 0 0
BITMAP
8020
8020
4040
4040
2080
2080
1100
1100
0A00
0A00
0400
0400
ENDCHAR
STARTCHAR W
ENCODING 87
SWIDTH 969 0
DWIDTH 15 0
BBX 15 12 0 0
BITMAP
8002
8102
4104
4104
4284
2288
2288
1450
1450
0820
0820
0820
ENDCHAR
STARTCHAR X
ENCODING 88
SWIDTH 656 0
DWIDTH 11 0
BBX 11 12 0 0
BITMAP
8020
4040
2080
1100
0A00
0400
0400
0A00
1100
2080
4040
8020
ENDCHAR
STARTCHAR Y
ENCODING 89
SWIDTH 688 0
DWIDTH 11 0
BBX 11 12 0 0
BITMAP
8020
4040
2080
1100
0A00
0400
0400
0400
0400
0400
0400
0400
ENDCHAR
STARTCHAR Z
ENCODING 90
SWIDTH 625 0
DWIDTH 10 0
BBX 10 12 0 0
BITMAP
7FC0
0040
0080
0100
0200
0400
0800
1000
2000
4000
8000
FF80
ENDCHAR
STARTCHAR bracketleft
ENCODING 91
SWIDTH 281 0
DWIDTH 4 0
BBX 2 15 1 -3
BITMAP
C0
80
80
80
80
80
80
80
80
80
80
80
80
80
C0
ENDCHAR
STARTCHAR backslash
ENCODING 92
SWIDTH 281 0
DWIDTH 4 0
BBX 4 13 0 -1
BITMAP
80
80
80
80
40
40
40
40
20
20
20
20
10
ENDCHAR
STARTCHAR bracketright
ENCODING 93
SWIDTH 281 0
DWIDTH 4 0
BBX 2 15 1 -3
BITMAP
C0
40
40
40
40
40
40
40
40
40
40
40
40
40
C0
ENDCHAR
STARTCHAR asciicircum
ENCODING 94
SWIDTH 469 0
DWIDTH 7 0
BBX 5 3 1 10
BITMAP
20
50
88
ENDCHAR
STARTCHAR underscore
ENCODING 95
SWIDTH 562 0
DWIDTH 9 0
BBX 9 1 0 -2
BITMAP
FF80
ENDCHAR
STARTCHAR grave
ENCODING 96
SWIDTH 344 0
DWIDTH 5 0
BBX 3 3 1 10
BITMAP
80
40
20
ENDCHAR
STARTCHAR a
ENCODING 97
SWIDTH 562 0
DWIDTH 9 0
BBX 8 9 1 0
BITMAP
7C
82
02
02
7E
82
82
82
7D
ENDCHAR
STARTCHAR b
ENCODING 98
SWIDTH 562 0
DWIDTH 9 0
BBX 7 12 1 0
BITMAP
80
80
80
B8
C4
82
82
82
82
82
C4
B8
ENDCHAR
STARTCHAR c
ENCODING 99
SWIDTH 500 0
DWIDTH 8 0
BBX 7 9 1 0
BITMAP
38
44
82
80
80
80
82
44
38
ENDCHAR
STARTCHAR d
ENCODING 100
SWIDTH 562 0
DWIDTH 9 0
BBX 7 12 1 0
BITMAP
02
02
02
3A
46
82
82
82
82
82
46
3A
ENDCHAR
STARTCHAR e
ENCODING 101
SWIDTH 531 0
DWIDTH 9 0
BBX 7 9 1 0
BITMAP
38
44
82
82
FE
80
82
44
38
ENDCHAR
STARTCHAR f
ENCODING 102
SWIDTH 281 0
DWIDTH 5 0
BBX 5 12 0 0
BITMAP
18
20
20
F8
20
20
20
20
20
20
20
20
ENDCHAR
STARTCHAR g
ENCODING 103
SWIDTH 562 0
DWIDTH 9 0
BBX 7 13 1 -4
BITMAP
3A
46
82
82
82
82
82
46
3A
02
02
04
78
ENDCHAR
STARTCHAR h
ENCODING 104
SWIDTH 562 0
DWIDTH 9 0
BBX 7 12 1 0
BITMAP
80
80
80
B8
C4
82
82
82
82
82
82
82
ENDCHAR
STARTCHAR i
ENCODING 105
SWIDTH 219 0
DWIDTH 3 0
BBX 1 12 1 0
BITMAP
80
00
00
80
80
80
80
80
80
80
80
80
ENDCHAR
STARTCHAR j
ENCODING 106
SWIDTH 219 0
DWIDTH 3 0
BBX 2 16 0 -4
BITMAP
40
00
00
40
40
40
40
40
40
40
40
40
40
40
40
80
ENDCHAR
STARTCHAR k
ENCODING 107
SWIDTH 500 0
DWIDTH 8 0
BBX 7 12 1 0
BITMAP
80
80
80
84
88
90
A0
E0
90
88
84
82
ENDCHAR
STARTCHAR l
ENCODING 108
SWIDTH 219 0
DWIDTH 3 0
BBX 1 12 1 0
BITMAP
80
80
80
80
80
80
80
80
80
80
80
80
ENDCHAR
STARTCHAR m
ENCODING 109
SWIDTH 844 0
DWIDTH 13 0
BBX 11 9 1 0
BITMAP
B180
CA40
8420
8420
8420
8420
8420
8420
8420
ENDCHAR
STARTCHAR n
ENCODING 110
SWIDTH 562 0
DWIDTH 9 0
BBX 7 9 1 0
BITMAP
B8
C4
82
82
82
82
82
82
82
ENDCHAR
STARTCHAR o
ENCODING 111
SWIDTH 562 0
DWIDTH 9 0
BBX 7 9 1 0
BITMAP
38
44
82
82
82
82
82
44
38
ENDCHAR
STARTCHAR p
ENCODING 112
SWIDTH 562 0
DWIDTH 9 0
BBX 7 13 1 -4
BITMAP
B8
C4
82
82
82
82
82
C4
B8
80
80
80
80
ENDCHAR
STARTCHAR q
ENCODING 113
SWIDTH 562 0
DWIDTH 9 0
BBX 7 13 1 -4
BITMAP
3A
46
82
82
82
82
82
46
3A
02
02
02
02
ENDCHAR
STARTCHAR r
ENCODING 114
SWIDTH 344 0
DWIDTH 5 0
BBX 4 9 1 0
BITMAP
B0
C0
80
80
80
80
80
80
80
ENDCHAR
STARTCHAR s
ENCODING 115
SWIDTH 500 0
DWIDTH 8 0
BBX 6 9 1 0
BITMAP
78
84
80
80
78
04
04
84
78
ENDCHAR
STARTCHAR t
ENCODING 116
SWIDTH 281 0
DWIDTH 5 0
BBX 5 12 0 0
BITMAP
20
20
20
F8
20
20
20
20
20
20
20
10
ENDCHAR
STARTCHAR u
ENCODING 117
SWIDTH 562 0
DWIDTH 9 0
BBX 7 9 1 0
BITMAP
82
82
82
82
82
82
82
46
3A
ENDCHAR
STARTCHAR v
ENCODING 118
SWIDTH 469 0
DWIDTH 7 0
BBX 7 9 0 0
BITMAP
82
82
44
44
28
28
10
10
10
ENDCHAR
STARTCHAR w
ENCODING 119
SWIDTH 719 0
DWIDTH 11 0
BBX 11 9 0 0
BITMAP
8020
8420
4440
4440
2A80
2A80
1100
1100
1100
ENDCHAR
STARTCHAR x
ENCODING 120
SWIDTH 469 0
DWIDTH 7 0
BBX 7 9 0 0
BITMAP
82
44
44
28
10
28
44
44
82
ENDCHAR
STARTCHAR y
ENCODING 121
SWIDTH 469 0
DWIDTH 7 0
BBX 7 13 0 -4
BITMAP
82
82
44
44
28
28
10
10
20
20
40
40
80
ENDCHAR
STARTCHAR z
ENCODING 122
SWIDTH 500 0
DWIDTH 8 0
BBX 6 9 1 0
BITMAP
FC
04
08
10
20
20
40
80
FC
ENDCHAR
STARTCHAR braceleft
ENCODING 123
SWIDTH 344 0
DWIDTH 5 0
BBX 3 15 1 -3
BITMAP
20
40
40
40
40
40
40
80
40
40
40
40
40
40
20
ENDCHAR
STARTCHAR bar
ENCODING 124
SWIDTH 219 0
DWIDTH 5 0
BBX 1 13 2 -1
BITMAP
80
80
80
80
80
80
80
80
80
80
80
80
80
ENDCHAR
STARTCHAR braceright
ENCODING 125
SWIDTH 344 0
DWIDTH 5 0
BBX 3 15 1 -3
BITMAP
80
40
40
40
40
40
40
20
40
40
40
40
40
40
80
ENDCHAR
STARTCHAR asciitilde
ENCODING 126
SWIDTH 594 0
DWIDTH 9 0
BBX 7 3 1 10
BITMAP
62
92
8C
ENDCHAR
STARTCHAR uni007F
ENCODING 127
SWIDTH 344 0
DWIDTH 5 0
BBX 3 12 1 0
BITMAP
E0
E0
E0
E0
E0
E0
E0
E0
E0
E0
E0
E0
ENDCHAR
STARTCHAR Euro
ENCODING 128
SWIDTH 344 0
DWIDTH 5 0
BBX 3 12 1 0
BITMAP
E0
E0
E0
E0
E0
E0
E0
E0
E0
E0
E0
E0
ENDCHAR
STARTCHAR NameMe.129
ENCODING 129
SWIDTH 344 0
DWIDTH 5 0
BBX 3 12 1 0
BITMAP
E0
E0
E0
E0
E0
E0
E0
E0
E0
E0
E0
E0
ENDCHAR
STARTCHAR quotesinglbase
ENCODING 130
SWIDTH 344 0
DWIDTH 5 0
BBX 3 12 1 0
BITMAP
E0
E0
E0
E0
E0
E0
E0
E0
E0
E0
E0
E0
ENDCHAR
STARTCHAR florin
ENCODING 131
SWIDTH 344 0
DWIDTH 5 0
BBX 3 12 1 0
BITMAP
E0
E0
E0
E0
E0
E0
E0
E0
E0
E0
E0
E0
ENDCHAR
STARTCHAR quotedblbase
ENCODING 132
SWIDTH 344 0
DWIDTH 5 0
BBX 3 12 1 0
BITMAP
E0
E0
E0
E0
E0
E0
E0
E0
E0
E0
E0
E0
ENDCHAR
STARTCHAR ellipsis
ENCODING 133
SWIDTH 344 0
DWIDTH 5 0
BBX 3 12 1 0
BITMAP
E0
E0
E0
E0
E0
E0
E0
E0
E0
E0
E0
E0
ENDCHAR
STARTCHAR dagger
ENCODING 134
SWIDTH 344 0
DWIDTH 5 0
BBX 3 12 1 0
BITMAP
E0
E0
E0
E0
E0
E0
E0
E0
E0
E0
E0
E0
ENDCHAR
STARTCHAR daggerdbl
ENCODING 135
SWIDTH 344 0
DWIDTH 5 0
BBX 3 12 1 0
BITMAP
E0
E0
E0
E0
E0
E0
E0
E0
E0
E0
E0
E0
ENDCHAR
STARTCHAR circumflex
ENCODING 136
SWIDTH 344 0
DWIDTH 5 0
BBX 3 12 1 0
BITMAP
E0
E0
E0
E0
E0
E0
E0
E0
E0
E0
E0
E0
ENDCHAR
STARTCHAR perthousand
ENCODING 137
SWIDTH 344 0
DWIDTH 5 0
BBX 3 12 1 0
BITMAP
E0
E0
E0
E0
E0
E0
E0
E0
E0
E0
E0
E0
ENDCHAR
STARTCHAR Scaron
ENCODING 138
SWIDTH 344 0
DWIDTH 5 0
BBX 3 12 1 0
BITMAP
E0
E0
E0
E0
E0
E0
E0
E0
E0
E0
E0
E0
ENDCHAR
STARTCHAR guilsinglleft
ENCODING 139
SWIDTH 344 0
DWIDTH 5 0
BBX 3 12 1 0
BITMAP
E0
E0
E0
E0
E0
E0
E0
E0
E0
E0
E0
E0
ENDCHAR
STARTCHAR OE
ENCODING 140
SWIDTH 344 0
DWIDTH 5 0
BBX 3 12 1 0
BITMAP
E0
E0
E0
E0
E0
E0
E0
E0
E0
E0
E0
E0
ENDCHAR
STARTCHAR NameMe.141
ENCODING 141
SWIDTH 344 0
DWIDTH 5 0
BBX 3 12 1 0
BITMAP
E0
E0
E0
E0
E0
E0
E0
E0
E0
E0
E0
E0
ENDCHAR
STARTCHAR Zcaron
ENCODING 142
SWIDTH 344 0
DWIDTH 5 0
BBX 3 12 1 0
BITMAP
E0
E0
E0
E0
E0
E0
E0
E0
E0
E0
E0
E0
ENDCHAR
STARTCHAR NameMe.143
ENCODING 143
SWIDTH 344 0
DWIDTH 5 0
BBX 3 12 1 0
BITMAP
E0
E0
E0
E0
E0
E0
E0
E0
E0
E0
E0
E0
ENDCHAR
STARTCHAR NameMe.144
ENCODING 144
SWIDTH 344 0
DWIDTH 5 0
BBX 3 12 1 0
BITMAP
E0
E0
E0
E0
E0
E0
E0
E0
E0
E0
E0
E0
ENDCHAR
STARTCHAR quoteleft
ENCODING 145
SWIDTH 281 0
DWIDTH 4 0
BBX 2 2 1 10
BITMAP
40
80
ENDCHAR
STARTCHAR quoteright
ENCODING 146
SWIDTH 281 0
DWIDTH 4 0
BBX 2 2 1 10
BITMAP
40
80
ENDCHAR
STARTCHAR quotedblleft
ENCODING 147
SWIDTH 344 0
DWIDTH 5 0
BBX 3 12 1 0
BITMAP
E0
E0
E0
E0
E0
E0
E0
E0
E0
E0
E0
E0
ENDCHAR
STARTCHAR quotedblright
ENCODING 148
SWIDTH 344 0
DWIDTH 5 0
BBX 3 12 1 0
BITMAP
E0
E0
E0
E0
E0
E0
E0
E0
E0
E0
E0
E0
ENDCHAR
STARTCHAR bullet
ENCODING 149
SWIDTH 344 0
DWIDTH 5 0
BBX 3 12 1 0
BITMAP
E0
E0
E0
E0
E0
E0
E0
E0
E0
E0
E0
E0
ENDCHAR
STARTCHAR endash
ENCODING 150
SWIDTH 344 0
DWIDTH 5 0
BBX 3 12 1 0
BITMAP
E0
E0
E0
E0
E0
E0
E0
E0
E0
E0
E0
E0
ENDCHAR
STARTCHAR emdash
ENCODING 151
SWIDTH 344 0
DWIDTH 5 0
BBX 3 12 1 0
BITMAP
E0
E0
E0
E0
E0
E0
E0
E0
E0
E0
E0
E0
ENDCHAR
STARTCHAR tilde
ENCODING 152
SWIDTH 344 0
DWIDTH 5 0
BBX 3 12 1 0
BITMAP
E0
E0
E0
E0
E0
E0
E0
E0
E0
E0
E0
E0
ENDCHAR
STARTCHAR trademark
ENCODING 153
SWIDTH 344 0
DWIDTH 5 0
BBX 3 12 1 0
BITMAP
E0
E0
E0
E0
E0
E0
E0
E0
E0
E0
E0
E0
ENDCHAR
STARTCHAR scaron
ENCODING 154
SWIDTH 344 0
DWIDTH 5 0
BBX 3 12 1 0
BITMAP
E0
E0
E0
E0
E0
E0
E0
E0
E0
E0
E0
E0
ENDCHAR
STARTCHAR guilsinglright
ENCODING 155
SWIDTH 344 0
DWIDTH 5 0
BBX 3 12 1 0
BITMAP
E0
E0
E0
E0
E0
E0
E0
E0
E0
E0
E0
E0
ENDCHAR
STARTCHAR oe
ENCODING 156
SWIDTH 344 0
DWIDTH 5 0
BBX 3 12 1 0
BITMAP
E0
E0
E0
E0
E0
E0
E0
E0
E0
E0
E0
E0
ENDCHAR
STARTCHAR NameMe.157
ENCODING 157
SWIDTH 344 0
DWIDTH 5 0
BBX 3 12 1 0
BITMAP
E0
E0
E0
E0
E0
E0
E0
E0
E0
E0
E0
E0
ENDCHAR
STARTCHAR zcaron
ENCODING 158
SWIDTH 344 0
DWIDTH 5 0
BBX 3 12 1 0
BITMAP
E0
E0
E0
E0
E0
E0
E0
E0
E0
E0
E0
E0
ENDCHAR
STARTCHAR Ydieresis
ENCODING 159
SWIDTH 344 0
DWIDTH 5 0
BBX 3 12 1 0
BITMAP
E0
E0
E0
E0
E0
E0
E0
E0
E0
E0
E0
E0
ENDCHAR
STARTCHAR uni00A0
ENCODING 160
SWIDTH 281 0
DWIDTH 4 0
BBX 1 1 3 -4
BITMAP
00
ENDCHAR
STARTCHAR exclamdown
ENCODING 161
SWIDTH 281 0
DWIDTH 4 0
BBX 1 12 1 -3
BITMAP
80
00
00
80
80
80
80
80
80
80
80
80
ENDCHAR
STARTCHAR cent
ENCODING 162
SWIDTH 562 0
DWIDTH 9 0
BBX 7 11 1 -1
BITMAP
02
3A
44
8A
88
90
A0
A2
44
B8
80
ENDCHAR
STARTCHAR sterling
ENCODING 163
SWIDTH 562 0
DWIDTH 9 0
BBX 7 12 1 0
BITMAP
38
44
44
40
20
FC
20
20
20
40
40
FE
ENDCHAR
STARTCHAR currency
ENCODING 164
SWIDTH 562 0
DWIDTH 9 0
BBX 7 7 1 4
BITMAP
82
7C
44
44
44
7C
82
ENDCHAR
STARTCHAR yen
ENCODING 165
SWIDTH 562 0
DWIDTH 9 0
BBX 9 12 0 0
BITMAP
8080
8080
4100
2200
FF80
0800
0800
FF80
0800
0800
0800
0800
ENDCHAR
STARTCHAR brokenbar
ENCODING 166
SWIDTH 219 0
DWIDTH 5 0
BBX 1 14 2 -2
BITMAP
80
80
80
80
80
80
00
00
80
80
80
80
80
80
ENDCHAR
STARTCHAR section
ENCODING 167
SWIDTH 562 0
DWIDTH 9 0
BBX 7 13 1 -1
BITMAP
38
44
40
60
90
88
44
22
12
0C
04
44
38
ENDCHAR
STARTCHAR dieresis
ENCODING 168
SWIDTH 344 0
DWIDTH 5 0
BBX 3 1 1 11
BITMAP
A0
ENDCHAR
STARTCHAR copyright
ENCODING 169
SWIDTH 750 0
DWIDTH 11 0
BBX 11 12 0 0
BITMAP
1F00
60C0
4040
8E20
9120
9020
9020
9120
8E20
4060
60C0
1F00
ENDCHAR
STARTCHAR ordfeminine
ENCODING 170
SWIDTH 375 0
DWIDTH 6 0
BBX 4 7 1 5
BITMAP
60
10
70
90
70
00
F0
ENDCHAR
STARTCHAR guillemotleft
ENCODING 171
SWIDTH 562 0
DWIDTH 9 0
BBX 7 5 1 1
BITMAP
22
44
88
44
22
ENDCHAR
STARTCHAR logicalnot
ENCODING 172
SWIDTH 594 0
DWIDTH 9 0
BBX 7 3 1 3
BITMAP
FE
02
02
ENDCHAR
STARTCHAR uni00AD
ENCODING 173
SWIDTH 312 0
DWIDTH 5 0
BBX 5 1 0 4
BITMAP
F8
ENDCHAR
STARTCHAR registered
ENCODING 174
SWIDTH 750 0
DWIDTH 11 0
BBX 11 12 0 1
BITMAP
1F00
60C0
4040
9E20
9120
9120
9E20
9220
9120
4040
60C0
1F00
ENDCHAR
STARTCHAR macron
ENCODING 175
SWIDTH 500 0
DWIDTH 9 0
BBX 9 1 0 13
BITMAP
FF80
ENDCHAR
STARTCHAR degree
ENCODING 176
SWIDTH 344 0
DWIDTH 5 0
BBX 4 4 1 8
BITMAP
60
90
90
60
ENDCHAR
STARTCHAR plusminus
ENCODING 177
SWIDTH 594 0
DWIDTH 9 0
BBX 7 9 1 0
BITMAP
10
10
10
FE
10
10
10
00
FE
ENDCHAR
STARTCHAR uni00B2
ENCODING 178
SWIDTH 281 0
DWIDTH 5 0
BBX 4 6 1 6
BITMAP
60
90
10
20
40
F0
ENDCHAR
STARTCHAR uni00B3
ENCODING 179
SWIDTH 281 0
DWIDTH 5 0
BBX 4 6 1 6
BITMAP
60
90
20
10
90
60
ENDCHAR
STARTCHAR acute
ENCODING 180
SWIDTH 344 0
DWIDTH 5 0
BBX 3 3 1 10
BITMAP
20
40
80
ENDCHAR
STARTCHAR mu
ENCODING 181
SWIDTH 562 0
DWIDTH 8 0
BBX 7 12 1 -3
BITMAP
84
84
84
84
84
84
84
84
FA
80
80
80
ENDCHAR
STARTCHAR paragraph
ENCODING 182
SWIDTH 531 0
DWIDTH 8 0
BBX 7 13 1 -1
BITMAP
7E
F4
F4
F4
F4
74
14
14
14
14
14
14
14
ENDCHAR
STARTCHAR periodcentered
ENCODING 183
SWIDTH 281 0
DWIDTH 4 0
BBX 1 1 2 6
BITMAP
80
ENDCHAR
STARTCHAR cedilla
ENCODING 184
SWIDTH 344 0
DWIDTH 5 0
BBX 3 4 1 -4
BITMAP
40
20
20
C0
ENDCHAR
STARTCHAR uni00B9
ENCODING 185
SWIDTH 281 0
DWIDTH 5 0
BBX 2 6 1 6
BITMAP
40
C0
40
40
40
40
ENDCHAR
STARTCHAR ordmasculine
ENCODING 186
SWIDTH 375 0
DWIDTH 6 0
BBX 4 7 1 5
BITMAP
60
90
90
90
60
00
F0
ENDCHAR
STARTCHAR guillemotright
ENCODING 187
SWIDTH 562 0
DWIDTH 9 0
BBX 7 5 1 1
BITMAP
88
44
22
44
88
ENDCHAR
STARTCHAR onequarter
ENCODING 188
SWIDTH 719 0
DWIDTH 12 0
BBX 12 12 0 0
BITMAP
2010
6020
2040
2080
2100
2200
0420
0860
10A0
2120
41E0
8020
ENDCHAR
STARTCHAR onehalf
ENCODING 189
SWIDTH 719 0
DWIDTH 12 0
BBX 12 12 0 0
BITMAP
2010
6020
2040
2080
2100
2200
04C0
0920
1020
2040
4080
81E0
ENDCHAR
STARTCHAR threequarters
ENCODING 190
SWIDTH 719 0
DWIDTH 12 0
BBX 12 12 0 0
BITMAP
3010
4820
1040
0880
4900
3200
0420
0860
10A0
2120
41E0
8020
ENDCHAR
STARTCHAR questiondown
ENCODING 191
SWIDTH 531 0
DWIDTH 9 0
BBX 7 12 1 -3
BITMAP
10
00
00
10
10
20
40
80
80
82
44
38
ENDCHAR
STARTCHAR Agrave
ENCODING 192
SWIDTH 688 0
DWIDTH 11 0
BBX 11 12 0 0
BITMAP
0400
0400
0A00
0A00
1100
1100
2080
2080
7FC0
4040
8020
8020
ENDCHAR
STARTCHAR Aacute
ENCODING 193
SWIDTH 656 0
DWIDTH 11 0
BBX 8 12 2 0
BITMAP
FE
80
80
80
80
FC
82
81
81
81
82
FC
ENDCHAR
STARTCHAR Acircumflex
ENCODING 194
SWIDTH 656 0
DWIDTH 11 0
BBX 8 12 2 0
BITMAP
FC
82
81
81
82
FC
82
81
81
81
82
FC
ENDCHAR
STARTCHAR Atilde
ENCODING 195
SWIDTH 656 0
DWIDTH 11 0
BBX 8 12 2 0
BITMAP
FF
80
80
80
80
80
80
80
80
80
80
80
ENDCHAR
STARTCHAR Adieresis
ENCODING 196
SWIDTH 719 0
DWIDTH 12 0
BBX 10 14 1 -2
BITMAP
1F80
1080
1080
1080
1080
1080
1080
1080
1080
1080
2080
FFC0
8040
8040
ENDCHAR
STARTCHAR Aring
ENCODING 197
SWIDTH 656 0
DWIDTH 11 0
BBX 8 12 2 0
BITMAP
FF
80
80
80
80
FE
80
80
80
80
80
FF
ENDCHAR
STARTCHAR AE
ENCODING 198
SWIDTH 969 0
DWIDTH 15 0
BBX 15 12 0 0
BITMAP
8102
4104
2108
1110
0920
0540
07C0
0920
1110
2108
4104
8102
ENDCHAR
STARTCHAR Ccedilla
ENCODING 199
SWIDTH 594 0
DWIDTH 11 0
BBX 8 12 2 0
BITMAP
7E
81
01
01
01
3E
01
01
01
01
81
7E
ENDCHAR
STARTCHAR Egrave
ENCODING 200
SWIDTH 750 0
DWIDTH 11 0
BBX 7 12 2 0
BITMAP
82
86
86
8A
8A
92
92
A2
A2
C2
C2
82
ENDCHAR
STARTCHAR Eacute
ENCODING 201
SWIDTH 750 0
DWIDTH 11 0
BBX 7 14 2 0
BITMAP
44
38
82
86
86
8A
8A
92
92
A2
A2
C2
C2
82
ENDCHAR
STARTCHAR Ecircumflex
ENCODING 202
SWIDTH 656 0
DWIDTH 10 0
BBX 8 12 2 0
BITMAP
82
84
88
90
A0
C0
A0
90
88
84
82
81
ENDCHAR
STARTCHAR Edieresis
ENCODING 203
SWIDTH 656 0
DWIDTH 10 0
BBX 8 12 1 0
BITMAP
3F
21
21
21
21
21
21
21
21
21
21
C1
ENDCHAR
STARTCHAR Igrave
ENCODING 204
SWIDTH 812 0
DWIDTH 13 0
BBX 9 12 2 0
BITMAP
8080
8080
C180
C180
A280
A280
9480
9480
8880
8880
8080
8080
ENDCHAR
STARTCHAR Iacute
ENCODING 205
SWIDTH 719 0
DWIDTH 12 0
BBX 8 12 2 0
BITMAP
81
81
81
81
81
FF
81
81
81
81
81
81
ENDCHAR
STARTCHAR Icircumflex
ENCODING 206
SWIDTH 781 0
DWIDTH 12 0
BBX 10 12 1 0
BITMAP
1E00
6180
4080
8040
8040
8040
8040
8040
8040
4080
6180
1E00
ENDCHAR
STARTCHAR Idieresis
ENCODING 207
SWIDTH 719 0
DWIDTH 12 0
BBX 8 12 2 0
BITMAP
FF
81
81
81
81
81
81
81
81
81
81
81
ENDCHAR
STARTCHAR Eth
ENCODING 208
SWIDTH 656 0
DWIDTH 10 0
BBX 8 12 2 0
BITMAP
FC
82
81
81
81
82
FC
80
80
80
80
80
ENDCHAR
STARTCHAR Ntilde
ENCODING 209
SWIDTH 719 0
DWIDTH 11 0
BBX 10 12 1 0
BITMAP
1E00
6180
4080
8040
8000
8000
8000
8000
8040
4080
6180
1E00
ENDCHAR
STARTCHAR Ograve
ENCODING 210
SWIDTH 625 0
DWIDTH 9 0
BBX 9 12 0 0
BITMAP
FF80
0800
0800
0800
0800
0800
0800
0800
0800
0800
0800
0800
ENDCHAR
STARTCHAR Oacute
ENCODING 211
SWIDTH 688 0
DWIDTH 11 0
BBX 9 12 1 0
BITMAP
8080
8080
4100
4100
2200
2200
1400
1400
0800
0800
0800
7000
ENDCHAR
STARTCHAR Ocircumflex
ENCODING 212
SWIDTH 844 0
DWIDTH 12 0
BBX 11 12 1 0
BITMAP
1F00
64C0
4440
8420
8420
8420
8420
8420
4440
64C0
1F00
0400
ENDCHAR
STARTCHAR Otilde
ENCODING 213
SWIDTH 656 0
DWIDTH 11 0
BBX 11 12 0 0
BITMAP
8020
4040
2080
1100
0A00
0400
0400
0A00
1100
2080
4040
8020
ENDCHAR
STARTCHAR Odieresis
ENCODING 214
SWIDTH 750 0
DWIDTH 12 0
BBX 9 14 2 -2
BITMAP
8100
8100
8100
8100
8100
8100
8100
8100
8100
8100
8100
FF80
0080
0080
ENDCHAR
STARTCHAR multiply
ENCODING 215
SWIDTH 719 0
DWIDTH 12 0
BBX 8 12 2 0
BITMAP
81
81
81
81
81
7F
01
01
01
01
01
01
ENDCHAR
STARTCHAR Oslash
ENCODING 216
SWIDTH 906 0
DWIDTH 15 0
BBX 13 12 1 0
BITMAP
8208
8208
8208
8208
8208
8208
8208
8208
8208
8208
8208
FFF8
ENDCHAR
STARTCHAR Ugrave
ENCODING 217
SWIDTH 969 0
DWIDTH 16 0
BBX 14 14 1 -2
BITMAP
8208
8208
8208
8208
8208
8208
8208
8208
8208
8208
8208
FFFC
0004
0004
ENDCHAR
STARTCHAR Uacute
ENCODING 218
SWIDTH 750 0
DWIDTH 12 0
BBX 11 12 1 0
BITMAP
E000
2000
2000
2000
2000
3F80
2040
2020
2020
2020
2040
3F80
ENDCHAR
STARTCHAR Ucircumflex
ENCODING 219
SWIDTH 812 0
DWIDTH 14 0
BBX 11 12 2 0
BITMAP
8020
8020
8020
8020
8020
FE20
8120
80A0
80A0
80A0
8120
FE20
ENDCHAR
STARTCHAR Udieresis
ENCODING 220
SWIDTH 719 0
DWIDTH 11 0
BBX 9 12 2 0
BITMAP
8000
8000
8000
8000
8000
FE00
8100
8080
8080
8080
8100
FE00
ENDCHAR
STARTCHAR Yacute
ENCODING 221
SWIDTH 750 0
DWIDTH 12 0
BBX 10 12 1 0
BITMAP
3F00
4080
8040
0040
0040
1FC0
0040
0040
0040
8040
4080
3F00
ENDCHAR
STARTCHAR Thorn
ENCODING 222
SWIDTH 906 0
DWIDTH 13 0
BBX 11 12 1 0
BITMAP
8700
98C0
9040
A020
A020
E020
A020
A020
A020
9040
98C0
8700
ENDCHAR
STARTCHAR germandbls
ENCODING 223
SWIDTH 656 0
DWIDTH 11 0
BBX 8 12 1 0
BITMAP
3F
41
81
81
81
41
3F
09
11
21
41
81
ENDCHAR
STARTCHAR agrave
ENCODING 224
SWIDTH 562 0
DWIDTH 9 0
BBX 8 9 1 0
BITMAP
7C
82
02
02
7E
82
82
82
7D
ENDCHAR
STARTCHAR aacute
ENCODING 225
SWIDTH 562 0
DWIDTH 9 0
BBX 7 12 1 0
BITMAP
02
3C
40
B8
C4
82
82
82
82
82
44
38
ENDCHAR
STARTCHAR acircumflex
ENCODING 226
SWIDTH 562 0
DWIDTH 9 0
BBX 7 9 1 0
BITMAP
FC
82
82
82
FC
82
82
82
FC
ENDCHAR
STARTCHAR atilde
ENCODING 227
SWIDTH 500 0
DWIDTH 9 0
BBX 7 9 1 0
BITMAP
FE
80
80
80
80
80
80
80
80
ENDCHAR
STARTCHAR adieresis
ENCODING 228
SWIDTH 688 0
DWIDTH 10 0
BBX 8 11 1 -2
BITMAP
3E
22
22
22
22
22
22
42
FF
81
81
ENDCHAR
STARTCHAR aring
ENCODING 229
SWIDTH 531 0
DWIDTH 9 0
BBX 7 9 1 0
BITMAP
38
44
82
82
FE
80
82
44
38
ENDCHAR
STARTCHAR ae
ENCODING 230
SWIDTH 781 0
DWIDTH 13 0
BBX 13 9 0 0
BITMAP
4210
2220
1240
0A80
0F80
1240
2220
4210
8208
ENDCHAR
STARTCHAR ccedilla
ENCODING 231
SWIDTH 500 0
DWIDTH 9 0
BBX 7 9 1 0
BITMAP
7C
82
02
02
3C
02
82
82
7C
ENDCHAR
STARTCHAR egrave
ENCODING 232
SWIDTH 562 0
DWIDTH 9 0
BBX 7 9 1 0
BITMAP
82
82
86
8A
92
A2
C2
82
82
ENDCHAR
STARTCHAR eacute
ENCODING 233
SWIDTH 562 0
DWIDTH 9 0
BBX 7 11 1 0
BITMAP
44
38
82
82
86
8A
92
A2
C2
82
82
ENDCHAR
STARTCHAR ecircumflex
ENCODING 234
SWIDTH 500 0
DWIDTH 8 0
BBX 7 9 1 0
BITMAP
84
88
90
A0
E0
90
88
84
82
ENDCHAR
STARTCHAR edieresis
ENCODING 235
SWIDTH 562 0
DWIDTH 9 0
BBX 7 9 1 0
BITMAP
3E
22
22
22
22
22
22
22
C2
ENDCHAR
STARTCHAR igrave
ENCODING 236
SWIDTH 750 0
DWIDTH 11 0
BBX 9 9 1 0
BITMAP
8080
C180
A280
9480
8880
8080
8080
8080
8080
ENDCHAR
STARTCHAR iacute
ENCODING 237
SWIDTH 562 0
DWIDTH 9 0
BBX 7 9 1 0
BITMAP
82
82
82
82
FE
82
82
82
82
ENDCHAR
STARTCHAR icircumflex
ENCODING 238
SWIDTH 562 0
DWIDTH 9 0
BBX 7 9 1 0
BITMAP
38
44
82
82
82
82
82
44
38
ENDCHAR
STARTCHAR idieresis
ENCODING 239
SWIDTH 562 0
DWIDTH 9 0
BBX 7 9 1 0
BITMAP
FE
82
82
82
82
82
82
82
82
ENDCHAR
STARTCHAR eth
ENCODING 240
SWIDTH 562 0
DWIDTH 9 0
BBX 7 13 1 -4
BITMAP
B8
C4
82
82
82
82
82
C4
B8
80
80
80
80
ENDCHAR
STARTCHAR ntilde
ENCODING 241
SWIDTH 500 0
DWIDTH 8 0
BBX 7 9 1 0
BITMAP
38
44
82
80
80
80
82
44
38
ENDCHAR
STARTCHAR ograve
ENCODING 242
SWIDTH 562 0
DWIDTH 9 0
BBX 7 9 1 0
BITMAP
FE
10
10
10
10
10
10
10
10
ENDCHAR
STARTCHAR oacute
ENCODING 243
SWIDTH 469 0
DWIDTH 7 0
BBX 7 13 0 -4
BITMAP
82
82
44
44
28
28
10
10
20
20
40
40
80
ENDCHAR
STARTCHAR ocircumflex
ENCODING 244
SWIDTH 656 0
DWIDTH 9 0
BBX 7 14 1 -4
BITMAP
10
38
54
92
92
92
92
92
54
38
10
10
10
10
ENDCHAR
STARTCHAR otilde
ENCODING 245
SWIDTH 469 0
DWIDTH 7 0
BBX 7 9 0 0
BITMAP
82
44
44
28
10
28
44
44
82
ENDCHAR
STARTCHAR odieresis
ENCODING 246
SWIDTH 594 0
DWIDTH 8 0
BBX 7 11 1 -2
BITMAP
84
84
84
84
84
84
84
84
FE
02
02
ENDCHAR
STARTCHAR divide
ENCODING 247
SWIDTH 562 0
DWIDTH 9 0
BBX 7 9 1 0
BITMAP
82
82
82
82
7E
02
02
02
02
ENDCHAR
STARTCHAR oslash
ENCODING 248
SWIDTH 781 0
DWIDTH 11 0
BBX 9 9 1 0
BITMAP
8880
8880
8880
8880
8880
8880
8880
8880
FF80
ENDCHAR
STARTCHAR ugrave
ENCODING 249
SWIDTH 812 0
DWIDTH 11 0
BBX 10 11 1 -2
BITMAP
8880
8880
8880
8880
8880
8880
8880
8880
FFC0
0040
0040
ENDCHAR
STARTCHAR uacute
ENCODING 250
SWIDTH 625 0
DWIDTH 10 0
BBX 9 9 0 0
BITMAP
E000
2000
2000
3F00
2080
2080
2080
2080
3F00
ENDCHAR
STARTCHAR ucircumflex
ENCODING 251
SWIDTH 719 0
DWIDTH 11 0
BBX 9 9 1 0
BITMAP
8080
8080
8080
FC80
8280
8280
8280
8280
FC80
ENDCHAR
STARTCHAR udieresis
ENCODING 252
SWIDTH 562 0
DWIDTH 9 0
BBX 7 9 1 0
BITMAP
80
80
80
FC
82
82
82
82
FC
ENDCHAR
STARTCHAR yacute
ENCODING 253
SWIDTH 531 0
DWIDTH 9 0
BBX 7 9 1 0
BITMAP
78
84
02
02
3E
02
02
84
78
ENDCHAR
STARTCHAR thorn
ENCODING 254
SWIDTH 719 0
DWIDTH 11 0
BBX 9 9 1 0
BITMAP
8E00
9100
A080
A080
E080
A080
A080
9100
8E00
ENDCHAR
STARTCHAR ydieresis
ENCODING 255
SWIDTH 531 0
DWIDTH 9 0
BBX 7 9 1 0
BITMAP
7E
82
82
82
7E
12
22
42
82
ENDCHAR
ENDFONT
