STARTFONT 2.1
FONT -FontForge-Times Cyrillic-Normal-R-Normal--24-170-100-100-P-119-WinRoman-0
SIZE 17 100 100
FONTBOUNDINGBOX 23 26 0 -6
COMMENT "Generated by fontforge, http://fontforge.sourceforge.net"
COMMENT "Copyright (C) Steepler Ltd., 1990-92."
STARTPROPERTIES 34
FOUNDRY "FontForge"
FAMILY_NAME "Times Cyrillic"
WEIGHT_NAME "Normal"
SLANT "R"
SETWIDTH_NAME "Normal"
ADD_STYLE_NAME ""
PIXEL_SIZE 24
POINT_SIZE 170
RESOLUTION_X 100
RESOLUTION_Y 100
SPACING "P"
AVERAGE_WIDTH 119
CHARSET_REGISTRY "WinRoman"
CHARSET_ENCODING "0"
FONTNAME_REGISTRY ""
CHARSET_COLLECTIONS "WinRoman"
FONT_NAME "TimesCyrillic"
FACE_NAME "Times Cyrillic"
COPYRIGHT "Copyright (C) Steepler Ltd., 1990-92."
FONT_VERSION "001.000"
FONT_ASCENT 19
FONT_DESCENT 5
UNDERLINE_POSITION -2
UNDERLINE_THICKNESS 2
X_HEIGHT 10
CAP_HEIGHT 15
RAW_ASCENT 800
RAW_DESCENT 200
NORM_SPACE 6
RELATIVE_WEIGHT 40
RELATIVE_SETWIDTH 50
FIGURE_WIDTH 12
AVG_LOWERCASE_WIDTH 112
AVG_UPPERCASE_WIDTH 157
ENDPROPERTIES
CHARS 224
STARTCHAR space
ENCODING 32
SWIDTH 250 0
DWIDTH 6 0
BBX 1 1 5 -6
BITMAP
00
ENDCHAR
STARTCHAR exclam
ENCODING 33
SWIDTH 281 0
DWIDTH 7 0
BBX 3 17 2 0
BITMAP
40
E0
E0
E0
E0
E0
E0
E0
40
40
40
40
00
40
E0
E0
40
ENDCHAR
STARTCHAR quotedbl
ENCODING 34
SWIDTH 375 0
DWIDTH 10 0
BBX 8 6 1 11
BITMAP
42
E7
E7
42
42
42
ENDCHAR
STARTCHAR numbersign
ENCODING 35
SWIDTH 500 0
DWIDTH 12 0
BBX 12 17 0 0
BITMAP
18C0
18C0
18C0
18C0
18C0
7FF0
3180
3180
3180
3180
3180
FFE0
6300
6300
6300
6300
6300
ENDCHAR
STARTCHAR dollar
ENCODING 36
SWIDTH 500 0
DWIDTH 12 0
BBX 10 21 1 -3
BITMAP
0400
0400
1F40
35C0
64C0
6440
6440
7400
3C00
1F00
0780
0580
05C0
84C0
84C0
C4C0
E580
BF00
0400
0400
0400
ENDCHAR
STARTCHAR percent
ENCODING 37
SWIDTH 875 0
DWIDTH 20 0
BBX 18 17 1 0
BITMAP
1E0600
33FE00
611C00
C11800
C11800
C23000
C46000
786000
00C000
018780
018CC0
031840
063040
063040
0C3080
183100
181E00
ENDCHAR
STARTCHAR ampersand
ENCODING 38
SWIDTH 781 0
DWIDTH 19 0
BBX 17 17 1 0
BITMAP
038000
06C000
0C6000
0C2000
0C6000
06C000
078000
0F1F00
3B8E00
618400
60CC00
C0E800
C07800
C03800
607C80
79CF80
1F0700
ENDCHAR
STARTCHAR quotesingle
ENCODING 39
SWIDTH 281 0
DWIDTH 6 0
BBX 3 6 2 11
BITMAP
40
E0
E0
40
40
40
ENDCHAR
STARTCHAR parenleft
ENCODING 40
SWIDTH 344 0
DWIDTH 8 0
BBX 6 22 1 -5
BITMAP
04
08
10
30
20
60
60
C0
C0
C0
C0
C0
C0
C0
C0
60
60
20
30
10
08
04
ENDCHAR
STARTCHAR parenright
ENCODING 41
SWIDTH 344 0
DWIDTH 8 0
BBX 6 22 1 -5
BITMAP
80
40
20
30
10
18
18
0C
0C
0C
0C
0C
0C
0C
0C
0C
18
18
10
30
20
40
ENDCHAR
STARTCHAR asterisk
ENCODING 42
SWIDTH 500 0
DWIDTH 8 0
BBX 7 9 1 9
BITMAP
10
38
D6
FE
38
FE
D6
38
10
ENDCHAR
STARTCHAR plus
ENCODING 43
SWIDTH 562 0
DWIDTH 14 0
BBX 10 10 2 2
BITMAP
0C00
0C00
0C00
0C00
FFC0
FFC0
0C00
0C00
0C00
0C00
ENDCHAR
STARTCHAR comma
ENCODING 44
SWIDTH 250 0
DWIDTH 6 0
BBX 3 7 2 -3
BITMAP
40
E0
E0
60
20
20
40
ENDCHAR
STARTCHAR hyphen
ENCODING 45
SWIDTH 312 0
DWIDTH 8 0
BBX 6 2 1 6
BITMAP
FC
FC
ENDCHAR
STARTCHAR period
ENCODING 46
SWIDTH 250 0
DWIDTH 6 0
BBX 3 4 2 0
BITMAP
40
E0
E0
40
ENDCHAR
STARTCHAR slash
ENCODING 47
SWIDTH 250 0
DWIDTH 7 0
BBX 7 18 0 -1
BITMAP
06
06
06
0C
0C
0C
18
18
18
30
30
30
60
60
60
C0
C0
C0
ENDCHAR
STARTCHAR zero
ENCODING 48
SWIDTH 500 0
DWIDTH 12 0
BBX 10 16 1 0
BITMAP
1E00
3300
6180
6180
C0C0
C0C0
C0C0
C0C0
C0C0
C0C0
C0C0
C0C0
6180
6180
3300
1E00
ENDCHAR
STARTCHAR one
ENCODING 49
SWIDTH 500 0
DWIDTH 12 0
BBX 6 16 3 0
BITMAP
10
30
70
F0
30
30
30
30
30
30
30
30
30
30
78
FC
ENDCHAR
STARTCHAR two
ENCODING 50
SWIDTH 500 0
DWIDTH 12 0
BBX 10 16 1 0
BITMAP
1E00
3F00
6380
4180
0180
0180
0180
0300
0300
0600
0C00
0800
1040
20C0
7F80
FF80
ENDCHAR
STARTCHAR three
ENCODING 51
SWIDTH 500 0
DWIDTH 12 0
BBX 10 16 1 0
BITMAP
1E00
3F00
6380
0180
0180
0300
0F00
0380
0180
00C0
00C0
00C0
01C0
E380
F700
3E00
ENDCHAR
STARTCHAR four
ENCODING 52
SWIDTH 500 0
DWIDTH 12 0
BBX 11 16 1 0
BITMAP
0380
0380
0780
0D80
1980
1180
3180
6180
C180
C180
FFE0
FFE0
0180
0180
0180
0180
ENDCHAR
STARTCHAR five
ENCODING 53
SWIDTH 500 0
DWIDTH 12 0
BBX 10 16 1 0
BITMAP
3F80
3F00
2000
4000
4000
7E00
7F80
0380
01C0
00C0
00C0
00C0
00C0
E180
F380
3E00
ENDCHAR
STARTCHAR six
ENCODING 54
SWIDTH 500 0
DWIDTH 12 0
BBX 10 16 1 0
BITMAP
0300
0C00
1800
3000
6000
6000
EE00
F380
E180
C0C0
C0C0
C0C0
C0C0
6180
7380
1E00
ENDCHAR
STARTCHAR seven
ENCODING 55
SWIDTH 500 0
DWIDTH 12 0
BBX 10 16 1 0
BITMAP
7FC0
7F80
C180
8180
0300
0300
0200
0600
0600
0C00
0C00
0C00
1800
1800
3000
3000
ENDCHAR
STARTCHAR eight
ENCODING 56
SWIDTH 500 0
DWIDTH 12 0
BBX 10 16 1 0
BITMAP
3E00
6300
C180
C180
E180
7180
3B00
3F00
6F80
4380
C1C0
C0C0
C0C0
6180
7380
1E00
ENDCHAR
STARTCHAR nine
ENCODING 57
SWIDTH 500 0
DWIDTH 12 0
BBX 10 16 1 0
BITMAP
1E00
7380
6180
C0C0
C0C0
C0C0
C0C0
61C0
73C0
1DC0
0180
0180
0300
0600
0C00
3000
ENDCHAR
STARTCHAR colon
ENCODING 58
SWIDTH 250 0
DWIDTH 7 0
BBX 3 11 2 0
BITMAP
40
E0
E0
40
00
00
00
40
E0
E0
40
ENDCHAR
STARTCHAR semicolon
ENCODING 59
SWIDTH 250 0
DWIDTH 7 0
BBX 3 14 2 -3
BITMAP
40
E0
E0
40
00
00
00
40
E0
E0
60
20
20
40
ENDCHAR
STARTCHAR less
ENCODING 60
SWIDTH 562 0
DWIDTH 14 0
BBX 11 13 1 1
BITMAP
0060
01C0
0380
0E00
1C00
7000
E000
7000
1C00
0E00
0380
01C0
0060
ENDCHAR
STARTCHAR equal
ENCODING 61
SWIDTH 562 0
DWIDTH 14 0
BBX 12 7 1 4
BITMAP
FFF0
FFF0
0000
0000
0000
FFF0
FFF0
ENDCHAR
STARTCHAR greater
ENCODING 62
SWIDTH 562 0
DWIDTH 14 0
BBX 11 13 2 1
BITMAP
C000
7000
3800
0E00
0700
01C0
00E0
01C0
0700
0E00
3800
7000
C000
ENDCHAR
STARTCHAR question
ENCODING 63
SWIDTH 438 0
DWIDTH 11 0
BBX 9 17 1 0
BITMAP
3E00
6700
C380
E380
E380
4300
0300
0600
0C00
0800
0800
0800
0000
0800
1C00
1C00
0800
ENDCHAR
STARTCHAR at
ENCODING 64
SWIDTH 906 0
DWIDTH 23 0
BBX 21 17 1 -3
BITMAP
01FC00
070700
1C01C0
300060
60F830
618E30
C30618
C60618
C60C18
C60C30
C31E70
61F7C0
600000
300000
1C0000
070600
01F800
ENDCHAR
STARTCHAR A
ENCODING 65
SWIDTH 688 0
DWIDTH 17 0
BBX 16 16 1 0
BITMAP
0180
0180
03C0
02C0
0660
0460
0460
0C30
0830
0830
1FF8
1018
300C
200C
200C
F83F
ENDCHAR
STARTCHAR B
ENCODING 66
SWIDTH 656 0
DWIDTH 16 0
BBX 14 16 1 0
BITMAP
FFE0
3030
3018
3018
3018
3018
3030
3FF0
3038
3018
300C
300C
300C
3018
3038
FFE0
ENDCHAR
STARTCHAR C
ENCODING 67
SWIDTH 656 0
DWIDTH 15 0
BBX 13 16 1 0
BITMAP
07C8
1C78
3018
6008
6008
C000
C000
C000
C000
C000
C000
6000
6008
3010
1C60
0780
ENDCHAR
STARTCHAR D
ENCODING 68
SWIDTH 688 0
DWIDTH 17 0
BBX 15 16 1 0
BITMAP
FFC0
3070
3018
300C
300C
3006
3006
3006
3006
3006
3006
300C
300C
3018
3070
FFC0
ENDCHAR
STARTCHAR E
ENCODING 69
SWIDTH 625 0
DWIDTH 14 0
BBX 12 16 1 0
BITMAP
FFE0
3060
3020
3000
3000
3080
3080
3F80
3080
3080
3000
3000
3000
3010
3030
FFE0
ENDCHAR
STARTCHAR F
ENCODING 70
SWIDTH 562 0
DWIDTH 13 0
BBX 11 16 1 0
BITMAP
FFE0
3060
3020
3000
3000
3080
3080
3F80
3080
3080
3000
3000
3000
3000
3000
FC00
ENDCHAR
STARTCHAR G
ENCODING 71
SWIDTH 719 0
DWIDTH 17 0
BBX 16 16 1 0
BITMAP
07C8
1C38
3018
6008
6008
C000
C000
C000
C03F
C00C
C00C
600C
600C
3008
1C30
07C0
ENDCHAR
STARTCHAR H
ENCODING 72
SWIDTH 719 0
DWIDTH 17 0
BBX 15 16 1 0
BITMAP
FC7E
3018
3018
3018
3018
3018
3018
3FF8
3018
3018
3018
3018
3018
3018
3018
FC7E
ENDCHAR
STARTCHAR I
ENCODING 73
SWIDTH 344 0
DWIDTH 8 0
BBX 6 16 1 0
BITMAP
FC
30
30
30
30
30
30
30
30
30
30
30
30
30
30
FC
ENDCHAR
STARTCHAR J
ENCODING 74
SWIDTH 406 0
DWIDTH 10 0
BBX 8 16 1 0
BITMAP
3F
0C
0C
0C
0C
0C
0C
0C
0C
0C
0C
0C
0C
CC
CC
78
ENDCHAR
STARTCHAR K
ENCODING 75
SWIDTH 688 0
DWIDTH 17 0
BBX 16 16 1 0
BITMAP
FC7C
3030
3060
30C0
3180
3300
3700
3F00
3980
30C0
30C0
3060
3030
3030
3018
FC7F
ENDCHAR
STARTCHAR L
ENCODING 76
SWIDTH 625 0
DWIDTH 14 0
BBX 12 16 1 0
BITMAP
FE00
3000
3000
3000
3000
3000
3000
3000
3000
3000
3000
3000
3000
3010
3030
FFE0
ENDCHAR
STARTCHAR M
ENCODING 77
SWIDTH 875 0
DWIDTH 21 0
BBX 19 16 1 0
BITMAP
F803E0
380380
3C0380
2C0780
2C0580
260580
260D80
230980
230980
231980
219180
21B180
20E180
20E180
20E180
F843E0
ENDCHAR
STARTCHAR N
ENCODING 78
SWIDTH 719 0
DWIDTH 17 0
BBX 15 16 1 0
BITMAP
F03E
3008
3808
3C08
2C08
2608
2308
2308
2188
20C8
20C8
2068
2038
2038
2018
F808
ENDCHAR
STARTCHAR O
ENCODING 79
SWIDTH 656 0
DWIDTH 17 0
BBX 15 16 1 0
BITMAP
07C0
1C70
3018
600C
600C
C006
C006
C006
C006
C006
C006
600C
600C
3018
1C70
07C0
ENDCHAR
STARTCHAR P
ENCODING 80
SWIDTH 594 0
DWIDTH 14 0
BBX 12 16 1 0
BITMAP
FF80
30E0
3060
3030
3030
3030
3060
30E0
3F80
3000
3000
3000
3000
3000
3000
FC00
ENDCHAR
STARTCHAR Q
ENCODING 81
SWIDTH 656 0
DWIDTH 17 0
BBX 15 19 1 -3
BITMAP
07C0
1C70
3018
600C
600C
C006
C006
C006
C006
C006
C006
600C
600C
3018
1C70
07C0
03C0
01E0
007C
ENDCHAR
STARTCHAR R
ENCODING 82
SWIDTH 656 0
DWIDTH 16 0
BBX 15 16 1 0
BITMAP
FFC0
3070
3030
3018
3018
3018
3030
3070
3FC0
30C0
30E0
3060
3070
3030
3038
FC1E
ENDCHAR
STARTCHAR S
ENCODING 83
SWIDTH 500 0
DWIDTH 13 0
BBX 11 16 1 0
BITMAP
3F40
61C0
C0C0
C040
E040
7000
7C00
1F00
07C0
01C0
00E0
8060
8060
C0C0
E1C0
BF00
ENDCHAR
STARTCHAR T
ENCODING 84
SWIDTH 656 0
DWIDTH 16 0
BBX 14 16 1 0
BITMAP
FFFC
C30C
8304
8304
0300
0300
0300
0300
0300
0300
0300
0300
0300
0300
0300
0FC0
ENDCHAR
STARTCHAR U
ENCODING 85
SWIDTH 719 0
DWIDTH 17 0
BBX 15 16 1 0
BITMAP
FC3E
3008
3008
3008
3008
3008
3008
3008
3008
3008
3008
3008
3008
1810
1C30
07C0
ENDCHAR
STARTCHAR V
ENCODING 86
SWIDTH 688 0
DWIDTH 17 0
BBX 17 16 0 0
BITMAP
FC1F80
600E00
300400
300400
180800
180800
0C1000
0C1000
061000
062000
032000
034000
01C000
01C000
008000
008000
ENDCHAR
STARTCHAR W
ENCODING 87
SWIDTH 1031 0
DWIDTH 22 0
BBX 22 16 0 0
BITMAP
F9FDFC
707070
303020
303020
303020
185840
185840
185840
0C8C80
0C8C80
0C8C80
070700
070700
030700
020200
020200
ENDCHAR
STARTCHAR X
ENCODING 88
SWIDTH 719 0
DWIDTH 18 0
BBX 16 16 1 0
BITMAP
FE3E
3808
1810
0C10
0620
0340
0180
01C0
01C0
0260
0430
0430
0818
100C
380C
FE3F
ENDCHAR
STARTCHAR Y
ENCODING 89
SWIDTH 688 0
DWIDTH 18 0
BBX 18 16 0 0
BITMAP
FE0FC0
380300
1C0600
0C0400
0E0C00
071800
031000
03B000
01E000
00C000
00C000
00C000
00C000
00C000
00C000
03F000
ENDCHAR
STARTCHAR Z
ENCODING 90
SWIDTH 656 0
DWIDTH 15 0
BBX 13 16 1 0
BITMAP
7FF8
6070
4060
00E0
01C0
0180
0380
0700
0600
0E00
1C00
1800
3800
7008
6018
FFF8
ENDCHAR
STARTCHAR bracketleft
ENCODING 91
SWIDTH 344 0
DWIDTH 8 0
BBX 5 22 2 -5
BITMAP
F8
E0
C0
C0
C0
C0
C0
C0
C0
C0
C0
C0
C0
C0
C0
C0
C0
C0
C0
C0
E0
F8
ENDCHAR
STARTCHAR backslash
ENCODING 92
SWIDTH 250 0
DWIDTH 7 0
BBX 7 17 0 0
BITMAP
C0
C0
C0
60
60
60
30
30
30
18
18
18
0C
0C
0C
06
06
ENDCHAR
STARTCHAR bracketright
ENCODING 93
SWIDTH 344 0
DWIDTH 8 0
BBX 5 22 1 -5
BITMAP
F8
38
18
18
18
18
18
18
18
18
18
18
18
18
18
18
18
18
18
18
38
F8
ENDCHAR
STARTCHAR asciicircum
ENCODING 94
SWIDTH 500 0
DWIDTH 11 0
BBX 9 5 1 12
BITMAP
0800
1C00
3E00
6300
C180
ENDCHAR
STARTCHAR underscore
ENCODING 95
SWIDTH 500 0
DWIDTH 12 0
BBX 12 2 0 -4
BITMAP
FFF0
FFF0
ENDCHAR
STARTCHAR grave
ENCODING 96
SWIDTH 344 0
DWIDTH 8 0
BBX 4 3 2 14
BITMAP
C0
60
10
ENDCHAR
STARTCHAR a
ENCODING 97
SWIDTH 438 0
DWIDTH 11 0
BBX 10 11 1 0
BITMAP
3E00
6300
6300
0300
0F00
3B00
6300
C300
C740
EFC0
7980
ENDCHAR
STARTCHAR b
ENCODING 98
SWIDTH 531 0
DWIDTH 11 0
BBX 10 17 1 0
BITMAP
2000
E000
6000
6000
6000
6000
6F00
7180
60C0
60C0
60C0
60C0
60C0
60C0
60C0
3180
1E00
ENDCHAR
STARTCHAR c
ENCODING 99
SWIDTH 438 0
DWIDTH 10 0
BBX 9 11 1 0
BITMAP
1F00
6180
4180
C000
C000
C000
C000
C000
6080
3180
1F00
ENDCHAR
STARTCHAR d
ENCODING 100
SWIDTH 531 0
DWIDTH 11 0
BBX 10 17 1 0
BITMAP
0080
0380
0180
0180
0180
0180
3D80
6380
C180
C180
C180
C180
C180
C180
C180
63C0
3D00
ENDCHAR
STARTCHAR e
ENCODING 101
SWIDTH 438 0
DWIDTH 10 0
BBX 9 11 1 0
BITMAP
3E00
6300
C180
C180
FF80
C000
C000
C000
6180
7300
1E00
ENDCHAR
STARTCHAR f
ENCODING 102
SWIDTH 375 0
DWIDTH 7 0
BBX 6 17 1 0
BITMAP
38
6C
6C
60
60
60
F8
60
60
60
60
60
60
60
60
60
F8
ENDCHAR
STARTCHAR g
ENCODING 103
SWIDTH 469 0
DWIDTH 12 0
BBX 12 17 0 -6
BITMAP
1E00
3380
61E0
6180
6180
6180
3300
3E00
6000
7000
3F80
10E0
6070
C030
C030
E060
7F00
ENDCHAR
STARTCHAR h
ENCODING 104
SWIDTH 531 0
DWIDTH 11 0
BBX 10 17 1 0
BITMAP
2000
E000
6000
6000
6000
6000
6700
6B80
7180
6180
6180
6180
6180
6180
6180
6180
F3C0
ENDCHAR
STARTCHAR i
ENCODING 105
SWIDTH 281 0
DWIDTH 5 0
BBX 4 17 1 0
BITMAP
60
60
00
00
00
00
20
E0
60
60
60
60
60
60
60
60
F0
ENDCHAR
STARTCHAR j
ENCODING 106
SWIDTH 281 0
DWIDTH 5 0
BBX 5 22 0 -5
BITMAP
30
30
00
00
00
00
08
38
18
18
18
18
18
18
18
18
18
18
18
D8
D8
70
ENDCHAR
STARTCHAR k
ENCODING 107
SWIDTH 500 0
DWIDTH 12 0
BBX 11 17 1 0
BITMAP
2000
E000
6000
6000
6000
6000
6780
6200
6400
6800
7800
7800
6C00
6600
6300
6180
F3E0
ENDCHAR
STARTCHAR l
ENCODING 108
SWIDTH 281 0
DWIDTH 5 0
BBX 4 17 1 0
BITMAP
20
E0
60
60
60
60
60
60
60
60
60
60
60
60
60
60
F0
ENDCHAR
STARTCHAR m
ENCODING 109
SWIDTH 750 0
DWIDTH 17 0
BBX 16 11 1 0
BITMAP
271C
EBAE
71C6
6186
6186
6186
6186
6186
6186
6186
F3CF
ENDCHAR
STARTCHAR n
ENCODING 110
SWIDTH 500 0
DWIDTH 11 0
BBX 10 11 1 0
BITMAP
2700
EB80
7180
6180
6180
6180
6180
6180
6180
6180
F3C0
ENDCHAR
STARTCHAR o
ENCODING 111
SWIDTH 500 0
DWIDTH 11 0
BBX 10 11 1 0
BITMAP
0E00
3300
6180
C0C0
C0C0
C0C0
C0C0
C0C0
6180
3300
1C00
ENDCHAR
STARTCHAR p
ENCODING 112
SWIDTH 531 0
DWIDTH 11 0
BBX 10 16 1 -5
BITMAP
3F00
F180
60C0
60C0
60C0
60C0
60C0
60C0
60C0
7180
6E00
6000
6000
6000
6000
F000
ENDCHAR
STARTCHAR q
ENCODING 113
SWIDTH 500 0
DWIDTH 11 0
BBX 10 16 1 -5
BITMAP
3E80
6380
C180
C180
C180
C180
C180
C180
C180
6380
3D80
0180
0180
0180
0180
03C0
ENDCHAR
STARTCHAR r
ENCODING 114
SWIDTH 406 0
DWIDTH 8 0
BBX 7 11 1 0
BITMAP
2E
F6
60
60
60
60
60
60
60
60
F0
ENDCHAR
STARTCHAR s
ENCODING 115
SWIDTH 406 0
DWIDTH 9 0
BBX 8 11 1 0
BITMAP
3E
66
C2
E0
78
1E
07
83
C3
E6
9C
ENDCHAR
STARTCHAR t
ENCODING 116
SWIDTH 281 0
DWIDTH 6 0
BBX 5 15 1 0
BITMAP
20
20
60
60
F8
60
60
60
60
60
60
60
60
68
30
ENDCHAR
STARTCHAR u
ENCODING 117
SWIDTH 500 0
DWIDTH 11 0
BBX 10 11 1 0
BITMAP
E380
6180
6180
6180
6180
6180
6180
6180
6380
35C0
1900
ENDCHAR
STARTCHAR v
ENCODING 118
SWIDTH 562 0
DWIDTH 11 0
BBX 11 11 0 0
BITMAP
F0E0
6040
6040
3080
3080
1900
1900
0E00
0E00
0400
0400
ENDCHAR
STARTCHAR w
ENCODING 119
SWIDTH 812 0
DWIDTH 17 0
BBX 17 11 0 0
BITMAP
F3C380
618100
618100
30C200
30C200
196400
196400
0E3800
0E3800
041000
041000
ENDCHAR
STARTCHAR x
ENCODING 120
SWIDTH 500 0
DWIDTH 12 0
BBX 10 11 1 0
BITMAP
F3C0
6100
3200
3A00
1C00
0C00
0E00
1600
2300
6180
F3C0
ENDCHAR
STARTCHAR y
ENCODING 121
SWIDTH 562 0
DWIDTH 13 0
BBX 11 16 1 -5
BITMAP
F0E0
6040
6040
3080
3080
1900
1900
0E00
0E00
0400
0400
0800
0800
1000
D000
E000
ENDCHAR
STARTCHAR z
ENCODING 122
SWIDTH 469 0
DWIDTH 11 0
BBX 9 11 1 0
BITMAP
7F80
4300
4600
0600
0C00
1800
1800
3000
6080
6080
FF80
ENDCHAR
STARTCHAR braceleft
ENCODING 123
SWIDTH 406 0
DWIDTH 10 0
BBX 5 22 3 -5
BITMAP
08
30
60
60
60
60
60
60
60
60
60
C0
60
60
60
60
60
60
60
60
20
10
ENDCHAR
STARTCHAR bar
ENCODING 124
SWIDTH 281 0
DWIDTH 6 0
BBX 2 17 2 0
BITMAP
C0
C0
C0
C0
C0
C0
C0
C0
C0
C0
C0
C0
C0
C0
C0
C0
C0
ENDCHAR
STARTCHAR braceright
ENCODING 125
SWIDTH 406 0
DWIDTH 10 0
BBX 4 22 3 -5
BITMAP
80
40
60
60
60
60
60
60
60
60
60
30
60
60
60
60
60
60
60
60
40
80
ENDCHAR
STARTCHAR asciitilde
ENCODING 126
SWIDTH 500 0
DWIDTH 12 0
BBX 10 4 1 13
BITMAP
3840
7CC0
CF80
8700
ENDCHAR
STARTCHAR uni007F
ENCODING 127
SWIDTH 344 0
DWIDTH 8 0
BBX 4 17 2 0
BITMAP
F0
F0
F0
F0
F0
F0
F0
F0
F0
F0
F0
F0
F0
F0
F0
F0
F0
ENDCHAR
STARTCHAR Euro
ENCODING 128
SWIDTH 344 0
DWIDTH 8 0
BBX 4 17 2 0
BITMAP
F0
F0
F0
F0
F0
F0
F0
F0
F0
F0
F0
F0
F0
F0
F0
F0
F0
ENDCHAR
STARTCHAR NameMe.129
ENCODING 129
SWIDTH 344 0
DWIDTH 8 0
BBX 4 17 2 0
BITMAP
F0
F0
F0
F0
F0
F0
F0
F0
F0
F0
F0
F0
F0
F0
F0
F0
F0
ENDCHAR
STARTCHAR quotesinglbase
ENCODING 130
SWIDTH 344 0
DWIDTH 8 0
BBX 4 17 2 0
BITMAP
F0
F0
F0
F0
F0
F0
F0
F0
F0
F0
F0
F0
F0
F0
F0
F0
F0
ENDCHAR
STARTCHAR florin
ENCODING 131
SWIDTH 344 0
DWIDTH 8 0
BBX 4 17 2 0
BITMAP
F0
F0
F0
F0
F0
F0
F0
F0
F0
F0
F0
F0
F0
F0
F0
F0
F0
ENDCHAR
STARTCHAR quotedblbase
ENCODING 132
SWIDTH 344 0
DWIDTH 8 0
BBX 4 17 2 0
BITMAP
F0
F0
F0
F0
F0
F0
F0
F0
F0
F0
F0
F0
F0
F0
F0
F0
F0
ENDCHAR
STARTCHAR ellipsis
ENCODING 133
SWIDTH 344 0
DWIDTH 8 0
BBX 4 17 2 0
BITMAP
F0
F0
F0
F0
F0
F0
F0
F0
F0
F0
F0
F0
F0
F0
F0
F0
F0
ENDCHAR
STARTCHAR dagger
ENCODING 134
SWIDTH 344 0
DWIDTH 8 0
BBX 4 17 2 0
BITMAP
F0
F0
F0
F0
F0
F0
F0
F0
F0
F0
F0
F0
F0
F0
F0
F0
F0
ENDCHAR
STARTCHAR daggerdbl
ENCODING 135
SWIDTH 344 0
DWIDTH 8 0
BBX 4 17 2 0
BITMAP
F0
F0
F0
F0
F0
F0
F0
F0
F0
F0
F0
F0
F0
F0
F0
F0
F0
ENDCHAR
STARTCHAR circumflex
ENCODING 136
SWIDTH 344 0
DWIDTH 8 0
BBX 4 17 2 0
BITMAP
F0
F0
F0
F0
F0
F0
F0
F0
F0
F0
F0
F0
F0
F0
F0
F0
F0
ENDCHAR
STARTCHAR perthousand
ENCODING 137
SWIDTH 344 0
DWIDTH 8 0
BBX 4 17 2 0
BITMAP
F0
F0
F0
F0
F0
F0
F0
F0
F0
F0
F0
F0
F0
F0
F0
F0
F0
ENDCHAR
STARTCHAR Scaron
ENCODING 138
SWIDTH 344 0
DWIDTH 8 0
BBX 4 17 2 0
BITMAP
F0
F0
F0
F0
F0
F0
F0
F0
F0
F0
F0
F0
F0
F0
F0
F0
F0
ENDCHAR
STARTCHAR guilsinglleft
ENCODING 139
SWIDTH 344 0
DWIDTH 8 0
BBX 4 17 2 0
BITMAP
F0
F0
F0
F0
F0
F0
F0
F0
F0
F0
F0
F0
F0
F0
F0
F0
F0
ENDCHAR
STARTCHAR OE
ENCODING 140
SWIDTH 344 0
DWIDTH 8 0
BBX 4 17 2 0
BITMAP
F0
F0
F0
F0
F0
F0
F0
F0
F0
F0
F0
F0
F0
F0
F0
F0
F0
ENDCHAR
STARTCHAR NameMe.141
ENCODING 141
SWIDTH 344 0
DWIDTH 8 0
BBX 4 17 2 0
BITMAP
F0
F0
F0
F0
F0
F0
F0
F0
F0
F0
F0
F0
F0
F0
F0
F0
F0
ENDCHAR
STARTCHAR Zcaron
ENCODING 142
SWIDTH 344 0
DWIDTH 8 0
BBX 4 17 2 0
BITMAP
F0
F0
F0
F0
F0
F0
F0
F0
F0
F0
F0
F0
F0
F0
F0
F0
F0
ENDCHAR
STARTCHAR NameMe.143
ENCODING 143
SWIDTH 344 0
DWIDTH 8 0
BBX 4 17 2 0
BITMAP
F0
F0
F0
F0
F0
F0
F0
F0
F0
F0
F0
F0
F0
F0
F0
F0
F0
ENDCHAR
STARTCHAR NameMe.144
ENCODING 144
SWIDTH 344 0
DWIDTH 8 0
BBX 4 17 2 0
BITMAP
F0
F0
F0
F0
F0
F0
F0
F0
F0
F0
F0
F0
F0
F0
F0
F0
F0
ENDCHAR
STARTCHAR quoteleft
ENCODING 145
SWIDTH 250 0
DWIDTH 6 0
BBX 3 6 1 11
BITMAP
40
80
C0
E0
E0
40
ENDCHAR
STARTCHAR quoteright
ENCODING 146
SWIDTH 250 0
DWIDTH 6 0
BBX 3 6 2 11
BITMAP
40
E0
E0
60
20
40
ENDCHAR
STARTCHAR quotedblleft
ENCODING 147
SWIDTH 344 0
DWIDTH 8 0
BBX 4 17 2 0
BITMAP
F0
F0
F0
F0
F0
F0
F0
F0
F0
F0
F0
F0
F0
F0
F0
F0
F0
ENDCHAR
STARTCHAR quotedblright
ENCODING 148
SWIDTH 344 0
DWIDTH 8 0
BBX 4 17 2 0
BITMAP
F0
F0
F0
F0
F0
F0
F0
F0
F0
F0
F0
F0
F0
F0
F0
F0
F0
ENDCHAR
STARTCHAR bullet
ENCODING 149
SWIDTH 344 0
DWIDTH 8 0
BBX 4 17 2 0
BITMAP
F0
F0
F0
F0
F0
F0
F0
F0
F0
F0
F0
F0
F0
F0
F0
F0
F0
ENDCHAR
STARTCHAR endash
ENCODING 150
SWIDTH 344 0
DWIDTH 8 0
BBX 4 17 2 0
BITMAP
F0
F0
F0
F0
F0
F0
F0
F0
F0
F0
F0
F0
F0
F0
F0
F0
F0
ENDCHAR
STARTCHAR emdash
ENCODING 151
SWIDTH 344 0
DWIDTH 8 0
BBX 4 17 2 0
BITMAP
F0
F0
F0
F0
F0
F0
F0
F0
F0
F0
F0
F0
F0
F0
F0
F0
F0
ENDCHAR
STARTCHAR tilde
ENCODING 152
SWIDTH 344 0
DWIDTH 8 0
BBX 4 17 2 0
BITMAP
F0
F0
F0
F0
F0
F0
F0
F0
F0
F0
F0
F0
F0
F0
F0
F0
F0
ENDCHAR
STARTCHAR trademark
ENCODING 153
SWIDTH 344 0
DWIDTH 8 0
BBX 4 17 2 0
BITMAP
F0
F0
F0
F0
F0
F0
F0
F0
F0
F0
F0
F0
F0
F0
F0
F0
F0
ENDCHAR
STARTCHAR scaron
ENCODING 154
SWIDTH 344 0
DWIDTH 8 0
BBX 4 17 2 0
BITMAP
F0
F0
F0
F0
F0
F0
F0
F0
F0
F0
F0
F0
F0
F0
F0
F0
F0
ENDCHAR
STARTCHAR guilsinglright
ENCODING 155
SWIDTH 344 0
DWIDTH 8 0
BBX 4 17 2 0
BITMAP
F0
F0
F0
F0
F0
F0
F0
F0
F0
F0
F0
F0
F0
F0
F0
F0
F0
ENDCHAR
STARTCHAR oe
ENCODING 156
SWIDTH 344 0
DWIDTH 8 0
BBX 4 17 2 0
BITMAP
F0
F0
F0
F0
F0
F0
F0
F0
F0
F0
F0
F0
F0
F0
F0
F0
F0
ENDCHAR
STARTCHAR NameMe.157
ENCODING 157
SWIDTH 344 0
DWIDTH 8 0
BBX 4 17 2 0
BITMAP
F0
F0
F0
F0
F0
F0
F0
F0
F0
F0
F0
F0
F0
F0
F0
F0
F0
ENDCHAR
STARTCHAR zcaron
ENCODING 158
SWIDTH 344 0
DWIDTH 8 0
BBX 4 17 2 0
BITMAP
F0
F0
F0
F0
F0
F0
F0
F0
F0
F0
F0
F0
F0
F0
F0
F0
F0
ENDCHAR
STARTCHAR Ydieresis
ENCODING 159
SWIDTH 344 0
DWIDTH 8 0
BBX 4 17 2 0
BITMAP
F0
F0
F0
F0
F0
F0
F0
F0
F0
F0
F0
F0
F0
F0
F0
F0
F0
ENDCHAR
STARTCHAR uni00A0
ENCODING 160
SWIDTH 250 0
DWIDTH 6 0
BBX 1 1 5 -6
BITMAP
00
ENDCHAR
STARTCHAR exclamdown
ENCODING 161
SWIDTH 625 0
DWIDTH 15 0
BBX 13 20 1 0
BITMAP
30C0
79E0
30C0
0000
FFF0
3030
3010
3000
3000
3040
3040
3FC0
3040
3040
3000
3000
3000
3008
3018
FFF0
ENDCHAR
STARTCHAR cent
ENCODING 162
SWIDTH 500 0
DWIDTH 12 0
BBX 9 16 2 -2
BITMAP
0080
0080
0100
1F00
6380
4580
C400
C800
C800
D000
D000
6080
7180
7F00
8000
8000
ENDCHAR
STARTCHAR sterling
ENCODING 163
SWIDTH 500 0
DWIDTH 12 0
BBX 12 17 0 0
BITMAP
0F80
18C0
30E0
3040
3000
3000
1800
7F00
1800
1800
1800
1800
3800
7800
9E10
BF30
61E0
ENDCHAR
STARTCHAR currency
ENCODING 164
SWIDTH 500 0
DWIDTH 12 0
BBX 10 10 1 6
BITMAP
DEC0
FFC0
6180
C0C0
C0C0
C0C0
C0C0
6180
FFC0
DEC0
ENDCHAR
STARTCHAR yen
ENCODING 165
SWIDTH 531 0
DWIDTH 12 0
BBX 12 17 0 0
BITMAP
F070
6020
6020
3040
3040
1880
1880
FDF0
0F00
0E00
FFF0
0600
0600
0600
0600
0600
1F80
ENDCHAR
STARTCHAR brokenbar
ENCODING 166
SWIDTH 281 0
DWIDTH 6 0
BBX 2 17 2 0
BITMAP
C0
C0
C0
C0
C0
C0
C0
00
00
00
C0
C0
C0
C0
C0
C0
C0
ENDCHAR
STARTCHAR section
ENCODING 167
SWIDTH 500 0
DWIDTH 12 0
BBX 9 20 2 -3
BITMAP
1E00
3300
6300
6000
3000
1800
3C00
4E00
C700
C380
E180
7180
3900
1E00
0C00
0600
0300
6300
6600
3C00
ENDCHAR
STARTCHAR dieresis
ENCODING 168
SWIDTH 344 0
DWIDTH 8 0
BBX 6 2 1 15
BITMAP
CC
CC
ENDCHAR
STARTCHAR copyright
ENCODING 169
SWIDTH 750 0
DWIDTH 18 0
BBX 16 16 1 1
BITMAP
07E0
1C38
300C
6006
63E6
C663
CC23
CC03
CC03
CC23
C643
6386
6006
300C
1C38
07E0
ENDCHAR
STARTCHAR ordfeminine
ENCODING 170
SWIDTH 281 0
DWIDTH 8 0
BBX 7 10 1 7
BITMAP
78
CC
0C
1C
6C
CC
DE
66
00
FE
ENDCHAR
STARTCHAR guillemotleft
ENCODING 171
SWIDTH 500 0
DWIDTH 12 0
BBX 10 10 1 2
BITMAP
0CC0
1980
3300
6600
CC00
CC00
6600
3300
1980
0CC0
ENDCHAR
STARTCHAR logicalnot
ENCODING 172
SWIDTH 562 0
DWIDTH 14 0
BBX 12 4 1 6
BITMAP
FFF0
FFF0
0030
0030
ENDCHAR
STARTCHAR uni00AD
ENCODING 173
SWIDTH 312 0
DWIDTH 8 0
BBX 6 2 1 7
BITMAP
FC
FC
ENDCHAR
STARTCHAR registered
ENCODING 174
SWIDTH 750 0
DWIDTH 18 0
BBX 16 16 1 1
BITMAP
07E0
1C38
300C
6006
6FC6
C663
C623
C663
C7C3
C6C3
C663
6F36
6006
300C
1C38
07E0
ENDCHAR
STARTCHAR macron
ENCODING 175
SWIDTH 500 0
DWIDTH 12 0
BBX 12 2 0 16
BITMAP
FFF0
FFF0
ENDCHAR
STARTCHAR degree
ENCODING 176
SWIDTH 344 0
DWIDTH 8 0
BBX 6 6 1 12
BITMAP
30
78
CC
CC
78
30
ENDCHAR
STARTCHAR plusminus
ENCODING 177
SWIDTH 562 0
DWIDTH 14 0
BBX 10 15 2 0
BITMAP
0C00
0C00
0C00
0C00
FFC0
FFC0
0C00
0C00
0C00
0C00
0000
0000
0000
FFC0
FFC0
ENDCHAR
STARTCHAR uni00B2
ENCODING 178
SWIDTH 250 0
DWIDTH 6 0
BBX 5 8 0 9
BITMAP
70
D8
18
18
30
60
48
F8
ENDCHAR
STARTCHAR uni00B3
ENCODING 179
SWIDTH 250 0
DWIDTH 6 0
BBX 5 8 0 9
BITMAP
70
D8
18
70
18
18
D8
70
ENDCHAR
STARTCHAR acute
ENCODING 180
SWIDTH 344 0
DWIDTH 8 0
BBX 4 3 2 14
BITMAP
30
60
80
ENDCHAR
STARTCHAR mu
ENCODING 181
SWIDTH 500 0
DWIDTH 12 0
BBX 11 16 1 -5
BITMAP
E1C0
60C0
60C0
60C0
60C0
60C0
60C0
60C0
61C0
72E0
7C80
6000
6000
6000
6000
6000
ENDCHAR
STARTCHAR paragraph
ENCODING 182
SWIDTH 469 0
DWIDTH 11 0
BBX 9 16 1 -2
BITMAP
3F80
7F80
F900
F900
F900
F900
7900
3900
0900
0900
0900
0900
0900
0900
0900
0900
ENDCHAR
STARTCHAR periodcentered
ENCODING 183
SWIDTH 250 0
DWIDTH 6 0
BBX 4 4 1 6
BITMAP
60
F0
F0
60
ENDCHAR
STARTCHAR cedilla
ENCODING 184
SWIDTH 344 0
DWIDTH 8 0
BBX 6 5 1 -5
BITMAP
10
20
38
8C
78
ENDCHAR
STARTCHAR uni00B9
ENCODING 185
SWIDTH 250 0
DWIDTH 6 0
BBX 4 8 1 9
BITMAP
20
E0
60
60
60
60
60
F0
ENDCHAR
STARTCHAR ordmasculine
ENCODING 186
SWIDTH 281 0
DWIDTH 8 0
BBX 6 10 1 7
BITMAP
78
CC
CC
CC
CC
CC
CC
78
00
FC
ENDCHAR
STARTCHAR guillemotright
ENCODING 187
SWIDTH 500 0
DWIDTH 12 0
BBX 10 10 1 3
BITMAP
CC00
6600
3300
1980
0CC0
0CC0
1980
3300
6600
CC00
ENDCHAR
STARTCHAR onequarter
ENCODING 188
SWIDTH 688 0
DWIDTH 16 0
BBX 14 17 1 0
BITMAP
6030
E030
6060
60C0
60C0
6180
6300
F300
0600
0C18
0C38
1838
3058
3058
60FC
C018
C018
ENDCHAR
STARTCHAR onehalf
ENCODING 189
SWIDTH 688 0
DWIDTH 16 0
BBX 14 17 1 0
BITMAP
2018
E018
6030
6060
6060
60C0
6180
F180
0300
0638
066C
0C0C
180C
1818
3030
6024
607C
ENDCHAR
STARTCHAR threequarters
ENCODING 190
SWIDTH 688 0
DWIDTH 16 0
BBX 14 17 1 0
BITMAP
7018
D818
1830
7060
1860
18C0
D980
7180
0300
0618
0638
0C38
1858
1858
30FC
6018
6018
ENDCHAR
STARTCHAR questiondown
ENCODING 191
SWIDTH 438 0
DWIDTH 11 0
BBX 9 15 1 0
BITMAP
2200
7700
2200
0000
3E00
6300
C180
C180
FF80
C000
C000
C000
6180
7300
1E00
ENDCHAR
STARTCHAR Agrave
ENCODING 192
SWIDTH 688 0
DWIDTH 17 0
BBX 16 16 1 0
BITMAP
0180
0180
03C0
02C0
0660
0460
0460
0C30
0830
0830
1FF8
1018
300C
200C
200C
F83F
ENDCHAR
STARTCHAR Aacute
ENCODING 193
SWIDTH 656 0
DWIDTH 15 0
BBX 13 16 1 0
BITMAP
FFF8
6018
6008
6000
6000
6000
7FC0
6070
6030
6018
6018
6018
6018
6030
6070
FFC0
ENDCHAR
STARTCHAR Acircumflex
ENCODING 194
SWIDTH 656 0
DWIDTH 15 0
BBX 13 16 1 0
BITMAP
FFC0
6060
6030
6030
6030
6030
6060
7FE0
6070
6030
6018
6018
6018
6030
6070
FFC0
ENDCHAR
STARTCHAR Atilde
ENCODING 195
SWIDTH 594 0
DWIDTH 14 0
BBX 12 16 1 0
BITMAP
FFF0
6030
6010
6000
6000
6000
6000
6000
6000
6000
6000
6000
6000
6000
6000
F000
ENDCHAR
STARTCHAR Adieresis
ENCODING 196
SWIDTH 750 0
DWIDTH 17 0
BBX 15 19 1 -3
BITMAP
3FFC
1018
1018
1018
1018
1018
1018
1018
1018
1018
1018
1018
1018
1018
2018
FFFE
C006
8002
8002
ENDCHAR
STARTCHAR Aring
ENCODING 197
SWIDTH 625 0
DWIDTH 14 0
BBX 12 16 1 0
BITMAP
FFE0
6060
6020
6000
6000
6000
6080
7F80
6080
6000
6000
6000
6000
6010
6030
FFF0
ENDCHAR
STARTCHAR AE
ENCODING 198
SWIDTH 1031 0
DWIDTH 23 0
BBX 22 16 1 0
BITMAP
70FC38
683058
043080
043080
023100
023100
01FE00
03B700
033300
063180
063180
0C30C0
183060
183060
303030
F8FC7C
ENDCHAR
STARTCHAR Ccedilla
ENCODING 199
SWIDTH 656 0
DWIDTH 12 0
BBX 10 16 1 0
BITMAP
BE00
C180
80C0
00C0
00C0
00C0
0180
0F00
0180
00C0
00C0
00C0
00C0
80C0
C180
BE00
ENDCHAR
STARTCHAR Egrave
ENCODING 200
SWIDTH 750 0
DWIDTH 15 0
BBX 13 16 1 0
BITMAP
F078
6070
6070
60B0
60B0
6130
6130
6230
6230
6430
6430
6830
6830
7030
7030
F078
ENDCHAR
STARTCHAR Eacute
ENCODING 201
SWIDTH 750 0
DWIDTH 15 0
BBX 13 20 1 0
BITMAP
0840
0CC0
0780
0000
F078
6070
6070
60B0
60B0
6130
6130
6230
6230
6430
6430
6830
6830
7030
7030
F078
ENDCHAR
STARTCHAR Ecircumflex
ENCODING 202
SWIDTH 719 0
DWIDTH 15 0
BBX 14 16 1 0
BITMAP
FC38
3058
3080
3080
3100
3100
3E00
3700
3300
3180
3180
30C0
3060
3060
3030
FC7C
ENDCHAR
STARTCHAR Edieresis
ENCODING 203
SWIDTH 812 0
DWIDTH 16 0
BBX 14 16 1 0
BITMAP
1FFC
0818
0818
0818
0818
0818
0818
0818
0818
0818
0818
0818
0818
E818
E818
707C
ENDCHAR
STARTCHAR Igrave
ENCODING 204
SWIDTH 875 0
DWIDTH 19 0
BBX 17 16 1 0
BITMAP
F00780
700700
780700
580F00
580B00
4C0B00
4C1B00
461300
461300
463300
432300
436300
41C300
41C300
41C300
E08780
ENDCHAR
STARTCHAR Iacute
ENCODING 205
SWIDTH 719 0
DWIDTH 15 0
BBX 13 16 1 0
BITMAP
F078
6030
6030
6030
6030
6030
6030
7FF0
6030
6030
6030
6030
6030
6030
6030
F078
ENDCHAR
STARTCHAR Icircumflex
ENCODING 206
SWIDTH 656 0
DWIDTH 17 0
BBX 15 16 1 0
BITMAP
07C0
1C70
3018
701C
600C
E00E
E00E
E00E
E00E
E00E
E00E
600C
701C
3018
1C70
07C0
ENDCHAR
STARTCHAR Idieresis
ENCODING 207
SWIDTH 719 0
DWIDTH 15 0
BBX 13 16 1 0
BITMAP
FFF8
6030
6030
6030
6030
6030
6030
6030
6030
6030
6030
6030
6030
6030
6030
F078
ENDCHAR
STARTCHAR Eth
ENCODING 208
SWIDTH 594 0
DWIDTH 14 0
BBX 12 16 1 0
BITMAP
FF80
60E0
6060
6030
6030
6030
6030
6060
60E0
7F80
6000
6000
6000
6000
6000
F000
ENDCHAR
STARTCHAR Ntilde
ENCODING 209
SWIDTH 656 0
DWIDTH 15 0
BBX 13 16 1 0
BITMAP
07C8
1C78
3018
7008
6008
E000
E000
E000
E000
E000
E000
6000
7008
3810
1C60
0780
ENDCHAR
STARTCHAR Ograve
ENCODING 210
SWIDTH 656 0
DWIDTH 16 0
BBX 14 16 1 0
BITMAP
FFFC
C30C
8304
0300
0300
0300
0300
0300
0300
0300
0300
0300
0300
0300
0300
0780
ENDCHAR
STARTCHAR Oacute
ENCODING 211
SWIDTH 688 0
DWIDTH 19 0
BBX 18 16 1 0
BITMAP
FC07C0
380300
1C0600
0C0400
0E0C00
071800
031000
03B000
01E000
00C000
00C000
018000
010000
030000
360000
1C0000
ENDCHAR
STARTCHAR Ocircumflex
ENCODING 212
SWIDTH 781 0
DWIDTH 18 0
BBX 16 16 1 0
BITMAP
07E0
1DB8
318C
6186
6186
C183
C183
C183
C183
6186
6186
318C
1DB8
07E0
0180
03C0
ENDCHAR
STARTCHAR Otilde
ENCODING 213
SWIDTH 719 0
DWIDTH 18 0
BBX 16 16 1 0
BITMAP
FE3F
380C
1810
0C10
0620
0340
0180
01C0
01C0
0260
0430
0430
0818
100C
380C
FE3F
ENDCHAR
STARTCHAR Odieresis
ENCODING 214
SWIDTH 719 0
DWIDTH 16 0
BBX 14 19 1 -3
BITMAP
F078
6030
6030
6030
6030
6030
6030
6030
6030
6030
6030
6030
6030
6030
6030
FFFC
000C
0004
0004
ENDCHAR
STARTCHAR multiply
ENCODING 215
SWIDTH 719 0
DWIDTH 15 0
BBX 13 16 1 0
BITMAP
F078
6030
6030
6030
6030
6030
6030
6030
3FF0
0030
0030
0030
0030
0030
0030
0078
ENDCHAR
STARTCHAR Oslash
ENCODING 216
SWIDTH 1031 0
DWIDTH 20 0
BBX 18 16 1 0
BITMAP
F1E3C0
60C180
60C180
60C180
60C180
60C180
60C180
60C180
60C180
60C180
60C180
60C180
60C180
60C180
60C180
FFFFC0
ENDCHAR
STARTCHAR Ugrave
ENCODING 217
SWIDTH 1031 0
DWIDTH 21 0
BBX 19 19 1 -3
BITMAP
F1E3C0
60C180
60C180
60C180
60C180
60C180
60C180
60C180
60C180
60C180
60C180
60C180
60C180
60C180
60C180
FFFFE0
000060
000020
000020
ENDCHAR
STARTCHAR Uacute
ENCODING 218
SWIDTH 750 0
DWIDTH 18 0
BBX 16 16 1 0
BITMAP
FE00
CC00
8C00
8C00
0C00
0C00
0FFC
0C06
0C03
0C03
0C03
0C03
0C03
0C03
0C06
1FFC
ENDCHAR
STARTCHAR Ucircumflex
ENCODING 219
SWIDTH 906 0
DWIDTH 20 0
BBX 18 16 1 0
BITMAP
F003C0
600180
600180
600180
600180
600180
7FE180
603180
601980
601980
601980
601980
601980
601980
603180
FFE3C0
ENDCHAR
STARTCHAR Udieresis
ENCODING 220
SWIDTH 656 0
DWIDTH 15 0
BBX 13 16 1 0
BITMAP
F000
6000
6000
6000
6000
6000
7FE0
6030
6018
6018
6018
6018
6018
6018
6030
FFE0
ENDCHAR
STARTCHAR Yacute
ENCODING 221
SWIDTH 656 0
DWIDTH 13 0
BBX 11 16 1 0
BITMAP
BF00
C0C0
8060
0060
0060
0060
1060
1FE0
1060
0060
0060
0060
0060
8060
C0C0
BF00
ENDCHAR
STARTCHAR Thorn
ENCODING 222
SWIDTH 938 0
DWIDTH 23 0
BBX 21 16 1 0
BITMAP
F01F00
6071C0
60C060
618030
618030
630018
630018
7F0018
630018
630018
630018
618030
618030
60C060
6071C0
F01F00
ENDCHAR
STARTCHAR germandbls
ENCODING 223
SWIDTH 688 0
DWIDTH 16 0
BBX 14 16 1 0
BITMAP
07FC
1C18
1818
3018
3018
3018
1818
1C18
07F8
0198
0318
0618
0C18
1818
3018
E03C
ENDCHAR
STARTCHAR agrave
ENCODING 224
SWIDTH 406 0
DWIDTH 11 0
BBX 10 11 1 0
BITMAP
3E00
6300
6300
0300
0F00
3B00
6300
C300
C740
EFC0
7980
ENDCHAR
STARTCHAR aacute
ENCODING 225
SWIDTH 469 0
DWIDTH 10 0
BBX 9 18 1 0
BITMAP
0100
3E00
4000
C000
C000
C000
C000
DE00
E300
C180
C180
C180
C180
C180
C180
C180
6300
3C00
ENDCHAR
STARTCHAR acircumflex
ENCODING 226
SWIDTH 406 0
DWIDTH 10 0
BBX 9 11 1 0
BITMAP
FE00
6300
6300
6300
6600
7F00
6180
6180
6180
6180
FF00
ENDCHAR
STARTCHAR atilde
ENCODING 227
SWIDTH 438 0
DWIDTH 9 0
BBX 8 11 1 0
BITMAP
FF
61
61
60
60
60
60
60
60
60
F0
ENDCHAR
STARTCHAR adieresis
ENCODING 228
SWIDTH 500 0
DWIDTH 12 0
BBX 11 13 1 -2
BITMAP
3FC0
1180
1180
1180
1180
1180
1180
1180
1180
2180
FFE0
C060
8020
ENDCHAR
STARTCHAR aring
ENCODING 229
SWIDTH 438 0
DWIDTH 10 0
BBX 9 11 1 0
BITMAP
3E00
6300
C180
C180
FF80
C000
C000
C000
C180
6300
3E00
ENDCHAR
STARTCHAR ae
ENCODING 230
SWIDTH 844 0
DWIDTH 18 0
BBX 18 11 0 0
BITMAP
71E380
68C580
08C400
04C800
02D000
03F000
06D800
0CCC00
18C600
30C300
F9E7C0
ENDCHAR
STARTCHAR ccedilla
ENCODING 231
SWIDTH 406 0
DWIDTH 10 0
BBX 9 11 1 0
BITMAP
BE00
C300
8180
0180
0300
1E00
0300
0180
8180
C300
BE00
ENDCHAR
STARTCHAR egrave
ENCODING 232
SWIDTH 594 0
DWIDTH 12 0
BBX 11 11 1 0
BITMAP
F1E0
61C0
62C0
62C0
64C0
64C0
68C0
68C0
70C0
70C0
F1E0
ENDCHAR
STARTCHAR eacute
ENCODING 233
SWIDTH 594 0
DWIDTH 12 0
BBX 11 14 1 0
BITMAP
1B00
0E00
0000
F1E0
61C0
62C0
62C0
64C0
64C0
68C0
68C0
70C0
70C0
F1E0
ENDCHAR
STARTCHAR ecircumflex
ENCODING 234
SWIDTH 531 0
DWIDTH 12 0
BBX 11 11 1 0
BITMAP
F1C0
62C0
6200
6400
7800
7800
6C00
6600
6300
6180
F3E0
ENDCHAR
STARTCHAR edieresis
ENCODING 235
SWIDTH 594 0
DWIDTH 12 0
BBX 11 11 1 0
BITMAP
3FE0
10C0
10C0
10C0
10C0
10C0
10C0
10C0
10C0
D0C0
E1E0
ENDCHAR
STARTCHAR igrave
ENCODING 236
SWIDTH 719 0
DWIDTH 15 0
BBX 14 11 1 0
BITMAP
E03C
7038
7058
5858
5898
4C98
4D18
4718
4718
4218
E03C
ENDCHAR
STARTCHAR iacute
ENCODING 237
SWIDTH 594 0
DWIDTH 12 0
BBX 11 11 1 0
BITMAP
F1E0
60C0
60C0
60C0
60C0
7FC0
60C0
60C0
60C0
60C0
F1E0
ENDCHAR
STARTCHAR icircumflex
ENCODING 238
SWIDTH 531 0
DWIDTH 11 0
BBX 10 11 1 0
BITMAP
3F00
6180
C0C0
C0C0
C0C0
C0C0
C0C0
C0C0
C0C0
6180
3F00
ENDCHAR
STARTCHAR idieresis
ENCODING 239
SWIDTH 594 0
DWIDTH 12 0
BBX 11 11 1 0
BITMAP
FFE0
60C0
60C0
60C0
60C0
60C0
60C0
60C0
60C0
60C0
F1E0
ENDCHAR
STARTCHAR eth
ENCODING 240
SWIDTH 531 0
DWIDTH 11 0
BBX 10 16 1 -5
BITMAP
7F00
6180
60C0
60C0
60C0
60C0
60C0
60C0
60C0
6180
7F00
6000
6000
6000
6000
F000
ENDCHAR
STARTCHAR ntilde
ENCODING 241
SWIDTH 438 0
DWIDTH 10 0
BBX 9 11 1 0
BITMAP
3F00
6180
C180
C000
C000
C000
C000
C000
C080
6180
3F00
ENDCHAR
STARTCHAR ograve
ENCODING 242
SWIDTH 531 0
DWIDTH 11 0
BBX 10 11 1 0
BITMAP
FFC0
8C40
0C00
0C00
0C00
0C00
0C00
0C00
0C00
0C00
1E00
ENDCHAR
STARTCHAR oacute
ENCODING 243
SWIDTH 531 0
DWIDTH 12 0
BBX 11 16 1 -5
BITMAP
F0E0
6040
6040
3080
3080
1900
1900
0E00
0E00
0400
0400
0800
0800
1000
D000
E000
ENDCHAR
STARTCHAR ocircumflex
ENCODING 244
SWIDTH 594 0
DWIDTH 13 0
BBX 12 17 1 -6
BITMAP
0F80
36C0
6660
C630
C630
C630
C630
C630
6660
36C0
1F80
0600
0600
0600
0600
0600
0F00
ENDCHAR
STARTCHAR otilde
ENCODING 245
SWIDTH 531 0
DWIDTH 11 0
BBX 10 11 1 0
BITMAP
F3C0
6100
3200
3A00
1C00
0C00
0E00
1600
2300
6180
F3C0
ENDCHAR
STARTCHAR odieresis
ENCODING 246
SWIDTH 594 0
DWIDTH 13 0
BBX 12 13 1 -2
BITMAP
F1E0
60C0
60C0
60C0
60C0
60C0
60C0
60C0
60C0
60C0
FFF0
0030
0010
ENDCHAR
STARTCHAR divide
ENCODING 247
SWIDTH 594 0
DWIDTH 12 0
BBX 11 11 1 0
BITMAP
F1E0
60C0
60C0
60C0
60C0
60C0
3FC0
00C0
00C0
00C0
01E0
ENDCHAR
STARTCHAR oslash
ENCODING 248
SWIDTH 844 0
DWIDTH 17 0
BBX 16 11 1 0
BITMAP
F3CF
6186
6186
6186
6186
6186
6186
6186
6186
6186
FFFF
ENDCHAR
STARTCHAR ugrave
ENCODING 249
SWIDTH 844 0
DWIDTH 18 0
BBX 17 13 1 -2
BITMAP
F3CF00
618600
618600
618600
618600
618600
618600
618600
618600
618600
FFFF80
000180
000080
ENDCHAR
STARTCHAR uacute
ENCODING 250
SWIDTH 562 0
DWIDTH 13 0
BBX 12 11 1 0
BITMAP
FE00
CC00
8C00
8C00
0FE0
0C30
0C30
0C30
0C30
0C30
1FE0
ENDCHAR
STARTCHAR ucircumflex
ENCODING 251
SWIDTH 688 0
DWIDTH 15 0
BBX 14 11 1 0
BITMAP
F03C
6018
6018
6018
7F18
6198
6198
6198
6198
6198
FF3C
ENDCHAR
STARTCHAR udieresis
ENCODING 252
SWIDTH 469 0
DWIDTH 10 0
BBX 9 11 1 0
BITMAP
F000
6000
6000
6000
7F00
6180
6180
6180
6180
6180
FF00
ENDCHAR
STARTCHAR yacute
ENCODING 253
SWIDTH 438 0
DWIDTH 10 0
BBX 9 11 1 0
BITMAP
7E00
C300
8180
0180
0180
3F80
0180
0180
8180
C300
7E00
ENDCHAR
STARTCHAR thorn
ENCODING 254
SWIDTH 750 0
DWIDTH 16 0
BBX 15 11 1 0
BITMAP
F0F0
6198
630C
6606
6606
7E06
6606
6606
630C
6198
F0F0
ENDCHAR
STARTCHAR ydieresis
ENCODING 255
SWIDTH 594 0
DWIDTH 13 0
BBX 12 11 1 0
BITMAP
1FF0
3060
3060
3060
3060
1FE0
0C60
1860
1860
3060
F0F0
ENDCHAR
ENDFONT
