STARTFONT 2.1
FONT -FontForge-Times Cyrillic-Normal-R-Normal--19-140-100-100-P-96-WinRoman-0
SIZE 14 100 100
FONTBOUNDINGBOX 17 21 0 -5
COMMENT "Generated by fontforge, http://fontforge.sourceforge.net"
COMMENT "Copyright (C) Steepler Ltd., 1990-92."
STARTPROPERTIES 34
FOUNDRY "FontForge"
FAMILY_NAME "Times Cyrillic"
WEIGHT_NAME "Normal"
SLANT "R"
SETWIDTH_NAME "Normal"
ADD_STYLE_NAME ""
PIXEL_SIZE 19
POINT_SIZE 140
RESOLUTION_X 100
RESOLUTION_Y 100
SPACING "P"
AVERAGE_WIDTH 96
CHARSET_REGISTRY "WinRoman"
CHARSET_ENCODING "0"
FONTNAME_REGISTRY ""
CHARSET_COLLECTIONS "WinRoman"
FONT_NAME "TimesCyrillic"
FACE_NAME "Times Cyrillic"
COPYRIGHT "Copyright (C) Steepler Ltd., 1990-92."
FONT_VERSION "001.000"
FONT_ASCENT 15
FONT_DESCENT 4
UNDERLINE_POSITION -2
UNDERLINE_THICKNESS 1
X_HEIGHT 8
CAP_HEIGHT 12
RAW_ASCENT 800
RAW_DESCENT 200
NORM_SPACE 4
RELATIVE_WEIGHT 40
RELATIVE_SETWIDTH 50
FIGURE_WIDTH 9
AVG_LOWERCASE_WIDTH 96
AVG_UPPERCASE_WIDTH 128
ENDPROPERTIES
CHARS 224
STARTCHAR space
ENCODING 32
SWIDTH 250 0
DWIDTH 4 0
BBX 1 1 3 -5
BITMAP
00
ENDCHAR
STARTCHAR exclam
ENCODING 33
SWIDTH 281 0
DWIDTH 4 0
BBX 2 13 1 0
BITMAP
C0
C0
C0
C0
C0
C0
C0
C0
C0
00
00
C0
C0
ENDCHAR
STARTCHAR quotedbl
ENCODING 34
SWIDTH 375 0
DWIDTH 8 0
BBX 6 4 1 9
BITMAP
CC
CC
CC
CC
ENDCHAR
STARTCHAR numbersign
ENCODING 35
SWIDTH 500 0
DWIDTH 9 0
BBX 9 14 0 0
BITMAP
1B00
1B00
1B00
1B00
7F80
3600
3600
3600
3600
FF00
6C00
6C00
6C00
6C00
ENDCHAR
STARTCHAR dollar
ENCODING 36
SWIDTH 500 0
DWIDTH 9 0
BBX 7 17 1 -2
BITMAP
10
10
3C
56
D2
D2
F0
78
3C
1C
16
96
96
D4
78
10
10
ENDCHAR
STARTCHAR percent
ENCODING 37
SWIDTH 875 0
DWIDTH 15 0
BBX 13 13 1 0
BITMAP
3830
6FE0
C4C0
C4C0
C980
7300
0300
0670
0CC8
0D88
1988
3190
30E0
ENDCHAR
STARTCHAR ampersand
ENCODING 38
SWIDTH 781 0
DWIDTH 14 0
BBX 13 13 1 0
BITMAP
1E00
3300
3100
3300
1E00
1C70
3C20
6620
C340
C180
C180
63C8
3E70
ENDCHAR
STARTCHAR quotesingle
ENCODING 39
SWIDTH 281 0
DWIDTH 4 0
BBX 2 4 1 9
BITMAP
C0
C0
C0
C0
ENDCHAR
STARTCHAR parenleft
ENCODING 40
SWIDTH 344 0
DWIDTH 6 0
BBX 4 19 1 -4
BITMAP
10
30
20
60
60
40
C0
C0
C0
C0
C0
C0
C0
40
60
60
20
30
10
ENDCHAR
STARTCHAR parenright
ENCODING 41
SWIDTH 344 0
DWIDTH 6 0
BBX 4 19 1 -4
BITMAP
80
C0
40
60
60
20
30
30
30
30
30
30
30
20
60
60
40
C0
80
ENDCHAR
STARTCHAR asterisk
ENCODING 42
SWIDTH 500 0
DWIDTH 9 0
BBX 5 7 2 7
BITMAP
20
A8
F8
70
F8
A8
20
ENDCHAR
STARTCHAR plus
ENCODING 43
SWIDTH 562 0
DWIDTH 10 0
BBX 8 8 1 3
BITMAP
18
18
18
FF
FF
18
18
18
ENDCHAR
STARTCHAR comma
ENCODING 44
SWIDTH 250 0
DWIDTH 4 0
BBX 2 5 1 -3
BITMAP
C0
C0
40
40
80
ENDCHAR
STARTCHAR hyphen
ENCODING 45
SWIDTH 312 0
DWIDTH 6 0
BBX 4 2 1 6
BITMAP
F0
F0
ENDCHAR
STARTCHAR period
ENCODING 46
SWIDTH 250 0
DWIDTH 4 0
BBX 2 2 1 0
BITMAP
C0
C0
ENDCHAR
STARTCHAR slash
ENCODING 47
SWIDTH 250 0
DWIDTH 5 0
BBX 5 16 0 -2
BITMAP
18
18
18
18
30
30
30
30
60
60
60
60
C0
C0
C0
C0
ENDCHAR
STARTCHAR zero
ENCODING 48
SWIDTH 500 0
DWIDTH 9 0
BBX 7 13 1 0
BITMAP
38
6C
C6
C6
C6
C6
C6
C6
C6
C6
C6
6C
38
ENDCHAR
STARTCHAR one
ENCODING 49
SWIDTH 500 0
DWIDTH 9 0
BBX 6 13 2 0
BITMAP
10
30
F0
30
30
30
30
30
30
30
30
30
FC
ENDCHAR
STARTCHAR two
ENCODING 50
SWIDTH 500 0
DWIDTH 9 0
BBX 7 13 1 0
BITMAP
38
7C
8E
06
06
0C
08
18
30
20
42
FE
FC
ENDCHAR
STARTCHAR three
ENCODING 51
SWIDTH 500 0
DWIDTH 9 0
BBX 7 13 1 0
BITMAP
38
4C
86
06
04
08
3C
0E
06
06
06
CC
78
ENDCHAR
STARTCHAR four
ENCODING 52
SWIDTH 500 0
DWIDTH 9 0
BBX 7 13 1 0
BITMAP
0C
0C
1C
1C
2C
2C
4C
4C
FE
FE
0C
0C
0C
ENDCHAR
STARTCHAR five
ENCODING 53
SWIDTH 500 0
DWIDTH 9 0
BBX 7 13 1 0
BITMAP
3E
3E
40
40
F8
FC
0E
06
06
06
06
CC
78
ENDCHAR
STARTCHAR six
ENCODING 54
SWIDTH 500 0
DWIDTH 9 0
BBX 7 13 1 0
BITMAP
1C
30
60
60
C0
D8
EC
C6
C6
C6
C6
6C
38
ENDCHAR
STARTCHAR seven
ENCODING 55
SWIDTH 500 0
DWIDTH 9 0
BBX 7 13 1 0
BITMAP
7E
7E
8C
0C
18
18
18
30
30
30
60
60
60
ENDCHAR
STARTCHAR eight
ENCODING 56
SWIDTH 500 0
DWIDTH 9 0
BBX 7 13 1 0
BITMAP
38
6C
C6
C6
E4
78
3C
4E
C6
C6
C6
6C
38
ENDCHAR
STARTCHAR nine
ENCODING 57
SWIDTH 500 0
DWIDTH 9 0
BBX 7 13 1 0
BITMAP
38
6C
C6
C6
C6
C6
6E
36
06
04
0C
18
70
ENDCHAR
STARTCHAR colon
ENCODING 58
SWIDTH 250 0
DWIDTH 5 0
BBX 2 9 1 0
BITMAP
C0
C0
00
00
00
00
00
C0
C0
ENDCHAR
STARTCHAR semicolon
ENCODING 59
SWIDTH 250 0
DWIDTH 5 0
BBX 2 12 1 -3
BITMAP
C0
C0
00
00
00
00
00
C0
C0
40
40
80
ENDCHAR
STARTCHAR less
ENCODING 60
SWIDTH 562 0
DWIDTH 10 0
BBX 8 9 1 2
BITMAP
03
0E
1C
70
E0
70
1C
0E
03
ENDCHAR
STARTCHAR equal
ENCODING 61
SWIDTH 562 0
DWIDTH 10 0
BBX 8 6 1 3
BITMAP
FF
FF
00
00
FF
FF
ENDCHAR
STARTCHAR greater
ENCODING 62
SWIDTH 562 0
DWIDTH 10 0
BBX 8 9 1 2
BITMAP
C0
70
38
0E
07
0E
38
70
C0
ENDCHAR
STARTCHAR question
ENCODING 63
SWIDTH 438 0
DWIDTH 8 0
BBX 6 13 1 0
BITMAP
78
8C
CC
CC
0C
18
18
30
20
20
00
30
30
ENDCHAR
STARTCHAR at
ENCODING 64
SWIDTH 906 0
DWIDTH 17 0
BBX 15 15 1 -2
BITMAP
07C0
1C70
3018
600C
636C
C6E6
CC66
CC46
CCC6
C6EC
6338
6000
3000
1C30
07C0
ENDCHAR
STARTCHAR A
ENCODING 65
SWIDTH 688 0
DWIDTH 12 0
BBX 12 13 0 0
BITMAP
0400
0600
0E00
0B00
0B00
1300
1180
2180
3FC0
20C0
40C0
4060
E0F0
ENDCHAR
STARTCHAR B
ENCODING 66
SWIDTH 656 0
DWIDTH 13 0
BBX 11 13 1 0
BITMAP
FE00
6180
60C0
60C0
60C0
6180
7F80
60C0
6060
6060
6060
60C0
FF00
ENDCHAR
STARTCHAR C
ENCODING 67
SWIDTH 656 0
DWIDTH 13 0
BBX 11 13 1 0
BITMAP
0F40
38C0
6040
6000
C000
C000
C000
C000
C000
6000
6020
38C0
0F00
ENDCHAR
STARTCHAR D
ENCODING 68
SWIDTH 688 0
DWIDTH 14 0
BBX 12 13 1 0
BITMAP
FF00
60C0
6060
6060
6030
6030
6030
6030
6030
6060
6060
60C0
FF00
ENDCHAR
STARTCHAR E
ENCODING 69
SWIDTH 625 0
DWIDTH 12 0
BBX 10 13 1 0
BITMAP
FF80
6080
6000
6000
6000
6100
7F00
6100
6000
6000
6000
6040
FF80
ENDCHAR
STARTCHAR F
ENCODING 70
SWIDTH 562 0
DWIDTH 11 0
BBX 9 13 1 0
BITMAP
FF80
6080
6000
6000
6000
6100
7F00
6100
6000
6000
6000
6000
F000
ENDCHAR
STARTCHAR G
ENCODING 71
SWIDTH 719 0
DWIDTH 14 0
BBX 12 13 1 0
BITMAP
0F40
38C0
6040
6000
C000
C000
C000
C0F0
C060
6060
6060
38E0
0F80
ENDCHAR
STARTCHAR H
ENCODING 72
SWIDTH 719 0
DWIDTH 14 0
BBX 12 13 1 0
BITMAP
F0F0
6060
6060
6060
6060
6060
7FE0
6060
6060
6060
6060
6060
F0F0
ENDCHAR
STARTCHAR I
ENCODING 73
SWIDTH 344 0
DWIDTH 6 0
BBX 4 13 1 0
BITMAP
F0
60
60
60
60
60
60
60
60
60
60
60
F0
ENDCHAR
STARTCHAR J
ENCODING 74
SWIDTH 406 0
DWIDTH 8 0
BBX 6 13 1 0
BITMAP
3C
18
18
18
18
18
18
18
18
18
D8
D8
70
ENDCHAR
STARTCHAR K
ENCODING 75
SWIDTH 688 0
DWIDTH 13 0
BBX 12 13 1 0
BITMAP
F3E0
6180
6300
6600
6C00
7C00
7600
6700
6300
6180
61C0
60C0
F3F0
ENDCHAR
STARTCHAR L
ENCODING 76
SWIDTH 625 0
DWIDTH 12 0
BBX 10 13 1 0
BITMAP
F000
6000
6000
6000
6000
6000
6000
6000
6000
6000
6000
6040
FF80
ENDCHAR
STARTCHAR M
ENCODING 77
SWIDTH 875 0
DWIDTH 16 0
BBX 14 13 1 0
BITMAP
F03C
7038
7878
5858
5858
4C98
4C98
4C98
4718
4718
4718
4218
E23C
ENDCHAR
STARTCHAR N
ENCODING 78
SWIDTH 719 0
DWIDTH 14 0
BBX 12 13 1 0
BITMAP
F070
7020
7820
5C20
4E20
4620
4720
43A0
41E0
40E0
40E0
4060
E020
ENDCHAR
STARTCHAR O
ENCODING 79
SWIDTH 656 0
DWIDTH 14 0
BBX 12 13 1 0
BITMAP
0F00
30C0
6060
6060
C030
C030
C030
C030
C030
6060
6060
30C0
0F00
ENDCHAR
STARTCHAR P
ENCODING 80
SWIDTH 594 0
DWIDTH 11 0
BBX 10 13 1 0
BITMAP
FE00
6180
60C0
60C0
60C0
6180
7E00
6000
6000
6000
6000
6000
F000
ENDCHAR
STARTCHAR Q
ENCODING 81
SWIDTH 656 0
DWIDTH 14 0
BBX 12 16 1 -3
BITMAP
0F00
30C0
6060
6060
C030
C030
C030
C030
C030
6060
6060
30C0
0F00
0700
0180
0060
ENDCHAR
STARTCHAR R
ENCODING 82
SWIDTH 656 0
DWIDTH 12 0
BBX 11 13 1 0
BITMAP
FF00
6180
60C0
60C0
60C0
6180
7F00
6300
6180
6180
60C0
60C0
F060
ENDCHAR
STARTCHAR S
ENCODING 83
SWIDTH 500 0
DWIDTH 10 0
BBX 8 13 1 0
BITMAP
3A
66
C2
C2
E0
70
3C
0E
07
83
83
C6
BC
ENDCHAR
STARTCHAR T
ENCODING 84
SWIDTH 656 0
DWIDTH 12 0
BBX 10 13 1 0
BITMAP
FFC0
8C40
0C00
0C00
0C00
0C00
0C00
0C00
0C00
0C00
0C00
0C00
1E00
ENDCHAR
STARTCHAR U
ENCODING 85
SWIDTH 719 0
DWIDTH 14 0
BBX 12 13 1 0
BITMAP
F070
6020
6020
6020
6020
6020
6020
6020
6020
6020
3040
38C0
0F00
ENDCHAR
STARTCHAR V
ENCODING 86
SWIDTH 688 0
DWIDTH 12 0
BBX 12 13 0 0
BITMAP
F0F0
6060
6040
3040
3080
3080
1900
1900
0E00
0E00
0E00
0400
0400
ENDCHAR
STARTCHAR W
ENCODING 87
SWIDTH 1031 0
DWIDTH 17 0
BBX 17 13 0 0
BITMAP
F3C380
618100
618100
30C200
30C200
30C200
196400
196400
0E3800
0E3800
0E3800
041000
041000
ENDCHAR
STARTCHAR X
ENCODING 88
SWIDTH 719 0
DWIDTH 12 0
BBX 12 13 0 0
BITMAP
F8F0
3060
1840
1C80
0D00
0700
0700
0B00
0980
11C0
20C0
6060
F0F0
ENDCHAR
STARTCHAR Y
ENCODING 89
SWIDTH 688 0
DWIDTH 12 0
BBX 12 13 0 0
BITMAP
F070
6020
3040
3040
1880
0D00
0D00
0600
0600
0600
0600
0600
0F00
ENDCHAR
STARTCHAR Z
ENCODING 90
SWIDTH 656 0
DWIDTH 12 0
BBX 11 13 1 0
BITMAP
7FC0
4180
0180
0300
0700
0600
0C00
1C00
1800
3000
7000
6020
FFC0
ENDCHAR
STARTCHAR bracketleft
ENCODING 91
SWIDTH 344 0
DWIDTH 6 0
BBX 4 17 2 -3
BITMAP
F0
C0
C0
C0
C0
C0
C0
C0
C0
C0
C0
C0
C0
C0
C0
C0
F0
ENDCHAR
STARTCHAR backslash
ENCODING 92
SWIDTH 250 0
DWIDTH 5 0
BBX 5 13 0 0
BITMAP
C0
C0
C0
60
60
60
30
30
30
18
18
18
18
ENDCHAR
STARTCHAR bracketright
ENCODING 93
SWIDTH 344 0
DWIDTH 6 0
BBX 4 17 0 -3
BITMAP
F0
30
30
30
30
30
30
30
30
30
30
30
30
30
30
30
F0
ENDCHAR
STARTCHAR asciicircum
ENCODING 94
SWIDTH 500 0
DWIDTH 9 0
BBX 7 4 1 10
BITMAP
10
38
6C
C6
ENDCHAR
STARTCHAR underscore
ENCODING 95
SWIDTH 500 0
DWIDTH 9 0
BBX 9 1 0 -2
BITMAP
FF80
ENDCHAR
STARTCHAR grave
ENCODING 96
SWIDTH 344 0
DWIDTH 6 0
BBX 4 3 1 11
BITMAP
C0
60
10
ENDCHAR
STARTCHAR a
ENCODING 97
SWIDTH 438 0
DWIDTH 9 0
BBX 8 9 1 0
BITMAP
3C
C6
C6
1E
66
C6
C6
DE
77
ENDCHAR
STARTCHAR b
ENCODING 98
SWIDTH 531 0
DWIDTH 10 0
BBX 9 14 1 0
BITMAP
2000
E000
6000
6000
6000
6E00
7300
6180
6180
6180
6180
6180
6300
3E00
ENDCHAR
STARTCHAR c
ENCODING 99
SWIDTH 438 0
DWIDTH 8 0
BBX 7 9 1 0
BITMAP
3C
66
C6
C0
C0
C0
C2
66
3C
ENDCHAR
STARTCHAR d
ENCODING 100
SWIDTH 531 0
DWIDTH 10 0
BBX 9 14 1 0
BITMAP
0100
0700
0300
0300
0300
3B00
6700
C300
C300
C300
C300
C300
6700
3D80
ENDCHAR
STARTCHAR e
ENCODING 101
SWIDTH 438 0
DWIDTH 8 0
BBX 7 9 1 0
BITMAP
38
6C
C6
FE
C0
C0
C2
66
3C
ENDCHAR
STARTCHAR f
ENCODING 102
SWIDTH 375 0
DWIDTH 6 0
BBX 5 14 1 0
BITMAP
38
68
60
60
F8
60
60
60
60
60
60
60
60
F0
ENDCHAR
STARTCHAR g
ENCODING 103
SWIDTH 469 0
DWIDTH 10 0
BBX 9 13 1 -4
BITMAP
1C00
3780
6300
6300
3600
1C00
3000
6000
7F00
C380
C180
C300
7E00
ENDCHAR
STARTCHAR h
ENCODING 104
SWIDTH 531 0
DWIDTH 10 0
BBX 9 14 1 0
BITMAP
2000
E000
6000
6000
6000
6E00
7300
6300
6300
6300
6300
6300
6300
F380
ENDCHAR
STARTCHAR i
ENCODING 105
SWIDTH 281 0
DWIDTH 5 0
BBX 4 14 1 0
BITMAP
60
60
00
00
00
60
E0
60
60
60
60
60
60
F0
ENDCHAR
STARTCHAR j
ENCODING 106
SWIDTH 281 0
DWIDTH 4 0
BBX 4 18 0 -4
BITMAP
30
30
00
00
00
30
70
30
30
30
30
30
30
30
30
30
B0
60
ENDCHAR
STARTCHAR k
ENCODING 107
SWIDTH 500 0
DWIDTH 9 0
BBX 8 14 1 0
BITMAP
20
E0
60
60
60
6F
64
68
70
78
6C
6C
66
F7
ENDCHAR
STARTCHAR l
ENCODING 108
SWIDTH 281 0
DWIDTH 5 0
BBX 4 14 1 0
BITMAP
20
E0
60
60
60
60
60
60
60
60
60
60
60
F0
ENDCHAR
STARTCHAR m
ENCODING 109
SWIDTH 750 0
DWIDTH 13 0
BBX 12 9 1 0
BITMAP
2CC0
FFE0
6660
6660
6660
6660
6660
6660
F770
ENDCHAR
STARTCHAR n
ENCODING 110
SWIDTH 500 0
DWIDTH 10 0
BBX 9 9 1 0
BITMAP
6E00
F300
6300
6300
6300
6300
6300
6300
F380
ENDCHAR
STARTCHAR o
ENCODING 111
SWIDTH 500 0
DWIDTH 9 0
BBX 8 9 1 0
BITMAP
3C
46
C3
C3
C3
C3
C3
62
3C
ENDCHAR
STARTCHAR p
ENCODING 112
SWIDTH 531 0
DWIDTH 10 0
BBX 9 13 1 -4
BITMAP
5E00
F300
6180
6180
6180
6180
6180
7300
6E00
6000
6000
6000
F000
ENDCHAR
STARTCHAR q
ENCODING 113
SWIDTH 500 0
DWIDTH 10 0
BBX 9 13 1 -4
BITMAP
3D00
6700
C300
C300
C300
C300
C300
6700
3B00
0300
0300
0300
0780
ENDCHAR
STARTCHAR r
ENCODING 114
SWIDTH 406 0
DWIDTH 7 0
BBX 6 9 1 0
BITMAP
6C
FC
64
60
60
60
60
60
F0
ENDCHAR
STARTCHAR s
ENCODING 115
SWIDTH 406 0
DWIDTH 7 0
BBX 6 9 1 0
BITMAP
74
CC
C4
60
30
18
8C
CC
F8
ENDCHAR
STARTCHAR t
ENCODING 116
SWIDTH 281 0
DWIDTH 6 0
BBX 5 12 1 0
BITMAP
20
20
60
F8
60
60
60
60
60
60
68
30
ENDCHAR
STARTCHAR u
ENCODING 117
SWIDTH 500 0
DWIDTH 10 0
BBX 9 9 1 0
BITMAP
E700
6300
6300
6300
6300
6300
6300
6700
3B80
ENDCHAR
STARTCHAR v
ENCODING 118
SWIDTH 562 0
DWIDTH 10 0
BBX 9 9 1 0
BITMAP
F380
6100
6100
3200
3200
1C00
1C00
0800
0800
ENDCHAR
STARTCHAR w
ENCODING 119
SWIDTH 812 0
DWIDTH 14 0
BBX 13 9 1 0
BITMAP
F7B8
6310
6310
37B0
35A0
1CE0
1CE0
0840
0840
ENDCHAR
STARTCHAR x
ENCODING 120
SWIDTH 500 0
DWIDTH 9 0
BBX 8 9 1 0
BITMAP
F7
62
34
38
18
1C
2C
46
EF
ENDCHAR
STARTCHAR y
ENCODING 121
SWIDTH 562 0
DWIDTH 10 0
BBX 9 13 1 -4
BITMAP
F380
6100
6100
3200
3200
1C00
1C00
0800
0800
1800
5000
F000
6000
ENDCHAR
STARTCHAR z
ENCODING 122
SWIDTH 469 0
DWIDTH 8 0
BBX 7 9 1 0
BITMAP
FE
86
0C
18
30
60
C0
C2
FE
ENDCHAR
STARTCHAR braceleft
ENCODING 123
SWIDTH 406 0
DWIDTH 8 0
BBX 5 17 2 -4
BITMAP
38
60
60
60
60
60
60
60
C0
60
60
60
60
60
60
60
38
ENDCHAR
STARTCHAR bar
ENCODING 124
SWIDTH 281 0
DWIDTH 4 0
BBX 2 16 1 -2
BITMAP
C0
C0
C0
C0
C0
C0
C0
C0
C0
C0
C0
C0
C0
C0
C0
C0
ENDCHAR
STARTCHAR braceright
ENCODING 125
SWIDTH 406 0
DWIDTH 8 0
BBX 5 17 1 -4
BITMAP
E0
30
30
30
30
30
30
30
18
30
30
30
30
30
30
30
E0
ENDCHAR
STARTCHAR asciitilde
ENCODING 126
SWIDTH 500 0
DWIDTH 9 0
BBX 7 3 1 11
BITMAP
72
FE
9C
ENDCHAR
STARTCHAR uni007F
ENCODING 127
SWIDTH 344 0
DWIDTH 7 0
BBX 4 14 2 0
BITMAP
F0
F0
F0
F0
F0
F0
F0
F0
F0
F0
F0
F0
F0
F0
ENDCHAR
STARTCHAR Euro
ENCODING 128
SWIDTH 344 0
DWIDTH 7 0
BBX 4 14 2 0
BITMAP
F0
F0
F0
F0
F0
F0
F0
F0
F0
F0
F0
F0
F0
F0
ENDCHAR
STARTCHAR NameMe.129
ENCODING 129
SWIDTH 344 0
DWIDTH 7 0
BBX 4 14 2 0
BITMAP
F0
F0
F0
F0
F0
F0
F0
F0
F0
F0
F0
F0
F0
F0
ENDCHAR
STARTCHAR quotesinglbase
ENCODING 130
SWIDTH 344 0
DWIDTH 7 0
BBX 4 14 2 0
BITMAP
F0
F0
F0
F0
F0
F0
F0
F0
F0
F0
F0
F0
F0
F0
ENDCHAR
STARTCHAR florin
ENCODING 131
SWIDTH 344 0
DWIDTH 7 0
BBX 4 14 2 0
BITMAP
F0
F0
F0
F0
F0
F0
F0
F0
F0
F0
F0
F0
F0
F0
ENDCHAR
STARTCHAR quotedblbase
ENCODING 132
SWIDTH 344 0
DWIDTH 7 0
BBX 4 14 2 0
BITMAP
F0
F0
F0
F0
F0
F0
F0
F0
F0
F0
F0
F0
F0
F0
ENDCHAR
STARTCHAR ellipsis
ENCODING 133
SWIDTH 344 0
DWIDTH 7 0
BBX 4 14 2 0
BITMAP
F0
F0
F0
F0
F0
F0
F0
F0
F0
F0
F0
F0
F0
F0
ENDCHAR
STARTCHAR dagger
ENCODING 134
SWIDTH 344 0
DWIDTH 7 0
BBX 4 14 2 0
BITMAP
F0
F0
F0
F0
F0
F0
F0
F0
F0
F0
F0
F0
F0
F0
ENDCHAR
STARTCHAR daggerdbl
ENCODING 135
SWIDTH 344 0
DWIDTH 7 0
BBX 4 14 2 0
BITMAP
F0
F0
F0
F0
F0
F0
F0
F0
F0
F0
F0
F0
F0
F0
ENDCHAR
STARTCHAR circumflex
ENCODING 136
SWIDTH 344 0
DWIDTH 7 0
BBX 4 14 2 0
BITMAP
F0
F0
F0
F0
F0
F0
F0
F0
F0
F0
F0
F0
F0
F0
ENDCHAR
STARTCHAR perthousand
ENCODING 137
SWIDTH 344 0
DWIDTH 7 0
BBX 4 14 2 0
BITMAP
F0
F0
F0
F0
F0
F0
F0
F0
F0
F0
F0
F0
F0
F0
ENDCHAR
STARTCHAR Scaron
ENCODING 138
SWIDTH 344 0
DWIDTH 7 0
BBX 4 14 2 0
BITMAP
F0
F0
F0
F0
F0
F0
F0
F0
F0
F0
F0
F0
F0
F0
ENDCHAR
STARTCHAR guilsinglleft
ENCODING 139
SWIDTH 344 0
DWIDTH 7 0
BBX 4 14 2 0
BITMAP
F0
F0
F0
F0
F0
F0
F0
F0
F0
F0
F0
F0
F0
F0
ENDCHAR
STARTCHAR OE
ENCODING 140
SWIDTH 344 0
DWIDTH 7 0
BBX 4 14 2 0
BITMAP
F0
F0
F0
F0
F0
F0
F0
F0
F0
F0
F0
F0
F0
F0
ENDCHAR
STARTCHAR NameMe.141
ENCODING 141
SWIDTH 344 0
DWIDTH 7 0
BBX 4 14 2 0
BITMAP
F0
F0
F0
F0
F0
F0
F0
F0
F0
F0
F0
F0
F0
F0
ENDCHAR
STARTCHAR Zcaron
ENCODING 142
SWIDTH 344 0
DWIDTH 7 0
BBX 4 14 2 0
BITMAP
F0
F0
F0
F0
F0
F0
F0
F0
F0
F0
F0
F0
F0
F0
ENDCHAR
STARTCHAR NameMe.143
ENCODING 143
SWIDTH 344 0
DWIDTH 7 0
BBX 4 14 2 0
BITMAP
F0
F0
F0
F0
F0
F0
F0
F0
F0
F0
F0
F0
F0
F0
ENDCHAR
STARTCHAR NameMe.144
ENCODING 144
SWIDTH 344 0
DWIDTH 7 0
BBX 4 14 2 0
BITMAP
F0
F0
F0
F0
F0
F0
F0
F0
F0
F0
F0
F0
F0
F0
ENDCHAR
STARTCHAR quoteleft
ENCODING 145
SWIDTH 250 0
DWIDTH 4 0
BBX 2 4 1 10
BITMAP
40
80
C0
C0
ENDCHAR
STARTCHAR quoteright
ENCODING 146
SWIDTH 250 0
DWIDTH 4 0
BBX 2 4 1 10
BITMAP
C0
C0
40
80
ENDCHAR
STARTCHAR quotedblleft
ENCODING 147
SWIDTH 344 0
DWIDTH 7 0
BBX 4 14 2 0
BITMAP
F0
F0
F0
F0
F0
F0
F0
F0
F0
F0
F0
F0
F0
F0
ENDCHAR
STARTCHAR quotedblright
ENCODING 148
SWIDTH 344 0
DWIDTH 7 0
BBX 4 14 2 0
BITMAP
F0
F0
F0
F0
F0
F0
F0
F0
F0
F0
F0
F0
F0
F0
ENDCHAR
STARTCHAR bullet
ENCODING 149
SWIDTH 344 0
DWIDTH 7 0
BBX 4 14 2 0
BITMAP
F0
F0
F0
F0
F0
F0
F0
F0
F0
F0
F0
F0
F0
F0
ENDCHAR
STARTCHAR endash
ENCODING 150
SWIDTH 344 0
DWIDTH 7 0
BBX 4 14 2 0
BITMAP
F0
F0
F0
F0
F0
F0
F0
F0
F0
F0
F0
F0
F0
F0
ENDCHAR
STARTCHAR emdash
ENCODING 151
SWIDTH 344 0
DWIDTH 7 0
BBX 4 14 2 0
BITMAP
F0
F0
F0
F0
F0
F0
F0
F0
F0
F0
F0
F0
F0
F0
ENDCHAR
STARTCHAR tilde
ENCODING 152
SWIDTH 344 0
DWIDTH 7 0
BBX 4 14 2 0
BITMAP
F0
F0
F0
F0
F0
F0
F0
F0
F0
F0
F0
F0
F0
F0
ENDCHAR
STARTCHAR trademark
ENCODING 153
SWIDTH 344 0
DWIDTH 7 0
BBX 4 14 2 0
BITMAP
F0
F0
F0
F0
F0
F0
F0
F0
F0
F0
F0
F0
F0
F0
ENDCHAR
STARTCHAR scaron
ENCODING 154
SWIDTH 344 0
DWIDTH 7 0
BBX 4 14 2 0
BITMAP
F0
F0
F0
F0
F0
F0
F0
F0
F0
F0
F0
F0
F0
F0
ENDCHAR
STARTCHAR guilsinglright
ENCODING 155
SWIDTH 344 0
DWIDTH 7 0
BBX 4 14 2 0
BITMAP
F0
F0
F0
F0
F0
F0
F0
F0
F0
F0
F0
F0
F0
F0
ENDCHAR
STARTCHAR oe
ENCODING 156
SWIDTH 344 0
DWIDTH 7 0
BBX 4 14 2 0
BITMAP
F0
F0
F0
F0
F0
F0
F0
F0
F0
F0
F0
F0
F0
F0
ENDCHAR
STARTCHAR NameMe.157
ENCODING 157
SWIDTH 344 0
DWIDTH 7 0
BBX 4 14 2 0
BITMAP
F0
F0
F0
F0
F0
F0
F0
F0
F0
F0
F0
F0
F0
F0
ENDCHAR
STARTCHAR zcaron
ENCODING 158
SWIDTH 344 0
DWIDTH 7 0
BBX 4 14 2 0
BITMAP
F0
F0
F0
F0
F0
F0
F0
F0
F0
F0
F0
F0
F0
F0
ENDCHAR
STARTCHAR Ydieresis
ENCODING 159
SWIDTH 344 0
DWIDTH 7 0
BBX 4 14 2 0
BITMAP
F0
F0
F0
F0
F0
F0
F0
F0
F0
F0
F0
F0
F0
F0
ENDCHAR
STARTCHAR uni00A0
ENCODING 160
SWIDTH 250 0
DWIDTH 4 0
BBX 1 1 3 -5
BITMAP
00
ENDCHAR
STARTCHAR exclamdown
ENCODING 161
SWIDTH 625 0
DWIDTH 12 0
BBX 10 16 1 0
BITMAP
6300
6300
0000
FF80
6080
6000
6000
6000
6100
7F00
6100
6000
6000
6000
6040
FF80
ENDCHAR
STARTCHAR cent
ENCODING 162
SWIDTH 500 0
DWIDTH 9 0
BBX 7 10 1 0
BITMAP
02
3C
66
CE
C8
D0
D0
E2
66
B8
ENDCHAR
STARTCHAR sterling
ENCODING 163
SWIDTH 500 0
DWIDTH 9 0
BBX 9 13 0 0
BITMAP
3E00
7300
6300
6000
6000
FE00
3000
3000
3000
3000
7080
BF80
E700
ENDCHAR
STARTCHAR currency
ENCODING 164
SWIDTH 500 0
DWIDTH 9 0
BBX 9 9 0 4
BITMAP
9C80
FF80
6300
C180
C180
C180
6300
FF80
9C80
ENDCHAR
STARTCHAR yen
ENCODING 165
SWIDTH 531 0
DWIDTH 9 0
BBX 9 13 0 0
BITMAP
F380
C100
6100
6200
3200
3400
3400
FF00
1800
FF00
1800
1800
3C00
ENDCHAR
STARTCHAR brokenbar
ENCODING 166
SWIDTH 281 0
DWIDTH 4 0
BBX 2 15 1 -1
BITMAP
C0
C0
C0
C0
C0
C0
C0
00
00
00
C0
C0
C0
C0
C0
ENDCHAR
STARTCHAR section
ENCODING 167
SWIDTH 500 0
DWIDTH 9 0
BBX 7 16 1 -2
BITMAP
3C
66
66
60
30
78
CC
CE
E6
66
3C
18
0C
CC
CC
78
ENDCHAR
STARTCHAR dieresis
ENCODING 168
SWIDTH 344 0
DWIDTH 6 0
BBX 6 2 0 12
BITMAP
CC
CC
ENDCHAR
STARTCHAR copyright
ENCODING 169
SWIDTH 750 0
DWIDTH 14 0
BBX 13 13 0 0
BITMAP
0F80
3060
4010
4710
8CC8
9848
9808
9848
8C88
4710
4010
3060
0F80
ENDCHAR
STARTCHAR ordfeminine
ENCODING 170
SWIDTH 281 0
DWIDTH 5 0
BBX 5 8 0 5
BITMAP
60
90
30
D0
90
E8
00
F8
ENDCHAR
STARTCHAR guillemotleft
ENCODING 171
SWIDTH 500 0
DWIDTH 9 0
BBX 8 7 0 1
BITMAP
11
33
66
CC
66
33
11
ENDCHAR
STARTCHAR logicalnot
ENCODING 172
SWIDTH 562 0
DWIDTH 10 0
BBX 8 3 1 4
BITMAP
FF
FF
03
ENDCHAR
STARTCHAR uni00AD
ENCODING 173
SWIDTH 312 0
DWIDTH 6 0
BBX 4 2 1 5
BITMAP
F0
F0
ENDCHAR
STARTCHAR registered
ENCODING 174
SWIDTH 750 0
DWIDTH 14 0
BBX 13 13 0 0
BITMAP
0F80
3060
4010
5F90
8CC8
8CC8
8F88
8D88
8CC8
5E70
4010
3060
0F80
ENDCHAR
STARTCHAR macron
ENCODING 175
SWIDTH 500 0
DWIDTH 9 0
BBX 9 1 0 13
BITMAP
FF80
ENDCHAR
STARTCHAR degree
ENCODING 176
SWIDTH 344 0
DWIDTH 5 0
BBX 5 5 0 9
BITMAP
70
D8
88
D8
70
ENDCHAR
STARTCHAR plusminus
ENCODING 177
SWIDTH 562 0
DWIDTH 10 0
BBX 8 11 1 0
BITMAP
18
18
18
FF
FF
18
18
18
00
FF
FF
ENDCHAR
STARTCHAR uni00B2
ENCODING 178
SWIDTH 250 0
DWIDTH 5 0
BBX 5 6 0 8
BITMAP
70
98
18
30
60
F8
ENDCHAR
STARTCHAR uni00B3
ENCODING 179
SWIDTH 250 0
DWIDTH 5 0
BBX 5 6 0 8
BITMAP
70
98
30
18
D8
70
ENDCHAR
STARTCHAR acute
ENCODING 180
SWIDTH 344 0
DWIDTH 6 0
BBX 4 3 1 11
BITMAP
30
60
80
ENDCHAR
STARTCHAR mu
ENCODING 181
SWIDTH 500 0
DWIDTH 9 0
BBX 9 13 0 -4
BITMAP
E700
6300
6300
6300
6300
6300
6300
7780
7900
6000
6000
6000
6000
ENDCHAR
STARTCHAR paragraph
ENCODING 182
SWIDTH 469 0
DWIDTH 8 0
BBX 7 14 0 -2
BITMAP
7E
E4
E4
E4
64
24
24
24
24
24
24
24
24
24
ENDCHAR
STARTCHAR periodcentered
ENCODING 183
SWIDTH 250 0
DWIDTH 4 0
BBX 2 2 1 6
BITMAP
C0
C0
ENDCHAR
STARTCHAR cedilla
ENCODING 184
SWIDTH 344 0
DWIDTH 6 0
BBX 4 4 1 -4
BITMAP
40
E0
30
E0
ENDCHAR
STARTCHAR uni00B9
ENCODING 185
SWIDTH 250 0
DWIDTH 5 0
BBX 3 6 1 8
BITMAP
60
E0
60
60
60
60
ENDCHAR
STARTCHAR ordmasculine
ENCODING 186
SWIDTH 281 0
DWIDTH 5 0
BBX 5 8 0 5
BITMAP
70
D8
88
88
D8
70
00
F8
ENDCHAR
STARTCHAR guillemotright
ENCODING 187
SWIDTH 500 0
DWIDTH 9 0
BBX 8 7 1 1
BITMAP
88
CC
66
33
66
CC
88
ENDCHAR
STARTCHAR onequarter
ENCODING 188
SWIDTH 688 0
DWIDTH 13 0
BBX 11 14 1 0
BITMAP
30C0
70C0
3180
3300
3300
3600
0C00
0C00
19C0
32C0
36C0
67E0
C0C0
C0C0
ENDCHAR
STARTCHAR onehalf
ENCODING 189
SWIDTH 688 0
DWIDTH 13 0
BBX 11 14 1 0
BITMAP
30C0
70C0
3180
3300
3300
3600
0C00
0C00
19C0
3260
3060
60C0
C100
C3E0
ENDCHAR
STARTCHAR threequarters
ENCODING 190
SWIDTH 688 0
DWIDTH 13 0
BBX 11 14 1 0
BITMAP
E0C0
30C0
6180
3300
3300
E600
0C00
0C00
19C0
32C0
36C0
67E0
C0C0
C0C0
ENDCHAR
STARTCHAR questiondown
ENCODING 191
SWIDTH 438 0
DWIDTH 9 0
BBX 7 12 1 0
BITMAP
6C
6C
00
38
6C
C6
FE
C0
C0
C2
66
3C
ENDCHAR
STARTCHAR Agrave
ENCODING 192
SWIDTH 688 0
DWIDTH 12 0
BBX 12 13 0 0
BITMAP
0400
0600
0E00
0B00
0B00
1300
1180
2180
3FC0
20C0
40C0
4060
E0F0
ENDCHAR
STARTCHAR Aacute
ENCODING 193
SWIDTH 656 0
DWIDTH 13 0
BBX 11 13 1 0
BITMAP
FFE0
6060
6020
6000
6000
7F80
60C0
6060
6060
6060
6060
60C0
FF80
ENDCHAR
STARTCHAR Acircumflex
ENCODING 194
SWIDTH 656 0
DWIDTH 13 0
BBX 11 13 1 0
BITMAP
FE00
6180
60C0
60C0
60C0
6180
7F80
60C0
6060
6060
6060
60C0
FF00
ENDCHAR
STARTCHAR Atilde
ENCODING 195
SWIDTH 594 0
DWIDTH 12 0
BBX 10 13 1 0
BITMAP
FFC0
60C0
6040
6000
6000
6000
6000
6000
6000
6000
6000
6000
F000
ENDCHAR
STARTCHAR Adieresis
ENCODING 196
SWIDTH 750 0
DWIDTH 13 0
BBX 11 15 1 -2
BITMAP
7FE0
20C0
20C0
20C0
20C0
20C0
20C0
20C0
20C0
20C0
20C0
40C0
FFE0
8020
8020
ENDCHAR
STARTCHAR Aring
ENCODING 197
SWIDTH 625 0
DWIDTH 12 0
BBX 10 13 1 0
BITMAP
FF80
6080
6000
6000
6000
6100
7F00
6100
6000
6000
6000
6040
FFC0
ENDCHAR
STARTCHAR AE
ENCODING 198
SWIDTH 1031 0
DWIDTH 17 0
BBX 16 13 1 0
BITMAP
E3C7
D18B
1188
0990
0990
07E0
1998
318C
318C
6186
6186
6186
F3CF
ENDCHAR
STARTCHAR Ccedilla
ENCODING 199
SWIDTH 656 0
DWIDTH 12 0
BBX 10 13 1 0
BITMAP
3C00
C300
8180
0180
0180
0300
1F00
0180
00C0
00C0
80C0
C180
3E00
ENDCHAR
STARTCHAR Egrave
ENCODING 200
SWIDTH 750 0
DWIDTH 14 0
BBX 12 13 1 0
BITMAP
F0F0
60E0
6160
6160
6260
6260
6460
6460
6860
6860
7060
7060
F0F0
ENDCHAR
STARTCHAR Eacute
ENCODING 201
SWIDTH 750 0
DWIDTH 14 0
BBX 12 16 1 0
BITMAP
1980
0F00
0000
F0F0
60E0
6160
6160
6260
6260
6460
6460
6860
6860
7060
7060
F0F0
ENDCHAR
STARTCHAR Ecircumflex
ENCODING 202
SWIDTH 719 0
DWIDTH 12 0
BBX 10 13 1 0
BITMAP
F1C0
62C0
6200
6400
6400
7800
6600
6300
6300
6180
6180
6180
F3C0
ENDCHAR
STARTCHAR Edieresis
ENCODING 203
SWIDTH 812 0
DWIDTH 13 0
BBX 12 13 0 0
BITMAP
3FF0
1060
1060
1060
1060
1060
1060
1060
1060
1060
1060
D060
E0F0
ENDCHAR
STARTCHAR Igrave
ENCODING 204
SWIDTH 875 0
DWIDTH 16 0
BBX 14 13 1 0
BITMAP
F03C
7038
7878
5858
5858
4C98
4C98
4C98
4718
4718
4718
4218
E23C
ENDCHAR
STARTCHAR Iacute
ENCODING 205
SWIDTH 719 0
DWIDTH 14 0
BBX 12 13 1 0
BITMAP
F0F0
6060
6060
6060
6060
6060
7FE0
6060
6060
6060
6060
6060
F0F0
ENDCHAR
STARTCHAR Icircumflex
ENCODING 206
SWIDTH 656 0
DWIDTH 14 0
BBX 12 13 1 0
BITMAP
0F00
30C0
6060
6060
C030
C030
C030
C030
C030
6060
6060
30C0
0F00
ENDCHAR
STARTCHAR Idieresis
ENCODING 207
SWIDTH 719 0
DWIDTH 14 0
BBX 12 13 1 0
BITMAP
FFF0
6060
6060
6060
6060
6060
6060
6060
6060
6060
6060
6060
F0F0
ENDCHAR
STARTCHAR Eth
ENCODING 208
SWIDTH 594 0
DWIDTH 13 0
BBX 11 13 1 0
BITMAP
FF00
60C0
6060
6060
6060
6060
60C0
7F00
6000
6000
6000
6000
F000
ENDCHAR
STARTCHAR Ntilde
ENCODING 209
SWIDTH 656 0
DWIDTH 13 0
BBX 11 13 1 0
BITMAP
0F40
38C0
6040
6000
C000
C000
C000
C000
C000
6000
6020
38C0
0F00
ENDCHAR
STARTCHAR Ograve
ENCODING 210
SWIDTH 656 0
DWIDTH 12 0
BBX 10 13 1 0
BITMAP
FFC0
8C40
0C00
0C00
0C00
0C00
0C00
0C00
0C00
0C00
0C00
0C00
1E00
ENDCHAR
STARTCHAR Oacute
ENCODING 211
SWIDTH 688 0
DWIDTH 12 0
BBX 12 13 0 0
BITMAP
F070
6020
3040
3040
1880
0C80
0D00
0700
0200
0200
0400
7400
3800
ENDCHAR
STARTCHAR Ocircumflex
ENCODING 212
SWIDTH 781 0
DWIDTH 16 0
BBX 14 13 1 0
BITMAP
0FC0
3330
6318
6318
C30C
C30C
C30C
6318
6318
3330
0FC0
0300
0780
ENDCHAR
STARTCHAR Otilde
ENCODING 213
SWIDTH 719 0
DWIDTH 14 0
BBX 12 13 1 0
BITMAP
F8F0
3060
1840
1C80
0D00
0700
0700
0B00
0980
11C0
20C0
6060
F0F0
ENDCHAR
STARTCHAR Odieresis
ENCODING 214
SWIDTH 719 0
DWIDTH 14 0
BBX 12 15 1 -2
BITMAP
F0F0
6060
6060
6060
6060
6060
6060
6060
6060
6060
6060
6060
FFF0
0010
0010
ENDCHAR
STARTCHAR multiply
ENCODING 215
SWIDTH 719 0
DWIDTH 14 0
BBX 12 13 1 0
BITMAP
F0F0
6060
6060
6060
6060
6060
6060
1FE0
0060
0060
0060
0060
00F0
ENDCHAR
STARTCHAR Oslash
ENCODING 216
SWIDTH 1031 0
DWIDTH 17 0
BBX 16 13 1 0
BITMAP
F3CF
6186
6186
6186
6186
6186
6186
6186
6186
6186
6186
6186
FFFF
ENDCHAR
STARTCHAR Ugrave
ENCODING 217
SWIDTH 1031 0
DWIDTH 17 0
BBX 16 15 1 -2
BITMAP
F3CF
6186
6186
6186
6186
6186
6186
6186
6186
6186
6186
6186
FFFF
0001
0001
ENDCHAR
STARTCHAR Uacute
ENCODING 218
SWIDTH 750 0
DWIDTH 15 0
BBX 13 13 1 0
BITMAP
FC00
9800
9800
1800
1800
1FE0
1830
1818
1818
1818
1818
1830
3FE0
ENDCHAR
STARTCHAR Ucircumflex
ENCODING 219
SWIDTH 906 0
DWIDTH 17 0
BBX 15 13 1 0
BITMAP
F01E
600C
600C
600C
600C
7F8C
60CC
606C
606C
606C
606C
60CC
FF9E
ENDCHAR
STARTCHAR Udieresis
ENCODING 220
SWIDTH 656 0
DWIDTH 13 0
BBX 11 13 1 0
BITMAP
F000
6000
6000
6000
6000
7F80
60C0
6060
6060
6060
6060
60C0
FF80
ENDCHAR
STARTCHAR Yacute
ENCODING 221
SWIDTH 656 0
DWIDTH 12 0
BBX 10 13 1 0
BITMAP
BF00
C180
80C0
00C0
00C0
10C0
1FC0
10C0
00C0
00C0
80C0
C180
BF00
ENDCHAR
STARTCHAR Thorn
ENCODING 222
SWIDTH 938 0
DWIDTH 17 0
BBX 16 13 1 0
BITMAP
F070
618C
6306
6306
6603
6603
7E03
6603
6603
6306
6306
618C
F0F0
ENDCHAR
STARTCHAR germandbls
ENCODING 223
SWIDTH 688 0
DWIDTH 15 0
BBX 14 13 0 0
BITMAP
07FC
0C18
1818
1818
1818
0C18
07F8
0318
0618
0C18
1818
3018
F03C
ENDCHAR
STARTCHAR agrave
ENCODING 224
SWIDTH 406 0
DWIDTH 9 0
BBX 8 9 1 0
BITMAP
7C
C6
C6
1E
66
C6
C6
CE
7B
ENDCHAR
STARTCHAR aacute
ENCODING 225
SWIDTH 469 0
DWIDTH 9 0
BBX 8 15 1 0
BITMAP
01
3E
40
C0
C0
C0
DC
E2
C1
C1
C1
C1
C1
E2
7C
ENDCHAR
STARTCHAR acircumflex
ENCODING 226
SWIDTH 406 0
DWIDTH 9 0
BBX 8 9 1 0
BITMAP
FE
61
61
61
7E
61
61
61
FE
ENDCHAR
STARTCHAR atilde
ENCODING 227
SWIDTH 438 0
DWIDTH 8 0
BBX 7 9 1 0
BITMAP
FE
62
60
60
60
60
60
60
F0
ENDCHAR
STARTCHAR adieresis
ENCODING 228
SWIDTH 500 0
DWIDTH 10 0
BBX 9 11 1 -2
BITMAP
7F80
2300
2300
2300
2300
2300
2300
4300
FF80
8080
8080
ENDCHAR
STARTCHAR aring
ENCODING 229
SWIDTH 438 0
DWIDTH 8 0
BBX 7 9 1 0
BITMAP
38
6C
C6
FE
C0
C0
C2
66
3C
ENDCHAR
STARTCHAR ae
ENCODING 230
SWIDTH 844 0
DWIDTH 15 0
BBX 14 9 1 0
BITMAP
E79C
D32C
1320
0B40
0FC0
1B60
3330
6318
F7BC
ENDCHAR
STARTCHAR ccedilla
ENCODING 231
SWIDTH 406 0
DWIDTH 8 0
BBX 7 9 1 0
BITMAP
7C
86
86
06
3C
06
86
86
7C
ENDCHAR
STARTCHAR egrave
ENCODING 232
SWIDTH 594 0
DWIDTH 11 0
BBX 10 9 1 0
BITMAP
F1C0
6380
6580
6580
6980
6980
7180
6180
F3C0
ENDCHAR
STARTCHAR eacute
ENCODING 233
SWIDTH 594 0
DWIDTH 11 0
BBX 10 11 1 0
BITMAP
1B00
0E00
F1C0
6380
6580
6580
6980
6980
7180
6180
F3C0
ENDCHAR
STARTCHAR ecircumflex
ENCODING 234
SWIDTH 531 0
DWIDTH 10 0
BBX 9 9 1 0
BITMAP
F380
6580
6400
6800
7800
6C00
6600
6300
F380
ENDCHAR
STARTCHAR edieresis
ENCODING 235
SWIDTH 594 0
DWIDTH 11 0
BBX 10 9 1 0
BITMAP
3FC0
1180
1180
1180
1180
1180
1180
D180
E3C0
ENDCHAR
STARTCHAR igrave
ENCODING 236
SWIDTH 719 0
DWIDTH 12 0
BBX 11 9 1 0
BITMAP
E0E0
71C0
71C0
5AC0
5AC0
4CC0
4CC0
40C0
E1E0
ENDCHAR
STARTCHAR iacute
ENCODING 237
SWIDTH 594 0
DWIDTH 11 0
BBX 10 9 1 0
BITMAP
F3C0
6180
6180
6180
7F80
6180
6180
6180
F3C0
ENDCHAR
STARTCHAR icircumflex
ENCODING 238
SWIDTH 531 0
DWIDTH 9 0
BBX 8 9 1 0
BITMAP
3C
46
C3
C3
C3
C3
C3
62
3C
ENDCHAR
STARTCHAR idieresis
ENCODING 239
SWIDTH 594 0
DWIDTH 11 0
BBX 10 9 1 0
BITMAP
FFC0
6180
6180
6180
6180
6180
6180
6180
F3C0
ENDCHAR
STARTCHAR eth
ENCODING 240
SWIDTH 531 0
DWIDTH 10 0
BBX 9 13 1 -4
BITMAP
FE00
6300
6180
6180
6180
6180
6180
6300
7E00
6000
6000
6000
F000
ENDCHAR
STARTCHAR ntilde
ENCODING 241
SWIDTH 438 0
DWIDTH 8 0
BBX 7 9 1 0
BITMAP
3C
66
C6
C0
C0
C0
C2
66
3C
ENDCHAR
STARTCHAR ograve
ENCODING 242
SWIDTH 531 0
DWIDTH 9 0
BBX 8 9 1 0
BITMAP
FF
99
99
18
18
18
18
18
3C
ENDCHAR
STARTCHAR oacute
ENCODING 243
SWIDTH 531 0
DWIDTH 10 0
BBX 9 13 1 -4
BITMAP
F380
6100
6100
3200
3200
1C00
1C00
0800
0800
1800
5000
F000
6000
ENDCHAR
STARTCHAR ocircumflex
ENCODING 244
SWIDTH 594 0
DWIDTH 11 0
BBX 10 14 1 -5
BITMAP
3F00
4C80
CCC0
CCC0
CCC0
CCC0
CCC0
4C80
3F00
0C00
0C00
0C00
0C00
1E00
ENDCHAR
STARTCHAR otilde
ENCODING 245
SWIDTH 531 0
DWIDTH 9 0
BBX 8 9 1 0
BITMAP
F7
62
34
38
18
1C
2C
46
EF
ENDCHAR
STARTCHAR odieresis
ENCODING 246
SWIDTH 594 0
DWIDTH 11 0
BBX 10 11 1 -2
BITMAP
F3C0
6180
6180
6180
6180
6180
6180
6180
FFC0
0040
0040
ENDCHAR
STARTCHAR divide
ENCODING 247
SWIDTH 594 0
DWIDTH 11 0
BBX 10 9 1 0
BITMAP
F3C0
6180
6180
6180
3F80
0180
0180
0180
03C0
ENDCHAR
STARTCHAR oslash
ENCODING 248
SWIDTH 844 0
DWIDTH 15 0
BBX 14 9 1 0
BITMAP
E7BC
6318
6318
6318
6318
6318
6318
6318
FFFC
ENDCHAR
STARTCHAR ugrave
ENCODING 249
SWIDTH 844 0
DWIDTH 15 0
BBX 14 11 1 -2
BITMAP
E7BC
6318
6318
6318
6318
6318
6318
6318
FFFC
0004
0004
ENDCHAR
STARTCHAR uacute
ENCODING 250
SWIDTH 562 0
DWIDTH 11 0
BBX 10 9 1 0
BITMAP
FC00
9800
9800
1F80
18C0
18C0
18C0
18C0
3F80
ENDCHAR
STARTCHAR ucircumflex
ENCODING 251
SWIDTH 688 0
DWIDTH 14 0
BBX 13 9 1 0
BITMAP
F078
6030
6030
7E30
6330
6330
6330
6330
FE78
ENDCHAR
STARTCHAR udieresis
ENCODING 252
SWIDTH 469 0
DWIDTH 9 0
BBX 8 9 1 0
BITMAP
F0
60
60
7E
63
63
63
63
FE
ENDCHAR
STARTCHAR yacute
ENCODING 253
SWIDTH 438 0
DWIDTH 8 0
BBX 7 9 1 0
BITMAP
7C
86
86
06
3E
06
86
86
7C
ENDCHAR
STARTCHAR thorn
ENCODING 254
SWIDTH 750 0
DWIDTH 14 0
BBX 13 9 1 0
BITMAP
F1E0
6230
6618
6618
7E18
6618
6618
6310
F1E0
ENDCHAR
STARTCHAR ydieresis
ENCODING 255
SWIDTH 594 0
DWIDTH 10 0
BBX 10 9 0 0
BITMAP
3FC0
6180
6180
6180
3F80
1980
3180
6180
C3C0
ENDCHAR
ENDFONT
